<svg id="svg" version="1.1" xmlns="http://www.w3.org/2000/svg" xmlns:xlink="http://www.w3.org/1999/xlink" width="400" height="400" viewBox="0, 0, 400,400"><g id="svgg"><path id="path0" d="M30.800 1.022 C 30.800 1.586,30.953 1.953,31.140 1.837 C 31.327 1.722,31.732 2.116,32.040 2.714 C 32.348 3.311,33.013 4.250,33.519 4.800 C 34.024 5.350,34.736 6.430,35.101 7.200 C 35.465 7.970,36.087 8.835,36.482 9.123 C 36.877 9.410,37.200 9.878,37.200 10.163 C 37.200 10.448,37.740 11.246,38.400 11.937 C 39.060 12.628,39.600 13.329,39.600 13.496 C 39.601 13.663,40.047 14.318,40.592 14.952 C 41.137 15.586,41.486 16.261,41.368 16.452 C 41.250 16.643,41.322 16.800,41.528 16.800 C 41.734 16.800,42.126 17.338,42.398 17.995 C 42.670 18.652,43.052 19.091,43.246 18.971 C 43.441 18.851,43.600 19.033,43.600 19.376 C 43.600 19.719,43.780 20.000,44.000 20.000 C 44.220 20.000,44.400 20.270,44.400 20.600 C 44.400 20.930,44.591 21.200,44.824 21.200 C 45.057 21.200,45.136 21.380,45.000 21.600 C 44.864 21.820,44.943 22.000,45.176 22.000 C 45.409 22.000,45.600 22.276,45.600 22.613 C 45.600 22.949,45.869 23.328,46.198 23.454 C 46.526 23.581,46.711 23.820,46.609 23.986 C 46.506 24.152,46.952 24.809,47.600 25.444 C 48.248 26.080,48.783 26.825,48.789 27.100 C 48.795 27.375,48.980 27.600,49.200 27.600 C 49.420 27.600,49.600 27.836,49.600 28.125 C 49.600 28.413,49.960 29.036,50.400 29.508 C 50.840 29.980,51.200 30.554,51.200 30.783 C 51.200 31.012,51.380 31.200,51.600 31.200 C 51.820 31.200,52.000 31.470,52.000 31.800 C 52.000 32.130,52.180 32.400,52.400 32.400 C 52.620 32.400,52.800 32.678,52.800 33.018 C 52.800 33.358,53.236 34.072,53.769 34.605 C 54.302 35.138,54.854 35.940,54.996 36.387 C 55.138 36.834,55.422 37.200,55.627 37.200 C 55.832 37.200,56.000 37.430,56.000 37.712 C 56.000 37.993,56.360 38.483,56.800 38.800 C 57.240 39.117,57.600 39.657,57.600 40.000 C 57.600 40.343,57.950 40.876,58.379 41.185 C 58.807 41.493,59.066 41.893,58.955 42.073 C 58.844 42.253,58.943 42.400,59.176 42.400 C 59.409 42.400,59.600 42.670,59.600 43.000 C 59.600 43.330,59.780 43.600,60.000 43.600 C 60.220 43.600,60.400 43.851,60.400 44.157 C 60.400 44.464,60.685 44.824,61.033 44.957 C 61.382 45.091,61.590 45.425,61.496 45.700 C 61.402 45.975,61.612 46.473,61.963 46.806 C 62.313 47.139,62.828 47.769,63.106 48.206 C 64.760 50.804,65.205 51.459,65.676 51.992 C 65.964 52.317,66.155 52.722,66.100 52.892 C 66.045 53.061,66.180 53.200,66.400 53.200 C 66.620 53.200,66.800 53.500,66.800 53.867 C 66.800 54.233,66.922 54.411,67.072 54.262 C 67.221 54.112,67.819 54.805,68.400 55.800 C 68.981 56.795,69.579 57.488,69.728 57.338 C 69.878 57.189,70.000 57.467,70.000 57.957 C 70.000 58.449,70.179 58.737,70.400 58.600 C 70.620 58.464,70.800 58.618,70.800 58.943 C 70.800 59.268,70.966 59.593,71.170 59.667 C 71.373 59.740,71.598 60.070,71.670 60.400 C 71.741 60.730,72.115 61.291,72.500 61.647 C 72.885 62.003,73.200 62.598,73.200 62.971 C 73.200 63.343,73.380 63.536,73.600 63.400 C 73.820 63.264,74.000 63.418,74.000 63.743 C 74.000 64.068,74.166 64.393,74.370 64.467 C 74.573 64.540,74.798 64.863,74.870 65.184 C 75.012 65.825,75.143 66.030,76.526 67.800 C 77.042 68.460,77.579 69.315,77.719 69.700 C 77.860 70.085,78.171 70.400,78.411 70.400 C 78.651 70.400,78.753 70.553,78.637 70.739 C 78.522 70.926,78.781 71.459,79.214 71.923 C 79.646 72.387,80.000 72.920,80.000 73.108 C 80.000 73.296,80.540 73.968,81.200 74.600 C 81.860 75.232,82.400 75.986,82.400 76.275 C 82.400 76.564,82.580 76.800,82.800 76.800 C 83.020 76.800,83.200 77.171,83.200 77.624 C 83.200 78.077,83.380 78.336,83.600 78.200 C 83.820 78.064,84.000 78.233,84.000 78.576 C 84.000 78.919,84.180 79.200,84.400 79.200 C 84.620 79.200,84.800 79.571,84.800 80.024 C 84.800 80.477,84.980 80.736,85.200 80.600 C 85.420 80.464,85.600 80.633,85.600 80.976 C 85.600 81.319,85.780 81.600,86.000 81.600 C 86.220 81.600,86.400 81.842,86.400 82.138 C 86.400 82.434,86.760 83.002,87.200 83.400 C 87.640 83.798,88.000 84.366,88.000 84.662 C 88.000 84.958,88.180 85.200,88.400 85.200 C 88.620 85.200,88.800 85.481,88.800 85.824 C 88.800 86.167,88.980 86.336,89.200 86.200 C 89.420 86.064,89.600 86.233,89.600 86.576 C 89.600 86.919,89.780 87.200,90.000 87.200 C 90.220 87.200,90.400 87.478,90.400 87.818 C 90.400 88.158,90.850 88.886,91.400 89.436 C 91.950 89.986,92.400 90.698,92.400 91.018 C 92.400 91.338,92.580 91.600,92.800 91.600 C 93.020 91.600,93.200 91.836,93.200 92.125 C 93.200 92.413,93.560 93.036,94.000 93.508 C 94.440 93.980,94.800 94.560,94.800 94.796 C 94.800 95.032,95.069 95.328,95.398 95.454 C 95.726 95.581,95.907 95.826,95.800 96.000 C 95.693 96.174,95.874 96.419,96.202 96.546 C 96.531 96.672,96.800 97.051,96.800 97.387 C 96.800 97.724,96.991 98.000,97.224 98.000 C 97.457 98.000,97.536 98.180,97.400 98.400 C 97.264 98.620,97.301 98.800,97.482 98.800 C 97.663 98.800,98.256 99.520,98.800 100.400 C 99.344 101.280,99.926 102.000,100.094 102.000 C 100.262 102.000,100.400 102.320,100.400 102.712 C 100.400 103.103,100.760 103.683,101.200 104.000 C 101.640 104.317,102.000 104.762,102.000 104.988 C 102.001 105.215,102.418 105.884,102.927 106.476 C 104.480 108.282,105.326 109.495,105.234 109.785 C 105.187 109.936,105.519 110.383,105.974 110.777 C 106.428 111.171,106.800 111.744,106.800 112.051 C 106.800 112.357,107.160 112.832,107.600 113.107 C 108.040 113.382,108.400 113.886,108.400 114.227 C 108.400 114.568,108.561 114.748,108.757 114.626 C 108.954 114.505,109.238 114.897,109.389 115.499 C 109.540 116.100,109.874 116.722,110.132 116.881 C 110.389 117.041,110.600 117.317,110.600 117.495 C 110.600 117.673,110.999 118.247,111.486 118.770 C 111.974 119.293,112.278 119.874,112.163 120.061 C 112.047 120.247,112.143 120.400,112.376 120.400 C 112.609 120.400,112.800 120.670,112.800 121.000 C 112.800 121.330,112.980 121.600,113.200 121.600 C 113.420 121.600,113.600 121.788,113.600 122.018 C 113.600 122.248,114.053 122.890,114.608 123.444 C 115.162 123.998,115.531 124.587,115.429 124.753 C 115.327 124.919,115.593 125.307,116.021 125.615 C 116.450 125.924,116.800 126.379,116.800 126.626 C 116.800 126.874,117.160 127.402,117.600 127.800 C 118.040 128.198,118.401 128.721,118.402 128.962 C 118.403 129.203,118.943 129.975,119.602 130.678 C 120.261 131.381,120.800 132.197,120.800 132.490 C 120.800 132.783,121.160 133.283,121.600 133.600 C 122.040 133.917,122.400 134.507,122.400 134.912 C 122.400 135.316,122.547 135.556,122.727 135.445 C 122.906 135.334,123.366 135.774,123.749 136.422 C 124.132 137.070,124.344 137.600,124.220 137.600 C 124.095 137.600,124.490 138.157,125.097 138.838 C 125.704 139.519,126.208 140.284,126.218 140.538 C 126.228 140.792,126.453 140.955,126.718 140.900 C 126.983 140.845,127.200 141.132,127.200 141.538 C 127.200 141.944,127.560 142.602,128.000 143.000 C 128.440 143.398,128.800 143.947,128.800 144.219 C 128.800 144.492,129.070 144.818,129.400 144.945 C 129.730 145.071,130.000 145.523,130.000 145.948 C 130.000 147.300,131.945 146.723,136.247 144.094 C 139.872 141.878,153.186 135.200,153.978 135.200 C 154.151 135.200,155.172 134.857,156.247 134.438 C 157.321 134.019,159.280 133.281,160.600 132.799 C 161.920 132.317,163.360 131.775,163.800 131.594 C 164.240 131.414,165.050 131.152,165.600 131.012 C 166.150 130.871,169.390 130.042,172.800 129.169 C 176.210 128.296,180.260 127.406,181.800 127.192 C 183.340 126.977,185.680 126.623,187.000 126.405 C 197.438 124.678,215.400 124.760,226.600 126.585 C 228.580 126.908,230.345 127.178,230.522 127.186 C 230.699 127.194,229.631 125.445,228.149 123.300 C 226.667 121.155,222.932 115.710,219.849 111.200 C 216.766 106.690,211.038 98.320,207.120 92.600 C 201.687 84.670,200.025 81.956,200.118 81.170 C 200.186 80.604,200.007 79.922,199.720 79.655 C 199.434 79.387,199.194 79.311,199.186 79.484 C 199.179 79.658,198.852 79.122,198.460 78.293 C 198.067 77.465,197.624 76.910,197.473 77.060 C 197.323 77.210,197.200 77.033,197.200 76.667 C 197.200 76.300,197.020 76.000,196.800 76.000 C 196.580 76.000,196.400 75.770,196.400 75.488 C 196.400 75.207,196.040 74.717,195.600 74.400 C 195.160 74.083,194.800 73.493,194.800 73.088 C 194.800 72.684,194.620 72.464,194.400 72.600 C 194.180 72.736,194.000 72.567,194.000 72.224 C 194.000 71.881,193.820 71.600,193.600 71.600 C 193.380 71.600,193.200 71.322,193.200 70.982 C 193.200 70.642,192.750 69.914,192.200 69.364 C 191.650 68.814,191.200 68.096,191.200 67.769 C 191.200 67.442,190.931 67.072,190.602 66.946 C 190.274 66.819,190.090 66.578,190.195 66.408 C 190.299 66.239,189.952 65.634,189.424 65.063 C 188.895 64.493,188.352 63.678,188.217 63.253 C 188.082 62.828,187.504 62.013,186.931 61.440 C 186.359 60.868,186.039 60.400,186.220 60.400 C 186.401 60.400,186.032 59.860,185.400 59.200 C 184.768 58.540,184.402 58.000,184.586 58.000 C 184.771 58.000,184.535 57.664,184.061 57.253 C 183.588 56.842,183.200 56.202,183.200 55.829 C 183.200 55.457,183.020 55.264,182.800 55.400 C 182.580 55.536,182.400 55.406,182.400 55.112 C 182.400 54.817,182.040 54.317,181.600 54.000 C 181.160 53.683,180.800 53.103,180.800 52.712 C 180.800 52.320,180.620 52.000,180.400 52.000 C 180.180 52.000,180.000 51.758,180.000 51.462 C 180.000 51.166,179.640 50.598,179.200 50.200 C 178.760 49.802,178.400 49.234,178.400 48.938 C 178.400 48.642,178.220 48.400,178.000 48.400 C 177.780 48.400,177.600 48.173,177.600 47.896 C 177.600 47.619,177.240 47.168,176.800 46.893 C 176.360 46.618,176.000 46.005,176.000 45.530 C 176.000 45.055,175.885 44.782,175.744 44.922 C 175.604 45.063,175.135 44.463,174.703 43.589 C 174.270 42.715,173.755 42.000,173.558 42.000 C 173.361 42.000,173.200 41.724,173.200 41.387 C 173.200 41.051,172.931 40.672,172.602 40.546 C 172.274 40.419,172.104 40.155,172.226 39.958 C 172.348 39.761,172.257 39.600,172.024 39.600 C 171.791 39.600,171.600 39.352,171.600 39.049 C 171.600 38.746,171.327 38.271,170.993 37.994 C 170.659 37.717,170.099 36.886,169.749 36.148 C 169.399 35.411,168.952 34.906,168.756 35.027 C 168.560 35.148,168.400 35.049,168.400 34.807 C 168.400 34.316,166.767 31.874,166.300 31.667 C 166.135 31.593,166.000 31.228,166.000 30.855 C 166.000 30.482,165.640 29.917,165.200 29.600 C 164.760 29.283,164.400 28.795,164.400 28.515 C 164.400 28.236,164.040 27.782,163.600 27.507 C 163.160 27.232,162.800 26.779,162.800 26.500 C 162.800 26.221,162.260 25.428,161.600 24.737 C 160.940 24.046,160.400 23.238,160.400 22.941 C 160.400 22.643,160.220 22.400,160.000 22.400 C 159.780 22.400,159.600 22.040,159.600 21.600 C 159.600 21.160,159.416 20.800,159.190 20.800 C 158.965 20.800,158.609 20.350,158.400 19.800 C 158.191 19.250,157.825 18.800,157.586 18.800 C 157.348 18.800,157.247 18.647,157.363 18.461 C 157.478 18.274,157.174 17.695,156.686 17.175 C 155.698 16.120,154.940 14.953,154.560 13.900 C 154.421 13.515,154.148 13.200,153.953 13.200 C 153.759 13.200,153.600 12.919,153.600 12.576 C 153.600 12.233,153.420 12.064,153.200 12.200 C 152.980 12.336,152.800 12.165,152.800 11.820 C 152.800 11.475,152.292 10.661,151.670 10.010 C 151.049 9.360,150.120 8.012,149.607 7.014 C 149.094 6.016,148.523 5.200,148.337 5.200 C 148.152 5.200,148.000 4.936,148.000 4.614 C 148.000 4.292,147.640 3.835,147.200 3.600 C 146.760 3.365,146.400 2.908,146.400 2.586 C 146.400 2.264,146.263 2.000,146.095 2.000 C 145.927 2.000,145.612 1.595,145.395 1.100 L 145.000 0.200 87.900 0.099 L 30.800 -0.003 30.800 1.022 M231.233 127.344 C 231.325 127.424,232.210 127.596,233.200 127.727 C 234.402 127.886,234.734 127.847,234.200 127.610 C 233.436 127.272,230.886 127.043,231.233 127.344 M238.433 128.944 C 238.525 129.023,239.140 129.208,239.800 129.356 C 240.676 129.552,240.838 129.515,240.400 129.218 C 239.860 128.853,238.032 128.598,238.433 128.944 M244.833 130.544 C 244.925 130.623,245.540 130.808,246.200 130.956 C 247.076 131.152,247.238 131.115,246.800 130.818 C 246.260 130.453,244.432 130.198,244.833 130.544 M266.000 138.800 C 267.210 139.439,268.380 139.962,268.600 139.962 C 268.820 139.962,268.010 139.439,266.800 138.800 C 265.590 138.161,264.420 137.638,264.200 137.638 C 263.980 137.638,264.790 138.161,266.000 138.800 M269.200 140.219 C 269.200 140.578,272.025 141.654,272.485 141.470 C 272.768 141.356,272.606 141.249,272.124 141.232 C 271.642 141.214,271.149 141.042,271.030 140.848 C 270.814 140.499,269.200 139.944,269.200 140.219 " stroke="none" fill="#e3544b" fill-rule="evenodd"></path><path id="path1" d="M202.800 163.009 C 202.470 163.103,200.040 163.367,197.400 163.594 C 187.725 164.429,181.348 165.811,172.200 169.057 C 167.805 170.617,157.053 175.757,155.825 176.887 C 155.398 177.279,154.813 177.600,154.525 177.600 C 154.236 177.600,154.000 177.780,154.000 178.000 C 154.000 178.220,153.810 178.400,153.578 178.400 C 153.179 178.400,148.426 181.458,148.000 181.989 C 147.890 182.126,147.170 182.667,146.400 183.190 C 144.724 184.330,138.381 189.731,136.244 191.838 C 135.002 193.063,129.324 199.430,128.823 200.160 C 128.506 200.622,128.137 201.090,128.004 201.200 C 127.871 201.310,127.329 202.030,126.800 202.800 C 126.271 203.570,125.718 204.290,125.570 204.400 C 125.423 204.510,124.563 205.770,123.659 207.200 C 122.756 208.630,121.878 209.988,121.708 210.217 C 120.643 211.659,114.726 223.294,113.988 225.400 C 113.833 225.840,113.521 226.650,113.294 227.200 C 113.067 227.750,112.664 228.830,112.400 229.600 C 112.136 230.370,111.782 231.360,111.615 231.800 C 110.886 233.718,110.400 235.519,110.400 236.305 C 110.400 236.771,110.220 237.264,110.000 237.400 C 109.780 237.536,109.600 238.256,109.600 239.000 C 109.600 239.744,109.443 240.450,109.252 240.568 C 109.060 240.686,108.780 241.732,108.629 242.892 C 108.478 244.051,108.177 246.080,107.961 247.400 C 106.462 256.554,106.466 268.383,107.971 277.800 C 108.182 279.120,108.478 281.149,108.629 282.308 C 108.780 283.468,109.060 284.514,109.252 284.632 C 109.443 284.750,109.600 285.366,109.600 286.000 C 109.600 286.634,109.780 287.264,110.000 287.400 C 110.220 287.536,110.400 288.179,110.400 288.829 C 110.400 289.479,110.558 290.323,110.751 290.705 C 110.944 291.087,111.316 292.120,111.577 293.000 C 111.839 293.880,112.203 294.960,112.387 295.400 C 112.571 295.840,113.122 297.280,113.610 298.600 C 115.003 302.363,118.612 309.710,120.803 313.244 C 121.901 315.015,122.800 316.563,122.800 316.685 C 122.800 317.282,129.051 325.235,133.119 329.812 C 137.235 334.444,150.803 346.000,152.126 346.000 C 152.242 346.000,153.785 346.899,155.556 347.997 C 159.090 350.188,166.437 353.797,170.200 355.190 C 171.520 355.678,172.960 356.229,173.400 356.413 C 173.840 356.597,174.920 356.961,175.800 357.223 C 176.680 357.484,177.713 357.856,178.095 358.049 C 178.477 358.242,179.321 358.400,179.971 358.400 C 180.621 358.400,181.264 358.580,181.400 358.800 C 181.536 359.020,182.166 359.200,182.800 359.200 C 183.434 359.200,184.050 359.357,184.168 359.548 C 184.286 359.740,185.332 360.020,186.492 360.171 C 187.651 360.322,189.680 360.618,191.000 360.829 C 200.417 362.334,212.246 362.338,221.400 360.839 C 222.720 360.623,224.749 360.322,225.908 360.171 C 227.068 360.020,228.114 359.740,228.232 359.548 C 228.350 359.357,229.056 359.200,229.800 359.200 C 230.544 359.200,231.264 359.020,231.400 358.800 C 231.536 358.580,232.029 358.400,232.495 358.400 C 233.281 358.400,235.082 357.914,237.000 357.185 C 237.440 357.018,238.430 356.664,239.200 356.400 C 239.970 356.136,241.005 355.757,241.500 355.560 C 241.995 355.362,242.805 355.050,243.300 354.866 C 245.707 353.972,257.147 348.153,258.583 347.092 C 258.812 346.922,260.170 346.044,261.600 345.141 C 263.030 344.237,264.290 343.377,264.400 343.230 C 264.510 343.082,265.230 342.529,266.000 342.000 C 266.770 341.471,267.490 340.929,267.600 340.796 C 267.710 340.663,268.178 340.294,268.640 339.977 C 269.872 339.131,276.298 333.251,277.965 331.444 C 280.013 329.224,279.981 329.260,282.431 326.400 C 283.656 324.970,285.086 323.170,285.610 322.400 C 286.133 321.630,286.674 320.910,286.811 320.800 C 287.342 320.374,290.400 315.621,290.400 315.222 C 290.400 314.990,290.580 314.800,290.800 314.800 C 291.020 314.800,291.200 314.564,291.200 314.275 C 291.200 313.987,291.521 313.402,291.913 312.975 C 293.043 311.747,298.183 300.995,299.743 296.600 C 302.890 287.730,304.205 281.785,305.272 271.600 C 306.286 261.925,305.433 249.126,303.189 240.328 C 302.722 238.498,302.183 236.280,301.991 235.400 C 301.632 233.753,300.289 229.791,298.796 225.972 C 297.074 221.569,293.209 213.609,292.400 212.800 C 292.213 212.613,291.678 211.702,290.638 209.800 C 290.397 209.360,290.092 208.910,289.960 208.800 C 289.828 208.690,289.499 208.181,289.229 207.668 C 288.959 207.156,288.495 206.436,288.198 206.068 C 287.901 205.701,286.714 204.140,285.560 202.600 C 280.090 195.298,273.502 188.710,266.200 183.240 C 264.660 182.086,263.099 180.899,262.732 180.602 C 262.364 180.305,261.644 179.841,261.132 179.571 C 260.619 179.301,260.110 178.972,260.000 178.840 C 259.890 178.708,259.395 178.375,258.900 178.100 C 258.405 177.825,257.595 177.375,257.100 177.100 C 256.605 176.825,256.110 176.510,256.000 176.400 C 255.186 175.586,247.259 171.737,242.828 170.004 C 239.005 168.509,235.046 167.168,233.400 166.810 C 232.520 166.618,230.360 166.082,228.600 165.618 C 222.787 164.084,205.240 162.310,202.800 163.009 M217.400 187.974 C 218.720 188.204,220.700 188.584,221.800 188.818 C 222.900 189.053,224.387 189.344,225.104 189.466 C 225.821 189.588,226.506 189.849,226.627 190.044 C 226.748 190.240,227.289 190.400,227.829 190.400 C 228.369 190.400,229.168 190.580,229.605 190.800 C 230.042 191.020,230.758 191.380,231.195 191.600 C 231.632 191.820,232.264 192.000,232.600 192.000 C 232.936 192.000,233.523 192.162,233.905 192.359 C 234.287 192.557,236.220 193.494,238.200 194.441 C 254.340 202.167,266.633 214.460,274.359 230.600 C 275.306 232.580,276.243 234.513,276.441 234.895 C 276.638 235.277,276.800 235.864,276.800 236.200 C 276.800 236.536,277.008 237.213,277.262 237.705 C 278.272 239.659,278.400 240.025,278.400 240.971 C 278.400 241.511,278.560 242.052,278.756 242.173 C 278.951 242.294,279.212 242.979,279.334 243.696 C 279.456 244.413,279.747 245.900,279.982 247.000 C 281.945 256.215,282.094 267.572,280.367 276.200 C 279.268 281.687,277.638 287.170,276.353 289.695 C 276.159 290.077,276.000 290.633,276.000 290.930 C 276.000 291.616,272.656 298.171,270.540 301.633 C 266.095 308.906,258.898 316.988,252.800 321.554 C 251.150 322.789,249.452 324.115,249.025 324.500 C 248.599 324.885,247.744 325.424,247.125 325.697 C 246.506 325.971,246.000 326.331,246.000 326.498 C 246.000 326.664,245.803 326.800,245.562 326.800 C 245.321 326.800,244.565 327.198,243.883 327.683 C 242.350 328.775,234.959 332.400,234.266 332.400 C 233.988 332.400,233.589 332.555,233.380 332.745 C 232.415 333.622,223.926 335.855,216.576 337.167 C 213.418 337.731,198.944 337.726,195.824 337.160 C 184.031 335.022,174.235 331.457,167.122 326.718 C 165.869 325.883,164.746 325.200,164.627 325.200 C 164.507 325.200,164.092 324.940,163.705 324.622 C 163.317 324.305,161.830 323.187,160.400 322.139 C 157.051 319.684,149.116 311.749,146.661 308.400 C 145.613 306.970,144.495 305.483,144.178 305.095 C 143.860 304.708,143.600 304.293,143.600 304.173 C 143.600 304.054,142.917 302.931,142.082 301.678 C 137.343 294.565,133.778 284.769,131.640 272.976 C 131.074 269.856,131.069 255.382,131.633 252.224 C 132.945 244.874,135.178 236.385,136.055 235.420 C 136.245 235.211,136.400 234.812,136.400 234.534 C 136.400 233.841,140.025 226.450,141.117 224.917 C 141.602 224.235,142.000 223.479,142.000 223.238 C 142.000 222.997,142.136 222.800,142.302 222.800 C 142.469 222.800,142.829 222.294,143.103 221.675 C 143.376 221.056,143.922 220.201,144.315 219.775 C 144.708 219.349,145.864 217.830,146.884 216.400 C 150.927 210.731,159.916 202.691,167.167 198.260 C 170.629 196.144,177.184 192.800,177.870 192.800 C 178.167 192.800,178.723 192.641,179.105 192.447 C 180.743 191.614,183.093 190.783,185.900 190.046 C 190.909 188.731,192.925 188.297,197.000 187.654 C 199.977 187.185,214.149 187.407,217.400 187.974 " stroke="none" fill="#d48c54" fill-rule="evenodd"></path><path id="path2" d="M254.900 0.265 C 254.625 0.376,254.400 0.723,254.400 1.037 C 254.400 1.351,253.860 2.172,253.200 2.863 C 252.540 3.554,252.000 4.362,252.000 4.659 C 252.000 4.957,251.832 5.200,251.627 5.200 C 251.422 5.200,251.146 5.539,251.015 5.952 C 250.884 6.366,250.467 7.088,250.088 7.556 C 248.523 9.493,247.938 10.297,246.707 12.200 C 245.997 13.300,245.097 14.549,244.708 14.975 C 244.318 15.402,244.000 15.909,244.000 16.102 C 244.000 16.295,243.550 17.043,243.000 17.764 C 242.450 18.486,242.000 19.284,242.000 19.538 C 242.000 19.792,241.820 20.000,241.600 20.000 C 241.380 20.000,241.200 20.270,241.200 20.600 C 241.200 20.930,241.020 21.200,240.800 21.200 C 240.580 21.200,240.400 21.430,240.400 21.712 C 240.400 21.993,240.040 22.483,239.600 22.800 C 239.160 23.117,238.800 23.620,238.800 23.917 C 238.800 24.214,238.575 24.694,238.300 24.984 C 237.141 26.205,236.400 27.236,236.400 27.628 C 236.400 27.859,236.220 27.936,236.000 27.800 C 235.780 27.664,235.600 27.896,235.600 28.314 C 235.600 28.733,235.240 29.402,234.800 29.800 C 234.360 30.198,234.000 30.700,234.000 30.915 C 234.000 31.130,233.684 31.597,233.297 31.953 C 232.911 32.309,232.340 33.095,232.030 33.700 C 231.719 34.305,231.315 34.800,231.132 34.800 C 230.950 34.800,230.800 35.070,230.800 35.400 C 230.800 35.730,230.620 36.000,230.400 36.000 C 230.180 36.000,230.000 36.188,230.000 36.417 C 230.000 36.646,229.818 37.051,229.595 37.317 C 228.703 38.383,225.600 43.286,225.600 43.631 C 225.600 43.834,225.450 44.000,225.268 44.000 C 225.085 44.000,224.680 44.492,224.368 45.094 C 223.804 46.180,223.061 47.203,222.100 48.216 C 221.825 48.506,221.600 48.936,221.600 49.171 C 221.600 49.407,221.420 49.600,221.200 49.600 C 220.980 49.600,220.800 49.825,220.800 50.100 C 220.799 50.375,220.349 51.123,219.800 51.762 C 219.250 52.401,218.800 53.068,218.800 53.244 C 218.800 53.420,218.350 54.014,217.800 54.564 C 217.250 55.114,216.800 55.802,216.800 56.094 C 216.800 56.385,216.440 56.883,216.000 57.200 C 215.560 57.517,215.200 58.082,215.200 58.455 C 215.200 58.828,215.065 59.193,214.900 59.267 C 214.735 59.340,213.790 60.480,212.801 61.800 C 211.812 63.120,210.912 64.290,210.801 64.400 C 210.690 64.510,210.257 65.275,209.837 66.100 C 209.417 66.925,208.922 67.600,208.737 67.600 C 208.552 67.600,208.400 67.920,208.400 68.312 C 208.400 68.703,208.040 69.283,207.600 69.600 C 207.160 69.917,206.800 70.457,206.800 70.800 C 206.800 71.143,206.440 71.683,206.000 72.000 C 205.560 72.317,205.200 72.857,205.200 73.200 C 205.200 73.543,204.840 74.083,204.400 74.400 C 203.960 74.717,203.600 75.205,203.600 75.485 C 203.600 75.764,203.240 76.218,202.800 76.493 C 202.360 76.768,202.000 77.185,202.000 77.421 C 202.000 77.656,201.628 78.249,201.173 78.737 C 199.192 80.863,199.391 81.327,207.116 92.600 C 211.036 98.320,216.766 106.690,219.848 111.200 C 231.014 127.537,230.601 126.988,231.852 127.134 C 232.483 127.207,233.990 127.540,235.200 127.872 C 236.410 128.205,238.075 128.640,238.900 128.839 C 239.725 129.037,241.120 129.380,242.000 129.600 C 242.880 129.820,244.275 130.163,245.100 130.363 C 246.967 130.814,248.115 131.198,252.400 132.800 C 254.270 133.499,256.291 134.222,256.892 134.405 C 258.044 134.758,264.226 137.547,268.933 139.838 C 270.473 140.587,272.053 141.200,272.446 141.200 C 273.176 141.200,275.200 138.894,275.200 138.062 C 275.200 137.808,275.380 137.600,275.600 137.600 C 275.820 137.600,276.000 137.330,276.000 137.000 C 276.000 136.670,276.150 136.400,276.332 136.400 C 276.515 136.400,276.919 135.905,277.230 135.300 C 277.540 134.695,278.111 133.909,278.497 133.553 C 278.884 133.197,279.200 132.701,279.200 132.449 C 279.200 132.198,279.740 131.428,280.400 130.737 C 281.060 130.046,281.600 129.238,281.600 128.941 C 281.600 128.643,281.780 128.400,282.000 128.400 C 282.220 128.400,282.400 128.130,282.400 127.800 C 282.400 127.470,282.580 127.200,282.800 127.200 C 283.020 127.200,283.200 126.970,283.200 126.688 C 283.200 126.407,283.560 125.917,284.000 125.600 C 284.440 125.283,284.800 124.867,284.800 124.675 C 284.800 124.284,287.823 119.824,288.900 118.627 C 289.285 118.199,289.600 117.691,289.600 117.498 C 289.600 117.305,290.050 116.557,290.600 115.836 C 291.150 115.114,291.600 114.316,291.600 114.062 C 291.600 113.808,291.780 113.600,292.000 113.600 C 292.220 113.600,292.400 113.330,292.400 113.000 C 292.400 112.670,292.580 112.400,292.800 112.400 C 293.020 112.400,293.200 112.130,293.200 111.800 C 293.200 111.470,293.350 111.200,293.532 111.200 C 293.715 111.200,294.119 110.705,294.430 110.100 C 294.740 109.495,295.267 108.730,295.600 108.400 C 295.933 108.070,296.460 107.305,296.770 106.700 C 297.081 106.095,297.485 105.600,297.668 105.600 C 297.850 105.600,298.000 105.330,298.000 105.000 C 298.000 104.670,298.150 104.400,298.332 104.400 C 298.515 104.400,298.919 103.905,299.230 103.300 C 299.540 102.695,300.067 101.930,300.400 101.600 C 300.733 101.270,301.260 100.505,301.570 99.900 C 301.881 99.295,302.263 98.800,302.419 98.800 C 302.575 98.800,302.927 98.260,303.200 97.600 C 303.473 96.940,303.843 96.400,304.022 96.400 C 304.200 96.400,304.453 96.062,304.584 95.649 C 304.716 95.236,305.267 94.381,305.811 93.749 C 306.354 93.117,306.799 92.390,306.800 92.133 C 306.800 91.877,306.935 91.607,307.100 91.533 C 307.423 91.390,309.600 88.151,309.600 87.813 C 309.600 87.607,310.583 86.351,311.500 85.384 C 311.775 85.094,312.000 84.664,312.000 84.429 C 312.000 84.193,312.150 84.000,312.332 84.000 C 312.515 84.000,312.920 83.505,313.232 82.900 C 313.545 82.295,314.115 81.451,314.500 81.025 C 314.885 80.598,315.200 80.013,315.200 79.725 C 315.200 79.436,315.350 79.200,315.532 79.200 C 315.715 79.200,316.119 78.705,316.430 78.100 C 316.740 77.495,317.311 76.709,317.697 76.353 C 318.084 75.997,318.400 75.502,318.400 75.253 C 318.400 75.004,318.568 74.800,318.773 74.800 C 318.978 74.800,319.260 74.441,319.399 74.002 C 319.538 73.564,319.872 72.979,320.141 72.702 C 321.111 71.706,325.200 65.525,325.200 65.056 C 325.200 64.793,325.560 64.317,326.000 64.000 C 326.440 63.683,326.800 63.143,326.800 62.800 C 326.800 62.457,327.160 61.917,327.600 61.600 C 328.040 61.283,328.400 60.743,328.400 60.400 C 328.400 60.057,328.760 59.517,329.200 59.200 C 329.640 58.883,330.000 58.393,330.000 58.112 C 330.000 57.830,330.180 57.600,330.400 57.600 C 330.620 57.600,330.800 57.319,330.800 56.976 C 330.800 56.633,330.942 56.440,331.115 56.548 C 331.288 56.655,331.649 56.249,331.915 55.646 C 332.182 55.043,332.760 54.164,333.200 53.692 C 333.640 53.220,334.000 52.646,334.000 52.417 C 334.000 52.188,334.180 52.000,334.400 52.000 C 334.620 52.000,334.800 51.775,334.800 51.500 C 334.801 51.225,335.251 50.477,335.800 49.838 C 336.350 49.199,336.800 48.532,336.800 48.356 C 336.800 48.180,337.250 47.586,337.800 47.036 C 338.350 46.486,338.800 45.758,338.800 45.418 C 338.800 45.078,338.968 44.800,339.173 44.800 C 339.378 44.800,339.654 44.461,339.785 44.048 C 339.996 43.384,340.421 42.781,341.993 40.917 C 342.217 40.651,342.400 40.246,342.400 40.017 C 342.400 39.788,342.580 39.600,342.800 39.600 C 343.020 39.600,343.200 39.330,343.200 39.000 C 343.200 38.670,343.380 38.400,343.600 38.400 C 343.820 38.400,344.000 38.130,344.000 37.800 C 344.000 37.470,344.180 37.200,344.400 37.200 C 344.620 37.200,344.800 36.919,344.800 36.576 C 344.800 36.233,344.980 36.064,345.200 36.200 C 345.420 36.336,345.600 36.116,345.600 35.712 C 345.600 35.307,345.960 34.717,346.400 34.400 C 346.840 34.083,347.200 33.543,347.200 33.200 C 347.200 32.857,347.560 32.317,348.000 32.000 C 348.440 31.683,348.800 31.103,348.800 30.712 C 348.800 30.320,348.950 30.000,349.132 30.000 C 349.315 30.000,349.720 29.505,350.032 28.900 C 350.345 28.295,350.991 27.401,351.469 26.913 C 351.947 26.425,352.454 25.660,352.596 25.213 C 352.738 24.766,353.022 24.400,353.227 24.400 C 353.432 24.400,353.600 24.152,353.600 23.849 C 353.600 23.546,353.875 23.070,354.211 22.791 C 354.929 22.195,356.920 19.306,357.306 18.300 C 357.454 17.915,357.746 17.600,357.956 17.600 C 358.165 17.600,358.447 17.095,358.583 16.478 C 358.719 15.860,359.183 15.101,359.615 14.789 C 360.047 14.478,360.400 13.991,360.400 13.708 C 360.400 13.425,360.940 12.628,361.600 11.937 C 362.260 11.246,362.800 10.504,362.800 10.288 C 362.800 10.071,363.116 9.603,363.503 9.247 C 363.889 8.891,364.444 8.134,364.736 7.564 C 365.028 6.994,365.791 5.914,366.432 5.164 C 367.074 4.414,367.599 3.615,367.599 3.388 C 367.600 3.162,367.960 2.717,368.400 2.400 C 368.840 2.083,369.200 1.413,369.200 0.912 L 369.200 0.000 312.300 0.032 C 281.005 0.049,255.175 0.154,254.900 0.265 " stroke="none" fill="#bc3c2c" fill-rule="evenodd"></path><path id="path3" d="M201.400 125.422 C 200.960 125.516,198.080 125.775,195.000 125.997 C 191.920 126.219,188.320 126.568,187.000 126.772 C 185.680 126.976,183.340 127.332,181.800 127.564 C 178.502 128.060,177.530 128.277,170.400 130.116 C 167.430 130.882,162.930 132.264,160.400 133.186 C 157.870 134.108,155.307 135.015,154.705 135.202 C 153.641 135.532,146.445 138.912,142.000 141.171 C 140.790 141.785,138.128 143.303,136.084 144.544 C 134.041 145.785,131.909 146.800,131.346 146.800 C 130.275 146.800,128.000 147.946,128.000 148.486 C 128.000 148.659,127.717 148.800,127.371 148.800 C 126.626 148.800,125.531 149.797,125.886 150.152 C 126.022 150.289,125.833 150.400,125.467 150.400 C 125.100 150.400,124.800 150.580,124.800 150.800 C 124.800 151.020,124.574 151.200,124.298 151.200 C 124.022 151.200,123.031 151.920,122.097 152.800 C 121.163 153.680,120.210 154.400,119.980 154.400 C 119.750 154.400,118.681 155.281,117.605 156.357 C 116.528 157.434,115.551 158.218,115.433 158.100 C 115.315 157.982,115.105 158.181,114.967 158.543 C 114.828 158.904,114.504 159.200,114.246 159.200 C 113.701 159.200,112.170 160.858,112.307 161.300 C 112.358 161.465,112.224 161.600,112.009 161.600 C 111.424 161.600,101.935 171.198,102.507 171.211 C 102.778 171.216,102.505 171.528,101.900 171.903 C 101.295 172.278,100.800 172.717,100.800 172.877 C 100.800 173.038,99.998 173.994,99.018 175.002 C 98.038 176.011,97.228 176.918,97.218 177.018 C 97.208 177.118,97.200 177.391,97.200 177.624 C 97.200 177.857,97.046 177.952,96.858 177.836 C 96.506 177.618,95.399 179.544,95.540 180.130 C 95.584 180.311,95.480 180.375,95.310 180.272 C 95.139 180.168,94.768 180.335,94.484 180.642 C 94.201 180.949,94.111 181.204,94.284 181.209 C 94.458 181.214,94.150 181.589,93.600 182.044 C 93.050 182.498,92.825 182.753,93.100 182.611 C 93.375 182.469,93.600 182.543,93.600 182.776 C 93.600 183.009,93.333 183.200,93.008 183.200 C 92.682 183.200,92.302 183.650,92.164 184.200 C 92.026 184.750,91.753 185.200,91.557 185.200 C 91.360 185.200,91.200 185.393,91.200 185.629 C 91.200 185.864,90.928 186.329,90.596 186.661 C 90.264 186.993,90.095 187.430,90.220 187.632 C 90.345 187.835,90.257 188.000,90.024 188.000 C 89.791 188.000,89.600 188.236,89.600 188.525 C 89.600 188.813,89.244 189.431,88.809 189.899 C 88.373 190.366,87.968 190.985,87.909 191.274 C 87.849 191.563,87.485 192.035,87.100 192.323 C 86.715 192.610,86.400 193.206,86.400 193.646 C 86.400 194.087,86.220 194.336,86.000 194.200 C 85.645 193.981,85.527 194.257,85.634 195.055 C 85.653 195.196,85.514 195.421,85.324 195.555 C 85.135 195.690,84.535 196.655,83.991 197.700 C 83.447 198.745,82.866 199.600,82.701 199.600 C 82.535 199.600,82.400 199.960,82.400 200.400 C 82.400 200.840,82.220 201.200,82.000 201.200 C 81.780 201.200,81.600 201.549,81.600 201.976 C 81.600 202.403,81.420 202.864,81.200 203.000 C 80.980 203.136,80.800 203.597,80.800 204.024 C 80.800 204.451,80.620 204.800,80.400 204.800 C 80.180 204.800,80.029 204.935,80.064 205.100 C 80.146 205.490,79.688 206.720,78.946 208.100 C 78.621 208.705,78.459 209.200,78.587 209.200 C 78.714 209.200,78.553 209.605,78.229 210.100 C 77.630 211.013,77.600 211.116,77.600 212.224 C 77.600 212.567,77.429 212.742,77.221 212.613 C 77.012 212.484,76.910 212.732,76.993 213.164 C 77.076 213.595,76.904 214.148,76.610 214.392 C 76.316 214.635,76.127 215.142,76.190 215.517 C 76.253 215.893,75.931 216.817,75.476 217.571 C 74.924 218.484,74.839 218.832,75.224 218.612 C 75.691 218.345,75.705 218.385,75.300 218.821 C 75.025 219.118,74.800 219.684,74.800 220.080 C 74.800 220.476,74.638 220.800,74.440 220.800 C 74.242 220.800,73.984 221.565,73.866 222.500 C 73.510 225.325,73.128 226.800,72.755 226.800 C 72.560 226.800,72.400 227.419,72.400 228.176 C 72.400 228.933,72.220 229.664,72.000 229.800 C 71.780 229.936,71.600 230.667,71.600 231.424 C 71.600 232.181,71.441 232.800,71.247 232.800 C 71.052 232.800,70.783 233.925,70.649 235.300 C 70.160 240.307,69.781 243.010,69.506 243.442 C 69.351 243.686,69.191 244.901,69.150 246.142 C 69.110 247.384,68.924 248.400,68.738 248.400 C 68.244 248.400,68.305 276.294,68.800 276.600 C 69.020 276.736,69.200 278.007,69.200 279.424 C 69.200 280.841,69.350 282.000,69.534 282.000 C 69.718 282.000,69.909 283.125,69.957 284.500 C 70.006 285.875,70.216 287.171,70.423 287.380 C 70.630 287.589,70.800 288.613,70.800 289.656 C 70.800 290.699,70.980 291.664,71.200 291.800 C 71.420 291.936,71.600 292.656,71.600 293.400 C 71.600 294.144,71.780 294.864,72.000 295.000 C 72.220 295.136,72.400 295.867,72.400 296.624 C 72.400 297.381,72.580 298.000,72.800 298.000 C 73.020 298.000,73.200 298.630,73.200 299.400 C 73.200 300.170,73.380 300.800,73.600 300.800 C 73.820 300.800,74.000 301.520,74.000 302.400 C 74.000 303.280,74.180 304.000,74.400 304.000 C 74.620 304.000,74.800 304.551,74.800 305.224 C 74.800 305.897,74.963 306.346,75.163 306.223 C 75.362 306.100,75.440 306.327,75.335 306.727 C 75.230 307.128,75.408 307.675,75.731 307.943 C 76.053 308.210,76.227 308.776,76.116 309.200 C 76.005 309.624,76.205 310.262,76.561 310.618 C 76.916 310.974,77.113 311.418,76.997 311.605 C 76.882 311.792,76.970 312.058,77.193 312.196 C 77.417 312.334,77.600 312.962,77.600 313.590 C 77.600 314.219,77.790 314.797,78.022 314.874 C 78.254 314.951,78.493 315.281,78.553 315.607 C 78.655 316.157,79.630 318.467,80.449 320.100 C 80.642 320.485,80.954 321.115,81.143 321.500 C 81.331 321.885,81.777 322.760,82.132 323.444 C 82.488 324.128,82.664 324.803,82.523 324.944 C 82.382 325.085,82.477 325.200,82.733 325.200 C 82.990 325.200,83.200 325.560,83.200 326.000 C 83.200 326.440,83.359 326.800,83.553 326.800 C 83.748 326.800,84.007 327.115,84.129 327.500 C 84.402 328.361,85.618 330.379,86.320 331.136 C 86.605 331.444,86.942 332.212,87.068 332.842 C 87.194 333.472,87.422 333.910,87.575 333.815 C 87.728 333.721,88.166 334.174,88.549 334.822 C 88.932 335.470,89.118 336.000,88.961 336.000 C 88.805 336.000,89.077 336.346,89.565 336.770 C 90.053 337.193,90.441 337.643,90.426 337.770 C 90.338 338.545,90.436 338.897,90.675 338.659 C 90.826 338.508,91.281 339.108,91.686 339.992 C 92.092 340.876,92.700 341.600,93.039 341.600 C 93.484 341.600,93.579 341.835,93.384 342.450 C 93.203 343.022,93.259 343.211,93.557 343.026 C 93.809 342.871,94.000 343.022,94.000 343.376 C 94.000 343.719,94.180 344.000,94.400 344.000 C 94.620 344.000,94.800 344.281,94.800 344.624 C 94.800 344.967,94.980 345.136,95.200 345.000 C 95.420 344.864,95.600 344.943,95.600 345.176 C 95.600 345.992,95.715 346.206,96.579 347.000 C 97.058 347.440,97.779 348.327,98.180 348.970 C 98.887 350.102,99.218 350.505,101.800 353.374 C 102.460 354.107,103.568 355.345,104.262 356.125 C 104.956 356.905,105.631 357.436,105.762 357.305 C 105.893 357.174,106.000 357.377,106.000 357.757 C 106.000 358.137,106.135 358.372,106.300 358.280 C 106.465 358.188,107.190 358.717,107.911 359.456 C 108.633 360.195,109.115 360.800,108.983 360.800 C 108.851 360.800,109.013 361.070,109.343 361.400 C 109.673 361.730,110.059 362.000,110.200 362.000 C 110.341 362.000,110.727 362.270,111.057 362.600 C 111.387 362.930,111.541 363.200,111.400 363.200 C 111.259 363.200,111.413 363.470,111.743 363.800 C 112.073 364.130,112.491 364.401,112.671 364.403 C 112.852 364.405,113.714 365.215,114.587 366.203 C 115.460 367.191,116.392 368.000,116.658 368.000 C 116.924 368.000,117.470 368.405,117.871 368.900 C 118.272 369.395,119.274 370.250,120.097 370.800 C 120.921 371.350,121.596 371.946,121.597 372.124 C 121.599 372.302,121.780 372.336,122.000 372.200 C 122.220 372.064,122.400 372.244,122.400 372.600 C 122.400 372.956,122.568 373.143,122.774 373.016 C 122.980 372.889,123.565 373.201,124.074 373.711 C 124.583 374.220,125.143 374.661,125.318 374.690 C 125.811 374.774,128.240 376.386,127.884 376.393 C 127.711 376.397,127.801 376.651,128.084 376.958 C 128.368 377.265,128.714 377.447,128.853 377.363 C 128.992 377.280,129.577 377.582,130.153 378.034 C 130.729 378.487,131.200 378.727,131.200 378.568 C 131.200 378.408,131.536 378.665,131.947 379.139 C 132.358 379.612,132.988 380.000,133.347 380.000 C 133.706 380.000,134.000 380.180,134.000 380.400 C 134.000 380.620,134.281 380.800,134.624 380.800 C 134.967 380.800,135.136 380.980,135.000 381.200 C 134.860 381.427,135.196 381.600,135.776 381.600 C 136.339 381.600,136.800 381.780,136.800 382.000 C 136.800 382.220,137.070 382.400,137.400 382.400 C 137.730 382.400,138.000 382.580,138.000 382.800 C 138.000 383.020,138.236 383.200,138.525 383.200 C 138.813 383.200,139.443 383.567,139.925 384.016 C 140.406 384.464,140.800 384.729,140.800 384.604 C 140.800 384.478,141.790 384.927,143.000 385.600 C 144.210 386.273,145.200 386.716,145.200 386.583 C 145.200 386.451,145.485 386.627,145.832 386.975 C 146.180 387.323,146.630 387.505,146.832 387.380 C 147.035 387.255,147.200 387.373,147.200 387.643 C 147.200 387.913,147.318 388.015,147.463 387.870 C 147.608 387.725,147.989 387.825,148.310 388.091 C 148.898 388.579,150.709 389.317,153.100 390.043 C 153.815 390.260,154.400 390.621,154.400 390.846 C 154.400 391.070,154.745 391.144,155.166 391.011 C 155.588 390.877,156.048 390.955,156.190 391.184 C 156.331 391.413,156.887 391.600,157.424 391.600 C 157.961 391.600,158.400 391.780,158.400 392.000 C 158.400 392.220,158.925 392.400,159.567 392.400 C 160.208 392.400,160.793 392.575,160.867 392.788 C 160.940 393.002,161.400 393.237,161.890 393.311 C 162.379 393.385,162.904 393.571,163.056 393.723 C 163.209 393.875,163.663 394.000,164.067 394.000 C 164.470 394.000,164.800 394.180,164.800 394.400 C 164.800 394.620,165.419 394.800,166.176 394.800 C 166.933 394.800,167.664 394.980,167.800 395.200 C 167.936 395.420,168.667 395.600,169.424 395.600 C 170.181 395.600,170.800 395.780,170.800 396.000 C 170.800 396.220,171.419 396.400,172.176 396.400 C 172.933 396.400,173.664 396.580,173.800 396.800 C 173.936 397.020,174.656 397.200,175.400 397.200 C 176.144 397.200,176.864 397.380,177.000 397.600 C 177.136 397.820,178.101 398.000,179.144 398.000 C 180.187 398.000,181.211 398.170,181.420 398.377 C 181.629 398.584,182.925 398.794,184.300 398.843 C 185.675 398.891,186.800 399.052,186.800 399.199 C 186.800 399.890,217.286 400.227,222.400 399.592 C 224.490 399.333,227.235 399.033,228.500 398.925 C 229.765 398.817,230.800 398.565,230.800 398.364 C 230.800 398.164,231.869 398.000,233.176 398.000 C 234.483 398.000,235.664 397.820,235.800 397.600 C 235.936 397.380,236.476 397.200,237.000 397.200 C 237.524 397.200,238.064 397.020,238.200 396.800 C 238.336 396.580,239.157 396.400,240.024 396.400 C 240.891 396.400,241.600 396.220,241.600 396.000 C 241.600 395.780,242.129 395.600,242.776 395.600 C 243.423 395.600,244.064 395.420,244.200 395.200 C 244.336 394.980,244.889 394.800,245.430 394.800 C 246.550 394.800,249.600 393.915,249.600 393.590 C 249.600 393.471,250.095 393.334,250.700 393.284 C 251.305 393.234,251.860 393.015,251.933 392.797 C 252.007 392.578,252.592 392.400,253.233 392.400 C 253.875 392.400,254.400 392.243,254.400 392.050 C 254.400 391.725,256.076 391.187,257.693 390.993 C 258.074 390.947,258.630 390.707,258.930 390.458 C 259.229 390.210,259.607 390.140,259.770 390.303 C 259.932 390.466,260.321 390.250,260.633 389.823 C 260.945 389.396,261.200 389.185,261.200 389.354 C 261.200 389.522,262.222 389.107,263.471 388.430 C 264.720 387.754,266.081 387.200,266.495 387.200 C 266.909 387.200,267.136 387.020,267.000 386.800 C 266.864 386.580,267.036 386.400,267.382 386.400 C 268.050 386.400,268.674 386.136,270.600 385.036 C 271.260 384.659,272.115 384.251,272.500 384.129 C 272.885 384.007,273.200 383.748,273.200 383.553 C 273.200 383.359,273.560 383.200,274.000 383.200 C 274.440 383.200,274.800 383.020,274.800 382.800 C 274.800 382.580,275.070 382.400,275.400 382.400 C 275.730 382.400,276.000 382.220,276.000 382.000 C 276.000 381.780,276.281 381.600,276.624 381.600 C 276.967 381.600,277.136 381.420,277.000 381.200 C 276.864 380.980,277.123 380.800,277.576 380.800 C 278.029 380.800,278.400 380.620,278.400 380.400 C 278.400 380.180,278.636 380.000,278.925 380.000 C 279.213 380.000,279.824 379.651,280.282 379.224 C 280.740 378.797,281.198 378.532,281.300 378.634 C 281.402 378.736,281.714 378.545,281.992 378.210 C 282.270 377.874,282.744 377.600,283.045 377.600 C 283.347 377.600,284.090 377.105,284.697 376.500 C 285.303 375.895,286.059 375.344,286.375 375.275 C 286.691 375.206,287.387 374.666,287.922 374.075 C 288.457 373.484,288.769 373.270,288.617 373.600 C 288.443 373.978,288.553 373.941,288.914 373.500 C 289.230 373.115,289.680 372.800,289.915 372.800 C 290.150 372.800,290.696 372.350,291.129 371.800 C 291.561 371.250,292.120 370.800,292.371 370.800 C 292.622 370.800,293.457 370.170,294.227 369.400 C 294.997 368.630,295.801 368.000,296.013 368.000 C 296.226 368.000,296.400 367.807,296.400 367.571 C 296.400 367.048,297.406 366.000,297.909 366.000 C 298.409 366.000,307.419 357.075,307.297 356.700 C 307.244 356.535,307.500 356.400,307.867 356.400 C 308.233 356.400,308.434 356.301,308.313 356.180 C 308.082 355.949,308.636 355.288,312.224 351.509 C 313.421 350.248,314.400 349.077,314.400 348.904 C 314.400 348.732,315.024 347.873,315.787 346.996 C 316.550 346.118,317.382 344.905,317.636 344.300 C 317.889 343.695,318.300 343.199,318.549 343.197 C 318.982 343.195,319.376 342.640,321.595 338.912 C 322.148 337.983,322.952 336.813,323.382 336.312 C 323.812 335.810,324.132 335.400,324.093 335.400 C 324.054 335.400,324.129 334.995,324.258 334.500 C 324.387 334.005,324.652 333.600,324.847 333.600 C 325.041 333.600,325.200 333.330,325.200 333.000 C 325.200 332.670,325.380 332.400,325.600 332.400 C 325.820 332.400,326.000 332.040,326.000 331.600 C 326.000 331.160,326.180 330.800,326.400 330.800 C 326.620 330.800,326.800 330.519,326.800 330.176 C 326.800 329.833,326.984 329.667,327.210 329.806 C 327.435 329.945,327.575 329.911,327.521 329.730 C 327.374 329.243,328.542 326.800,328.921 326.800 C 329.101 326.800,329.145 326.635,329.020 326.432 C 328.895 326.230,329.064 325.793,329.396 325.461 C 329.728 325.129,330.000 324.666,330.000 324.432 C 330.000 324.198,330.900 322.276,332.000 320.161 C 333.100 318.046,334.000 315.985,334.000 315.581 C 334.000 315.177,334.180 314.736,334.400 314.600 C 334.620 314.464,334.800 313.823,334.800 313.176 C 334.800 312.529,334.980 312.000,335.200 312.000 C 335.420 312.000,335.600 311.640,335.600 311.200 C 335.600 310.760,335.780 310.400,336.000 310.400 C 336.220 310.400,336.400 309.984,336.400 309.475 C 336.400 308.966,336.741 307.841,337.158 306.975 C 337.576 306.109,338.157 304.365,338.449 303.100 C 338.742 301.835,339.091 300.800,339.224 300.800 C 339.357 300.800,339.431 300.395,339.388 299.900 C 339.345 299.405,339.503 298.640,339.739 298.200 C 339.975 297.760,340.127 297.195,340.077 296.945 C 340.027 296.695,340.200 295.975,340.462 295.345 C 341.022 294.001,341.144 293.378,341.447 290.300 C 341.572 289.035,341.799 288.000,341.951 288.000 C 342.104 288.000,342.242 287.685,342.259 287.300 C 342.431 283.365,342.588 282.000,342.868 282.000 C 343.051 282.000,343.200 281.046,343.200 279.880 C 343.200 278.714,343.425 277.518,343.700 277.221 C 344.106 276.784,344.088 276.742,343.600 277.000 C 343.112 277.258,343.094 277.216,343.500 276.779 C 344.137 276.093,344.233 248.591,343.600 248.200 C 343.380 248.064,343.200 246.714,343.200 245.200 C 343.200 243.686,343.020 242.336,342.800 242.200 C 342.580 242.064,342.400 240.873,342.400 239.553 C 342.400 238.055,342.250 237.246,342.000 237.400 C 341.752 237.553,341.600 236.804,341.600 235.424 C 341.600 234.201,341.445 233.200,341.255 233.200 C 341.066 233.200,340.999 232.737,341.108 232.171 C 341.216 231.605,341.118 230.750,340.889 230.271 C 340.566 229.593,339.718 226.752,339.375 225.200 C 339.351 225.090,339.220 224.730,339.084 224.400 C 338.949 224.070,338.757 223.260,338.659 222.600 C 338.561 221.940,338.255 220.860,337.979 220.200 C 337.703 219.540,337.410 218.644,337.327 218.209 C 337.245 217.773,337.002 217.242,336.789 217.029 C 336.575 216.815,336.400 216.262,336.400 215.800 C 336.400 215.338,336.241 214.789,336.047 214.580 C 335.853 214.371,335.108 212.580,334.390 210.600 C 333.673 208.620,332.977 206.910,332.843 206.800 C 332.709 206.690,332.540 206.240,332.467 205.800 C 332.393 205.360,332.168 204.829,331.967 204.620 C 331.765 204.411,331.600 203.905,331.600 203.496 C 331.600 203.087,331.420 202.864,331.200 203.000 C 330.980 203.136,330.800 202.967,330.800 202.624 C 330.800 202.281,330.620 202.000,330.400 202.000 C 330.180 202.000,330.000 201.550,330.000 201.000 C 330.000 200.450,329.854 200.000,329.675 200.000 C 329.310 200.000,328.144 197.219,328.300 196.720 C 328.355 196.544,328.220 196.400,328.000 196.400 C 327.780 196.400,327.600 196.130,327.600 195.800 C 327.600 195.470,327.420 195.200,327.200 195.200 C 326.980 195.200,326.800 194.919,326.800 194.576 C 326.800 194.233,326.620 194.064,326.400 194.200 C 326.180 194.336,326.000 194.202,326.000 193.903 C 326.000 193.125,325.060 191.207,324.676 191.203 C 324.498 191.201,324.464 191.020,324.600 190.800 C 324.736 190.580,324.657 190.400,324.424 190.400 C 324.191 190.400,324.000 190.158,324.000 189.862 C 324.000 189.566,323.640 188.998,323.200 188.600 C 322.760 188.202,322.400 187.544,322.400 187.138 C 322.400 186.732,322.220 186.400,322.000 186.400 C 321.780 186.400,321.600 186.119,321.600 185.776 C 321.600 185.433,321.420 185.264,321.200 185.400 C 320.980 185.536,320.800 185.394,320.800 185.086 C 320.800 184.777,320.440 184.198,320.000 183.800 C 319.560 183.402,319.200 182.916,319.200 182.721 C 319.200 182.526,318.840 181.980,318.400 181.508 C 317.960 181.036,317.600 180.383,317.600 180.058 C 317.600 179.733,317.489 179.578,317.352 179.714 C 316.992 180.075,316.000 178.968,316.000 178.205 C 316.000 177.846,315.847 177.647,315.660 177.763 C 315.473 177.878,315.068 177.485,314.760 176.889 C 314.452 176.293,313.660 175.229,313.000 174.525 C 311.136 172.535,310.829 172.104,311.091 171.843 C 311.224 171.709,311.033 171.600,310.667 171.600 C 310.300 171.600,310.000 171.443,310.000 171.252 C 310.000 170.761,307.513 167.980,304.000 164.544 C 302.350 162.929,300.460 161.067,299.800 160.404 C 299.140 159.742,298.391 159.200,298.135 159.200 C 297.880 159.200,297.217 158.660,296.661 158.000 C 296.106 157.340,295.532 156.800,295.386 156.800 C 295.240 156.800,294.644 156.305,294.060 155.700 C 293.477 155.095,292.511 154.348,291.914 154.040 C 291.316 153.732,290.922 153.327,291.037 153.140 C 291.153 152.953,290.967 152.800,290.624 152.800 C 290.281 152.800,290.000 152.620,290.000 152.400 C 290.000 152.180,289.719 152.000,289.376 152.000 C 289.033 152.000,288.864 151.820,289.000 151.600 C 289.136 151.380,289.001 151.200,288.699 151.200 C 288.398 151.200,287.764 150.840,287.292 150.400 C 286.820 149.960,286.277 149.600,286.086 149.600 C 285.896 149.600,285.322 149.156,284.812 148.612 C 284.301 148.069,283.730 147.720,283.542 147.836 C 283.354 147.952,283.200 147.857,283.200 147.624 C 283.200 147.391,282.949 147.200,282.642 147.200 C 282.336 147.200,281.541 146.692,280.877 146.072 C 280.212 145.451,279.383 144.985,279.034 145.036 C 278.685 145.087,278.400 144.977,278.400 144.792 C 278.400 144.606,278.060 144.346,277.645 144.214 C 277.229 144.082,276.410 143.530,275.824 142.987 C 275.238 142.444,274.498 142.000,274.179 142.000 C 273.861 142.000,273.600 141.851,273.600 141.669 C 273.600 141.487,273.060 141.418,272.399 141.515 C 271.523 141.643,270.032 141.124,266.899 139.598 C 262.534 137.472,256.236 134.854,252.859 133.761 C 251.837 133.430,250.550 132.965,250.000 132.726 C 247.356 131.580,244.721 130.800,243.495 130.800 C 242.919 130.800,242.348 130.640,242.227 130.444 C 242.106 130.249,241.421 129.992,240.704 129.873 C 239.987 129.755,238.590 129.455,237.600 129.207 C 230.296 127.378,225.354 126.548,218.600 126.015 C 212.620 125.543,202.469 125.193,201.400 125.422 M216.200 163.011 C 223.308 163.864,225.853 164.290,229.400 165.222 C 231.160 165.685,233.230 166.212,234.000 166.394 C 237.444 167.209,245.430 170.302,250.000 172.591 C 270.005 182.610,286.190 198.795,296.209 218.800 C 298.498 223.370,301.591 231.356,302.406 234.800 C 302.588 235.570,303.115 237.640,303.578 239.400 C 306.966 252.295,307.159 270.448,304.048 283.800 C 303.226 287.330,301.647 293.069,301.188 294.200 C 300.199 296.635,300.041 297.044,299.261 299.200 C 291.870 319.620,271.204 342.424,251.800 351.571 C 244.652 354.941,243.159 355.600,242.675 355.600 C 242.377 355.600,242.014 355.719,241.868 355.865 C 240.898 356.836,230.671 359.742,223.600 361.057 C 208.161 363.928,185.514 362.029,173.000 356.814 C 172.560 356.631,171.570 356.264,170.800 356.000 C 162.935 353.299,151.791 346.877,143.036 340.000 C 140.032 337.640,131.160 328.768,128.800 325.764 C 123.524 319.048,119.861 313.251,116.437 306.200 C 113.798 300.766,113.584 300.282,112.800 298.000 C 112.536 297.230,112.169 296.240,111.986 295.800 C 104.258 277.255,104.610 247.431,112.799 227.000 C 112.975 226.560,113.351 225.570,113.634 224.800 C 122.022 201.993,146.433 177.889,169.600 169.536 C 171.754 168.760,172.158 168.604,174.600 167.612 C 175.260 167.344,177.510 166.676,179.600 166.129 C 181.690 165.581,184.030 164.967,184.800 164.764 C 192.412 162.760,207.213 161.934,216.200 163.011 M199.400 188.033 C 185.640 189.663,170.579 195.303,162.771 201.751 C 162.206 202.218,161.133 203.050,160.388 203.600 C 146.416 213.911,135.916 231.374,132.608 249.800 C 126.001 286.611,150.237 325.301,185.600 334.395 C 186.370 334.593,187.720 334.946,188.600 335.181 C 201.944 338.738,218.804 337.742,232.400 332.594 C 245.109 327.782,257.823 318.409,265.200 308.412 C 265.750 307.667,266.582 306.594,267.049 306.029 C 274.807 296.635,281.265 276.702,281.183 262.410 C 281.024 235.061,265.442 209.368,241.191 196.470 C 228.528 189.736,212.443 186.488,199.400 188.033 " stroke="none" fill="#ec9c5c" fill-rule="evenodd"></path><path id="path4" d="M204.900 125.091 C 205.725 125.178,207.075 125.178,207.900 125.091 C 208.725 125.005,208.050 124.934,206.400 124.934 C 204.750 124.934,204.075 125.005,204.900 125.091 M194.000 125.600 L 190.600 125.851 193.600 125.876 C 195.250 125.889,197.860 125.771,199.400 125.613 L 202.200 125.326 199.800 125.337 C 198.480 125.344,195.870 125.462,194.000 125.600 M213.000 125.595 C 216.003 125.923,221.842 126.097,221.567 125.851 C 221.475 125.768,218.880 125.608,215.800 125.495 C 212.145 125.360,211.172 125.395,213.000 125.595 M187.200 126.400 L 185.400 126.680 187.000 126.700 C 187.880 126.711,189.050 126.576,189.600 126.400 C 190.863 125.995,189.802 125.995,187.200 126.400 M224.705 126.683 C 225.202 126.779,225.922 126.775,226.305 126.675 C 226.687 126.575,226.280 126.496,225.400 126.501 C 224.520 126.505,224.207 126.587,224.705 126.683 M228.400 127.200 C 228.950 127.376,229.760 127.520,230.200 127.520 C 230.833 127.520,230.792 127.454,230.000 127.200 C 229.450 127.024,228.640 126.880,228.200 126.880 C 227.567 126.880,227.608 126.946,228.400 127.200 M180.700 127.482 C 181.195 127.578,182.005 127.578,182.500 127.482 C 182.995 127.387,182.590 127.309,181.600 127.309 C 180.610 127.309,180.205 127.387,180.700 127.482 M177.400 128.000 C 176.311 128.277,176.293 128.307,177.200 128.325 C 177.750 128.335,178.560 128.189,179.000 128.000 C 179.986 127.576,179.066 127.576,177.400 128.000 M232.400 127.982 C 232.730 128.205,233.345 128.391,233.767 128.394 C 234.790 128.402,234.471 128.173,233.000 127.844 C 232.124 127.648,231.962 127.685,232.400 127.982 M173.824 128.850 C 172.957 129.053,172.147 129.321,172.024 129.445 C 171.701 129.771,174.886 129.162,175.600 128.761 C 176.339 128.346,175.872 128.370,173.824 128.850 M168.253 130.230 C 167.182 130.522,166.205 130.862,166.082 130.985 C 165.792 131.275,168.115 130.808,170.182 130.160 C 172.314 129.492,170.751 129.549,168.253 130.230 M137.133 143.519 C 133.898 145.504,132.272 146.794,135.000 145.211 C 137.777 143.599,140.400 141.923,140.400 141.758 C 140.400 141.515,140.394 141.518,137.133 143.519 M196.000 163.024 C 190.094 163.766,186.429 164.335,184.800 164.764 C 184.030 164.967,181.690 165.581,179.600 166.129 C 177.510 166.676,175.260 167.344,174.600 167.612 C 172.158 168.604,171.754 168.760,169.600 169.536 C 146.433 177.889,122.022 201.993,113.634 224.800 C 113.351 225.570,112.975 226.560,112.799 227.000 C 109.413 235.447,106.949 246.837,106.526 256.000 C 106.219 262.622,106.763 261.941,107.214 255.137 C 107.409 252.201,107.745 248.720,107.961 247.400 C 108.177 246.080,108.478 244.051,108.629 242.892 C 108.780 241.732,109.060 240.686,109.252 240.568 C 109.443 240.450,109.600 239.744,109.600 239.000 C 109.600 238.256,109.780 237.536,110.000 237.400 C 110.220 237.264,110.400 236.771,110.400 236.305 C 110.400 235.519,110.886 233.718,111.615 231.800 C 111.782 231.360,112.136 230.370,112.400 229.600 C 112.867 228.239,113.073 227.683,113.881 225.600 C 114.934 222.883,120.651 211.648,121.708 210.217 C 121.878 209.988,122.756 208.630,123.659 207.200 C 124.563 205.770,125.423 204.510,125.570 204.400 C 125.718 204.290,126.271 203.570,126.800 202.800 C 127.329 202.030,127.871 201.310,128.004 201.200 C 128.137 201.090,128.506 200.622,128.823 200.160 C 129.669 198.928,135.549 192.502,137.356 190.835 C 139.576 188.787,139.540 188.819,142.400 186.369 C 143.830 185.144,145.630 183.714,146.400 183.190 C 147.170 182.667,147.890 182.126,148.000 181.989 C 148.426 181.458,153.179 178.400,153.578 178.400 C 153.810 178.400,154.000 178.220,154.000 178.000 C 154.000 177.780,154.236 177.600,154.525 177.600 C 154.813 177.600,155.398 177.279,155.825 176.887 C 157.053 175.757,167.805 170.617,172.200 169.057 C 181.070 165.910,187.015 164.595,197.200 163.528 C 206.826 162.519,220.237 163.412,228.600 165.618 C 230.360 166.082,232.520 166.618,233.400 166.810 C 235.046 167.168,239.005 168.509,242.828 170.004 C 247.259 171.737,255.186 175.586,256.000 176.400 C 256.110 176.510,256.605 176.825,257.100 177.100 C 257.595 177.375,258.405 177.825,258.900 178.100 C 259.395 178.375,259.890 178.708,260.000 178.840 C 260.110 178.972,260.619 179.301,261.132 179.571 C 261.644 179.841,262.364 180.305,262.732 180.602 C 263.099 180.899,264.660 182.086,266.200 183.240 C 273.502 188.710,280.090 195.298,285.560 202.600 C 286.714 204.140,287.901 205.701,288.198 206.068 C 288.495 206.436,288.959 207.156,289.229 207.668 C 289.499 208.181,289.828 208.690,289.960 208.800 C 290.092 208.910,290.425 209.405,290.700 209.900 C 290.975 210.395,291.425 211.205,291.700 211.700 C 291.975 212.195,292.290 212.690,292.400 212.800 C 293.214 213.614,297.063 221.541,298.796 225.972 C 300.289 229.791,301.632 233.753,301.991 235.400 C 302.183 236.280,302.722 238.498,303.189 240.328 C 304.666 246.118,305.673 254.817,305.722 262.200 C 305.798 273.609,303.778 285.227,299.743 296.600 C 298.183 300.995,293.043 311.747,291.913 312.975 C 291.521 313.402,291.200 313.987,291.200 314.275 C 291.200 314.564,291.020 314.800,290.800 314.800 C 290.580 314.800,290.400 314.990,290.400 315.222 C 290.400 315.621,287.342 320.374,286.811 320.800 C 286.674 320.910,286.133 321.630,285.610 322.400 C 284.470 324.076,279.069 330.419,276.962 332.556 C 275.737 333.798,269.370 339.476,268.640 339.977 C 268.178 340.294,267.710 340.663,267.600 340.796 C 267.490 340.929,266.770 341.471,266.000 342.000 C 265.230 342.529,264.510 343.082,264.400 343.230 C 264.290 343.377,263.030 344.237,261.600 345.141 C 260.170 346.044,258.812 346.922,258.583 347.092 C 257.147 348.153,245.707 353.972,243.300 354.866 C 242.805 355.050,241.995 355.362,241.500 355.560 C 241.005 355.757,239.970 356.136,239.200 356.400 C 238.430 356.664,237.440 357.018,237.000 357.185 C 235.082 357.914,233.281 358.400,232.495 358.400 C 232.029 358.400,231.536 358.580,231.400 358.800 C 231.264 359.020,230.544 359.200,229.800 359.200 C 229.056 359.200,228.350 359.357,228.232 359.548 C 228.114 359.740,227.068 360.020,225.908 360.171 C 224.749 360.322,222.720 360.623,221.400 360.839 C 220.080 361.055,216.599 361.391,213.663 361.586 C 206.859 362.037,206.178 362.581,212.800 362.274 C 221.642 361.866,239.891 357.842,241.868 355.865 C 242.014 355.719,242.377 355.600,242.675 355.600 C 243.159 355.600,244.652 354.941,251.800 351.571 C 271.204 342.424,291.870 319.620,299.261 299.200 C 300.041 297.044,300.199 296.635,301.188 294.200 C 301.647 293.069,303.226 287.330,304.048 283.800 C 307.159 270.448,306.966 252.295,303.578 239.400 C 303.115 237.640,302.588 235.570,302.406 234.800 C 301.591 231.356,298.498 223.370,296.209 218.800 C 286.190 198.795,270.005 182.610,250.000 172.591 C 245.430 170.302,237.444 167.209,234.000 166.394 C 233.230 166.212,231.160 165.685,229.400 165.222 C 219.972 162.745,205.702 161.805,196.000 163.024 M197.000 187.654 C 192.925 188.297,190.909 188.731,185.900 190.046 C 183.093 190.783,180.743 191.614,179.105 192.447 C 178.723 192.641,178.167 192.800,177.870 192.800 C 177.184 192.800,170.629 196.144,167.167 198.260 C 159.916 202.691,150.927 210.731,146.884 216.400 C 145.864 217.830,144.708 219.349,144.315 219.775 C 143.922 220.201,143.376 221.056,143.103 221.675 C 142.829 222.294,142.469 222.800,142.302 222.800 C 142.136 222.800,142.000 222.997,142.000 223.238 C 142.000 223.479,141.602 224.235,141.117 224.917 C 140.025 226.450,136.400 233.841,136.400 234.534 C 136.400 234.812,136.245 235.211,136.055 235.420 C 135.547 235.980,133.354 243.336,132.664 246.800 C 131.410 253.085,131.202 254.747,131.256 258.024 L 131.312 261.400 131.635 257.400 C 133.370 235.940,144.314 215.462,160.388 203.600 C 161.133 203.050,162.206 202.218,162.771 201.751 C 172.165 193.993,192.098 187.535,206.390 187.617 C 252.486 187.885,287.586 229.581,279.949 275.000 C 278.152 285.687,272.378 299.576,267.049 306.029 C 266.582 306.594,265.750 307.667,265.200 308.412 C 253.338 324.486,232.860 335.430,211.400 337.165 L 207.400 337.488 210.776 337.544 C 214.053 337.598,215.715 337.390,222.000 336.136 C 225.464 335.446,232.820 333.253,233.380 332.745 C 233.589 332.555,233.988 332.400,234.266 332.400 C 234.959 332.400,242.350 328.775,243.883 327.683 C 244.565 327.198,245.321 326.800,245.562 326.800 C 245.803 326.800,246.000 326.664,246.000 326.498 C 246.000 326.331,246.506 325.971,247.125 325.697 C 247.744 325.424,248.599 324.885,249.025 324.500 C 249.452 324.115,251.150 322.789,252.800 321.554 C 258.898 316.988,266.095 308.906,270.540 301.633 C 272.656 298.171,276.000 291.616,276.000 290.930 C 276.000 290.633,276.159 290.077,276.353 289.695 C 277.435 287.568,278.093 285.532,279.583 279.700 C 281.218 273.303,281.724 268.168,281.465 260.600 C 281.244 254.159,280.969 251.636,279.982 247.000 C 279.747 245.900,279.456 244.413,279.334 243.696 C 279.212 242.979,278.951 242.294,278.756 242.173 C 278.560 242.052,278.400 241.511,278.400 240.971 C 278.400 240.025,278.272 239.659,277.262 237.705 C 277.008 237.213,276.800 236.536,276.800 236.200 C 276.800 235.864,276.638 235.277,276.441 234.895 C 276.243 234.513,275.306 232.580,274.359 230.600 C 266.633 214.460,254.340 202.167,238.200 194.441 C 236.220 193.494,234.287 192.557,233.905 192.359 C 233.523 192.162,232.936 192.000,232.600 192.000 C 232.264 192.000,231.632 191.820,231.195 191.600 C 230.758 191.380,230.042 191.020,229.605 190.800 C 229.168 190.580,228.369 190.400,227.829 190.400 C 227.289 190.400,226.748 190.240,226.627 190.044 C 226.506 189.849,225.821 189.588,225.104 189.466 C 224.387 189.344,222.900 189.053,221.800 188.818 C 220.700 188.584,218.720 188.204,217.400 187.974 C 214.149 187.407,199.977 187.185,197.000 187.654 M131.257 267.176 C 131.097 276.647,136.164 292.796,142.082 301.678 C 142.917 302.931,143.600 304.054,143.600 304.173 C 143.600 304.293,143.860 304.708,144.178 305.095 C 144.495 305.483,145.613 306.970,146.661 308.400 C 149.116 311.749,157.051 319.684,160.400 322.139 C 161.830 323.187,163.317 324.305,163.705 324.622 C 164.092 324.940,164.507 325.200,164.627 325.200 C 164.746 325.200,165.869 325.883,167.122 326.718 C 172.692 330.429,180.907 333.831,188.600 335.610 C 195.912 337.302,197.955 337.605,201.624 337.543 L 205.000 337.486 201.200 337.179 C 196.730 336.818,192.269 336.124,189.200 335.312 C 187.990 334.992,186.370 334.574,185.600 334.382 C 157.065 327.292,134.122 298.909,131.618 267.600 L 131.314 263.800 131.257 267.176 M106.403 267.633 C 106.408 274.701,109.325 289.414,111.986 295.800 C 112.169 296.240,112.536 297.230,112.800 298.000 C 115.501 305.865,121.923 317.009,128.800 325.764 C 131.160 328.768,140.032 337.640,143.036 340.000 C 149.752 345.276,155.549 348.939,162.600 352.363 C 168.034 355.002,168.518 355.216,170.800 356.000 C 171.570 356.264,172.560 356.631,173.000 356.814 C 179.386 359.475,194.099 362.392,201.167 362.397 C 206.101 362.401,204.846 361.974,198.727 361.567 C 195.797 361.372,192.320 361.040,191.000 360.829 C 189.680 360.618,187.651 360.322,186.492 360.171 C 185.332 360.020,184.286 359.740,184.168 359.548 C 184.050 359.357,183.434 359.200,182.800 359.200 C 182.166 359.200,181.536 359.020,181.400 358.800 C 181.264 358.580,180.621 358.400,179.971 358.400 C 179.321 358.400,178.477 358.242,178.095 358.049 C 177.713 357.856,176.680 357.484,175.800 357.223 C 174.920 356.961,173.840 356.597,173.400 356.413 C 172.960 356.229,171.520 355.678,170.200 355.190 C 166.437 353.797,159.090 350.188,155.556 347.997 C 153.785 346.899,152.242 346.000,152.126 346.000 C 150.803 346.000,137.235 334.444,133.119 329.812 C 129.051 325.235,122.800 317.282,122.800 316.685 C 122.800 316.563,121.901 315.015,120.803 313.244 C 118.612 309.710,115.003 302.363,113.610 298.600 C 113.122 297.280,112.571 295.840,112.387 295.400 C 112.203 294.960,111.839 293.880,111.577 293.000 C 111.316 292.120,110.944 291.087,110.751 290.705 C 110.558 290.323,110.400 289.479,110.400 288.829 C 110.400 288.179,110.220 287.536,110.000 287.400 C 109.780 287.264,109.600 286.634,109.600 286.000 C 109.600 285.366,109.443 284.750,109.252 284.632 C 109.060 284.514,108.780 283.468,108.629 282.308 C 108.478 281.149,108.182 279.120,107.971 277.800 C 107.760 276.480,107.428 273.003,107.233 270.073 C 106.826 263.954,106.399 262.699,106.403 267.633 " stroke="none" fill="#dc9254" fill-rule="evenodd"></path></g></svg>