<svg id="svg" version="1.1" xmlns="http://www.w3.org/2000/svg" xmlns:xlink="http://www.w3.org/1999/xlink" width="400" height="400" viewBox="0, 0, 400,400"><g id="svgg"><path id="path0" d="M30.800 0.427 C 30.800 0.903,32.964 4.164,34.083 5.375 C 34.478 5.802,34.800 6.387,34.800 6.675 C 34.800 6.964,34.980 7.200,35.200 7.200 C 35.420 7.200,35.600 7.393,35.600 7.629 C 35.600 7.864,35.825 8.294,36.100 8.584 C 37.321 9.870,38.000 10.847,38.000 11.316 C 38.000 11.595,38.360 12.083,38.800 12.400 C 39.240 12.717,39.600 13.162,39.600 13.388 C 39.601 13.615,40.062 14.336,40.625 14.990 C 41.187 15.645,41.928 16.770,42.270 17.490 C 42.611 18.211,43.061 18.800,43.269 18.800 C 43.477 18.800,43.535 18.981,43.398 19.203 C 43.261 19.424,43.431 19.714,43.775 19.846 C 44.119 19.978,44.400 20.321,44.400 20.609 C 44.400 20.898,44.535 21.193,44.700 21.267 C 44.865 21.340,45.540 22.210,46.200 23.200 C 46.860 24.190,47.715 25.349,48.100 25.775 C 48.485 26.202,48.800 26.787,48.800 27.075 C 48.800 27.364,48.980 27.600,49.200 27.600 C 49.420 27.600,49.600 27.836,49.600 28.125 C 49.600 28.413,49.960 29.036,50.400 29.508 C 50.840 29.980,51.200 30.554,51.200 30.783 C 51.200 31.012,51.380 31.200,51.600 31.200 C 51.820 31.200,52.000 31.470,52.000 31.800 C 52.000 32.130,52.138 32.400,52.306 32.400 C 52.474 32.400,53.056 33.120,53.600 34.000 C 54.144 34.880,54.726 35.600,54.894 35.600 C 55.062 35.600,55.200 35.920,55.200 36.312 C 55.200 36.703,55.560 37.283,56.000 37.600 C 56.440 37.917,56.800 38.407,56.800 38.688 C 56.800 38.970,56.980 39.200,57.200 39.200 C 57.420 39.200,57.600 39.470,57.600 39.800 C 57.600 40.130,57.780 40.400,58.000 40.400 C 58.220 40.400,58.400 40.588,58.400 40.817 C 58.400 41.046,59.120 42.209,60.000 43.400 C 60.880 44.591,61.600 45.674,61.600 45.807 C 61.600 46.023,63.769 49.063,64.794 50.283 C 65.017 50.549,65.200 50.926,65.200 51.121 C 65.200 51.316,65.560 51.802,66.000 52.200 C 66.440 52.598,66.800 53.166,66.800 53.462 C 66.800 53.758,66.938 54.000,67.106 54.000 C 67.274 54.000,67.856 54.720,68.400 55.600 C 68.944 56.480,69.526 57.200,69.694 57.200 C 69.862 57.200,70.000 57.571,70.000 58.024 C 70.000 58.477,70.180 58.736,70.400 58.600 C 70.620 58.464,70.800 58.633,70.800 58.976 C 70.800 59.319,70.958 59.600,71.151 59.600 C 71.345 59.600,71.727 60.140,72.000 60.800 C 72.273 61.460,72.655 62.000,72.849 62.000 C 73.042 62.000,73.200 62.270,73.200 62.600 C 73.200 62.930,73.380 63.200,73.600 63.200 C 73.820 63.200,74.000 63.430,74.000 63.712 C 74.000 63.993,74.360 64.483,74.800 64.800 C 75.240 65.117,75.600 65.686,75.600 66.065 C 75.600 66.443,75.771 66.859,75.980 66.988 C 76.289 67.179,80.566 73.321,82.200 75.920 C 82.420 76.270,82.915 76.915,83.300 77.354 C 83.685 77.792,84.000 78.347,84.000 78.587 C 84.000 78.827,84.360 79.283,84.800 79.600 C 85.240 79.917,85.600 80.431,85.600 80.741 C 85.600 81.052,85.916 81.597,86.303 81.953 C 86.689 82.309,87.260 83.095,87.570 83.700 C 87.881 84.305,88.285 84.800,88.468 84.800 C 88.650 84.800,88.800 85.070,88.800 85.400 C 88.800 85.730,88.980 86.000,89.200 86.000 C 89.420 86.000,89.600 86.270,89.600 86.600 C 89.600 86.930,89.780 87.200,90.000 87.200 C 90.220 87.200,90.400 87.425,90.400 87.700 C 90.401 87.975,90.868 88.740,91.439 89.400 C 92.010 90.060,92.804 91.230,93.204 92.000 C 93.603 92.770,94.264 93.760,94.673 94.200 C 95.081 94.640,95.992 95.900,96.697 97.000 C 97.402 98.100,98.119 99.190,98.289 99.422 C 98.460 99.654,98.780 100.124,99.000 100.467 C 100.928 103.471,104.680 108.727,105.269 109.247 C 105.671 109.603,106.000 110.148,106.000 110.459 C 106.000 110.769,106.360 111.283,106.800 111.600 C 107.240 111.917,107.600 112.373,107.600 112.613 C 107.600 112.853,108.005 113.484,108.500 114.015 C 108.995 114.547,109.376 115.075,109.347 115.191 C 109.281 115.452,114.369 123.208,115.079 123.929 C 115.366 124.219,115.600 124.616,115.600 124.810 C 115.600 125.005,116.005 125.577,116.500 126.082 C 116.995 126.587,117.655 127.495,117.968 128.100 C 118.280 128.705,118.685 129.200,118.868 129.200 C 119.050 129.200,119.200 129.436,119.200 129.725 C 119.200 130.013,119.560 130.636,120.000 131.108 C 120.440 131.580,120.800 132.204,120.800 132.495 C 120.800 132.786,121.160 133.283,121.600 133.600 C 122.040 133.917,122.400 134.324,122.400 134.505 C 122.400 134.686,122.731 135.189,123.136 135.623 C 123.541 136.058,124.126 136.905,124.436 137.507 C 124.746 138.108,125.180 138.820,125.400 139.090 C 127.221 141.321,130.000 145.473,130.000 145.963 C 130.000 147.281,131.862 146.743,136.027 144.219 C 139.932 141.853,153.175 135.200,153.978 135.200 C 154.151 135.200,155.172 134.857,156.247 134.438 C 157.321 134.019,159.280 133.281,160.600 132.799 C 161.920 132.317,163.360 131.775,163.800 131.594 C 164.240 131.414,165.050 131.152,165.600 131.012 C 166.150 130.871,169.390 130.042,172.800 129.169 C 176.210 128.296,180.260 127.406,181.800 127.192 C 183.340 126.977,185.680 126.623,187.000 126.405 C 197.363 124.691,216.302 124.782,226.800 126.596 C 228.670 126.920,230.344 127.188,230.520 127.192 C 230.696 127.196,230.045 126.075,229.073 124.700 C 228.101 123.325,224.429 117.970,220.913 112.800 C 217.397 107.630,211.317 98.720,207.404 93.000 C 203.490 87.280,200.111 81.925,199.895 81.100 C 199.679 80.275,199.345 79.600,199.151 79.600 C 198.958 79.600,198.800 79.330,198.800 79.000 C 198.800 78.670,198.620 78.400,198.400 78.400 C 198.180 78.400,198.000 78.130,198.000 77.800 C 198.000 77.470,197.862 77.200,197.694 77.200 C 197.526 77.200,196.944 76.480,196.400 75.600 C 195.856 74.720,195.274 74.000,195.106 74.000 C 194.938 74.000,194.800 73.730,194.800 73.400 C 194.800 73.070,194.620 72.800,194.400 72.800 C 194.180 72.800,194.000 72.530,194.000 72.200 C 194.000 71.870,193.820 71.600,193.600 71.600 C 193.380 71.600,193.200 71.375,193.200 71.100 C 193.199 70.825,192.749 70.077,192.200 69.438 C 191.650 68.799,191.200 68.151,191.200 67.999 C 191.200 67.847,190.840 67.307,190.400 66.800 C 189.960 66.293,189.600 65.644,189.600 65.359 C 189.600 65.073,189.375 64.696,189.100 64.520 C 188.825 64.344,187.881 63.120,187.002 61.800 C 186.123 60.480,185.190 59.174,184.928 58.898 C 184.667 58.621,184.338 58.036,184.199 57.598 C 184.060 57.159,183.778 56.800,183.573 56.800 C 183.368 56.800,183.200 56.530,183.200 56.200 C 183.200 55.870,183.020 55.600,182.800 55.600 C 182.580 55.600,182.400 55.370,182.400 55.088 C 182.400 54.807,182.040 54.317,181.600 54.000 C 181.160 53.683,180.800 53.143,180.800 52.800 C 180.800 52.457,180.440 51.917,180.000 51.600 C 179.560 51.283,179.200 50.827,179.200 50.587 C 179.200 50.347,178.885 49.792,178.500 49.354 C 178.115 48.915,177.620 48.277,177.400 47.937 C 177.180 47.596,176.055 45.927,174.900 44.229 C 173.745 42.531,172.800 40.974,172.800 40.771 C 172.800 40.567,172.590 40.400,172.333 40.400 C 172.077 40.400,171.983 40.283,172.126 40.141 C 172.269 39.998,172.072 39.593,171.690 39.241 C 171.307 38.888,170.740 38.105,170.430 37.500 C 170.119 36.895,169.715 36.400,169.532 36.400 C 169.350 36.400,169.200 36.130,169.200 35.800 C 169.200 35.470,169.020 35.200,168.800 35.200 C 168.580 35.200,168.400 34.930,168.400 34.600 C 168.400 34.270,168.232 34.000,168.027 34.000 C 167.822 34.000,167.547 33.662,167.416 33.249 C 167.284 32.836,166.733 31.981,166.189 31.349 C 165.646 30.717,165.201 29.975,165.200 29.700 C 165.200 29.425,165.020 29.200,164.800 29.200 C 164.580 29.200,164.400 28.970,164.400 28.688 C 164.400 28.407,164.040 27.917,163.600 27.600 C 163.160 27.283,162.800 26.820,162.800 26.571 C 162.800 26.322,162.260 25.554,161.600 24.863 C 160.940 24.172,160.400 23.402,160.400 23.151 C 160.400 22.899,160.081 22.403,159.691 22.047 C 159.301 21.691,158.754 20.950,158.475 20.400 C 157.587 18.647,156.947 17.625,156.264 16.871 C 155.899 16.467,155.600 16.004,155.600 15.842 C 155.600 15.473,153.507 12.648,153.100 12.467 C 152.935 12.393,152.800 12.097,152.800 11.809 C 152.800 11.521,152.305 10.754,151.700 10.106 C 151.095 9.457,150.345 8.448,150.032 7.863 C 149.720 7.279,149.315 6.800,149.132 6.800 C 148.950 6.800,148.800 6.575,148.799 6.300 C 148.799 6.025,148.259 5.170,147.600 4.400 C 146.941 3.630,146.401 2.775,146.401 2.500 C 146.400 2.225,146.263 2.000,146.095 2.000 C 145.927 2.000,145.612 1.595,145.395 1.100 L 145.000 0.200 87.900 0.099 C 47.439 0.027,30.800 0.122,30.800 0.427 M231.633 127.347 C 231.725 127.428,232.520 127.614,233.400 127.762 C 234.546 127.954,234.830 127.914,234.400 127.621 C 233.860 127.253,231.232 126.993,231.633 127.347 M236.200 128.400 C 237.396 128.914,238.395 128.914,237.600 128.400 C 237.270 128.187,236.640 128.022,236.200 128.034 L 235.400 128.056 236.200 128.400 M239.400 129.200 C 240.596 129.714,241.595 129.714,240.800 129.200 C 240.470 128.987,239.840 128.822,239.400 128.834 L 238.600 128.856 239.400 129.200 M242.600 130.000 C 243.796 130.514,244.795 130.514,244.000 130.000 C 243.670 129.787,243.040 129.622,242.600 129.634 L 241.800 129.656 242.600 130.000 M250.400 132.400 C 250.730 132.613,251.270 132.788,251.600 132.788 C 252.133 132.788,252.133 132.745,251.600 132.400 C 251.270 132.187,250.730 132.012,250.400 132.012 C 249.867 132.012,249.867 132.055,250.400 132.400 M253.800 133.571 C 254.680 133.994,255.670 134.339,256.000 134.338 C 256.684 134.334,254.705 133.425,253.200 133.050 C 252.650 132.914,252.920 133.148,253.800 133.571 M261.000 136.320 C 264.003 137.749,270.499 140.879,270.900 141.090 C 271.065 141.176,271.200 141.158,271.200 141.049 C 271.200 140.782,260.855 135.786,259.598 135.447 C 259.049 135.299,259.680 135.691,261.000 136.320 " stroke="none" fill="#e3544b" fill-rule="evenodd"></path><path id="path1" d="M204.696 163.037 C 204.529 163.204,202.010 163.481,199.097 163.653 C 196.183 163.825,192.630 164.150,191.200 164.373 C 189.770 164.597,187.790 164.893,186.800 165.031 C 185.810 165.169,184.829 165.444,184.620 165.641 C 184.411 165.838,183.657 166.000,182.944 166.000 C 182.231 166.000,181.536 166.180,181.400 166.400 C 181.264 166.620,180.771 166.800,180.305 166.800 C 179.404 166.800,177.061 167.465,175.905 168.049 C 175.523 168.242,174.878 168.400,174.472 168.400 C 174.066 168.400,173.614 168.519,173.468 168.665 C 173.322 168.811,172.295 169.250,171.187 169.641 C 167.510 170.936,159.881 174.419,159.667 174.900 C 159.593 175.065,159.188 175.200,158.767 175.200 C 158.345 175.200,158.000 175.380,158.000 175.600 C 158.000 175.820,157.764 176.000,157.475 176.000 C 157.187 176.000,156.594 176.315,156.158 176.700 C 155.153 177.588,153.209 178.783,152.300 179.071 C 151.915 179.193,151.600 179.452,151.600 179.647 C 151.600 179.841,151.330 180.000,151.000 180.000 C 150.670 180.000,150.400 180.141,150.400 180.314 C 150.400 180.486,149.867 180.943,149.215 181.328 C 148.563 181.713,147.798 182.253,147.515 182.527 C 147.232 182.802,146.370 183.464,145.600 184.000 C 144.830 184.536,143.994 185.160,143.742 185.387 C 143.489 185.614,142.064 186.880,140.574 188.200 C 136.761 191.578,134.594 193.752,131.600 197.203 C 130.171 198.851,128.902 200.290,128.781 200.400 C 128.660 200.510,128.129 201.230,127.600 202.000 C 127.071 202.770,126.531 203.490,126.399 203.600 C 126.267 203.710,125.538 204.700,124.779 205.800 C 124.021 206.900,123.310 207.890,123.200 208.000 C 123.090 208.110,122.568 209.010,122.041 210.000 C 121.513 210.990,120.857 212.070,120.584 212.400 C 120.026 213.073,117.142 218.702,116.332 220.700 C 116.042 221.415,115.669 222.000,115.502 222.000 C 115.336 222.000,115.200 222.272,115.200 222.605 C 115.200 222.938,115.041 223.523,114.847 223.905 C 114.652 224.287,114.271 225.140,114.000 225.800 C 113.729 226.460,113.348 227.313,113.153 227.695 C 112.959 228.077,112.800 228.752,112.800 229.195 C 112.800 229.638,112.620 230.000,112.400 230.000 C 112.180 230.000,112.000 230.439,112.000 230.976 C 112.000 231.513,111.820 232.064,111.600 232.200 C 111.380 232.336,111.200 232.966,111.200 233.600 C 111.200 234.234,111.020 234.864,110.800 235.000 C 110.580 235.136,110.400 235.766,110.400 236.400 C 110.400 237.034,110.220 237.664,110.000 237.800 C 109.780 237.936,109.600 238.631,109.600 239.344 C 109.600 240.057,109.437 240.811,109.239 241.020 C 109.040 241.229,108.775 242.210,108.650 243.200 C 108.525 244.190,108.231 246.260,107.996 247.800 C 106.834 255.439,106.833 269.778,107.996 277.400 C 108.230 278.940,108.525 281.010,108.650 282.000 C 108.775 282.990,109.040 283.971,109.239 284.180 C 109.437 284.389,109.600 285.053,109.600 285.656 C 109.600 286.259,109.780 286.864,110.000 287.000 C 110.220 287.136,110.400 287.856,110.400 288.600 C 110.400 289.344,110.580 290.064,110.800 290.200 C 111.020 290.336,111.200 290.889,111.200 291.429 C 111.200 291.969,111.359 292.723,111.553 293.105 C 112.029 294.040,112.618 295.507,113.200 297.200 C 113.937 299.346,114.166 299.876,116.408 304.600 C 118.567 309.149,124.069 318.686,125.300 320.012 C 125.685 320.427,126.000 320.874,126.000 321.005 C 126.000 321.136,126.539 321.819,127.198 322.522 C 127.857 323.225,128.397 323.932,128.398 324.093 C 128.404 325.036,143.764 340.396,144.707 340.402 C 144.868 340.403,145.575 340.943,146.278 341.602 C 146.981 342.261,147.664 342.800,147.795 342.800 C 147.926 342.800,148.379 343.122,148.802 343.516 C 150.129 344.753,159.608 350.218,164.200 352.394 C 168.927 354.635,169.456 354.864,171.600 355.600 C 173.293 356.182,174.760 356.771,175.695 357.247 C 176.077 357.441,176.831 357.600,177.371 357.600 C 177.911 357.600,178.464 357.780,178.600 358.000 C 178.736 358.220,179.456 358.400,180.200 358.400 C 180.944 358.400,181.664 358.580,181.800 358.800 C 181.936 359.020,182.541 359.200,183.144 359.200 C 183.747 359.200,184.411 359.363,184.620 359.561 C 184.829 359.760,185.810 360.025,186.800 360.150 C 187.790 360.275,189.860 360.570,191.400 360.804 C 199.022 361.967,213.361 361.966,221.000 360.804 C 222.540 360.569,224.610 360.275,225.600 360.150 C 226.590 360.025,227.571 359.760,227.780 359.561 C 227.989 359.363,228.743 359.200,229.456 359.200 C 230.169 359.200,230.864 359.020,231.000 358.800 C 231.136 358.580,231.766 358.400,232.400 358.400 C 233.034 358.400,233.664 358.220,233.800 358.000 C 233.936 357.780,234.566 357.600,235.200 357.600 C 235.834 357.600,236.464 357.420,236.600 357.200 C 236.736 356.980,237.287 356.800,237.824 356.800 C 238.361 356.800,238.800 356.620,238.800 356.400 C 238.800 356.180,239.162 356.000,239.605 356.000 C 240.048 356.000,240.723 355.841,241.105 355.647 C 241.487 355.452,242.340 355.071,243.000 354.800 C 243.660 354.529,244.513 354.148,244.895 353.953 C 245.277 353.759,245.862 353.600,246.195 353.600 C 246.528 353.600,246.800 353.464,246.800 353.298 C 246.800 353.131,247.385 352.758,248.100 352.468 C 250.098 351.658,255.727 348.774,256.400 348.216 C 256.730 347.943,257.810 347.287,258.800 346.759 C 259.790 346.232,260.690 345.710,260.800 345.600 C 260.910 345.490,261.900 344.779,263.000 344.021 C 264.100 343.262,265.090 342.533,265.200 342.401 C 265.310 342.269,266.030 341.729,266.800 341.200 C 267.570 340.671,268.290 340.140,268.400 340.019 C 268.510 339.898,269.949 338.629,271.597 337.200 C 275.048 334.206,277.222 332.039,280.600 328.226 C 281.920 326.736,283.186 325.311,283.413 325.058 C 283.640 324.806,284.264 323.970,284.800 323.200 C 285.336 322.430,285.998 321.568,286.273 321.285 C 286.547 321.002,287.087 320.237,287.472 319.585 C 287.857 318.933,288.314 318.400,288.486 318.400 C 288.659 318.400,288.800 318.130,288.800 317.800 C 288.800 317.470,288.959 317.200,289.153 317.200 C 289.348 317.200,289.607 316.885,289.729 316.500 C 290.017 315.591,291.212 313.647,292.100 312.642 C 292.485 312.206,292.800 311.613,292.800 311.325 C 292.800 311.036,292.980 310.800,293.200 310.800 C 293.420 310.800,293.600 310.455,293.600 310.033 C 293.600 309.612,293.735 309.207,293.900 309.133 C 294.381 308.919,297.864 301.290,299.159 297.613 C 299.550 296.505,299.989 295.478,300.135 295.332 C 300.281 295.186,300.400 294.734,300.400 294.328 C 300.400 293.922,300.558 293.277,300.751 292.895 C 301.335 291.739,302.000 289.396,302.000 288.495 C 302.000 288.029,302.180 287.536,302.400 287.400 C 302.620 287.264,302.800 286.569,302.800 285.856 C 302.800 285.143,302.962 284.389,303.159 284.180 C 303.356 283.971,303.631 282.990,303.769 282.000 C 303.907 281.010,304.203 279.030,304.427 277.600 C 304.869 274.777,305.665 265.181,305.672 262.600 C 305.682 258.760,305.117 250.531,304.793 249.800 C 304.598 249.360,304.345 248.100,304.230 247.000 C 303.763 242.524,303.505 240.982,303.161 240.620 C 302.963 240.411,302.800 239.747,302.800 239.144 C 302.800 238.541,302.620 237.936,302.400 237.800 C 302.180 237.664,302.000 237.021,302.000 236.371 C 302.000 235.721,301.843 234.877,301.650 234.495 C 301.458 234.113,300.844 232.450,300.286 230.800 C 298.380 225.157,297.562 223.114,295.507 218.859 C 294.375 216.516,293.349 214.510,293.225 214.400 C 292.838 214.056,291.561 211.834,291.329 211.100 C 291.207 210.715,290.948 210.400,290.753 210.400 C 290.559 210.400,290.400 210.207,290.400 209.972 C 290.400 209.585,288.574 206.736,287.347 205.209 C 287.078 204.874,285.911 203.340,284.755 201.800 C 283.598 200.260,282.368 198.730,282.021 198.400 C 281.674 198.070,280.403 196.630,279.195 195.200 C 276.517 192.028,276.772 192.283,273.600 189.605 C 272.170 188.397,270.730 187.126,270.400 186.779 C 270.070 186.432,268.540 185.202,267.000 184.045 C 265.460 182.889,263.926 181.722,263.591 181.453 C 262.064 180.226,259.215 178.400,258.828 178.400 C 258.593 178.400,258.400 178.241,258.400 178.047 C 258.400 177.852,258.085 177.593,257.700 177.471 C 256.966 177.239,254.744 175.962,254.400 175.575 C 254.290 175.451,252.284 174.425,249.941 173.293 C 245.686 171.238,243.643 170.420,238.000 168.514 C 236.350 167.956,234.687 167.342,234.305 167.150 C 233.923 166.957,233.079 166.800,232.429 166.800 C 231.779 166.800,231.136 166.620,231.000 166.400 C 230.864 166.180,230.259 166.000,229.656 166.000 C 229.053 166.000,228.389 165.837,228.180 165.639 C 227.818 165.295,226.276 165.037,221.800 164.570 C 220.700 164.455,219.440 164.202,219.000 164.007 C 218.560 163.812,215.950 163.548,213.200 163.419 C 210.450 163.291,207.480 163.084,206.599 162.960 C 205.719 162.836,204.862 162.871,204.696 163.037 M218.000 187.946 C 219.430 188.185,221.366 188.494,222.303 188.632 C 223.239 188.771,224.105 189.045,224.226 189.242 C 224.348 189.439,224.966 189.600,225.600 189.600 C 226.234 189.600,226.864 189.780,227.000 190.000 C 227.136 190.220,227.689 190.400,228.229 190.400 C 229.175 190.400,229.541 190.528,231.495 191.538 C 231.987 191.792,232.752 192.000,233.195 192.000 C 233.638 192.000,234.000 192.180,234.000 192.400 C 234.000 192.620,234.450 192.800,235.000 192.800 C 235.550 192.800,236.000 192.980,236.000 193.200 C 236.000 193.420,236.245 193.600,236.545 193.600 C 237.502 193.600,248.984 199.896,249.600 200.758 C 249.710 200.913,250.430 201.474,251.200 202.006 C 251.970 202.538,252.811 203.160,253.068 203.387 C 253.326 203.614,254.667 204.790,256.048 206.000 C 259.185 208.747,260.053 209.615,262.800 212.752 C 264.010 214.133,265.186 215.474,265.413 215.732 C 265.640 215.989,266.262 216.830,266.794 217.600 C 267.326 218.370,267.887 219.090,268.042 219.200 C 268.904 219.816,275.200 231.298,275.200 232.255 C 275.200 232.555,275.380 232.800,275.600 232.800 C 275.820 232.800,276.000 233.250,276.000 233.800 C 276.000 234.350,276.180 234.800,276.400 234.800 C 276.620 234.800,276.800 235.162,276.800 235.605 C 276.800 236.048,277.008 236.813,277.262 237.305 C 278.272 239.259,278.400 239.625,278.400 240.571 C 278.400 241.111,278.580 241.664,278.800 241.800 C 279.020 241.936,279.200 242.566,279.200 243.200 C 279.200 243.834,279.361 244.452,279.558 244.574 C 279.755 244.695,280.029 245.561,280.168 246.497 C 280.306 247.434,280.618 249.370,280.861 250.800 C 281.731 255.925,281.345 275.926,280.357 276.980 C 280.160 277.189,280.000 277.943,280.000 278.656 C 280.000 279.369,279.820 280.064,279.600 280.200 C 279.380 280.336,279.200 281.056,279.200 281.800 C 279.200 282.544,279.020 283.264,278.800 283.400 C 278.580 283.536,278.400 284.177,278.400 284.824 C 278.400 285.471,278.220 286.000,278.000 286.000 C 277.780 286.000,277.600 286.362,277.600 286.805 C 277.600 287.248,277.420 287.968,277.200 288.405 C 276.980 288.842,276.620 289.558,276.400 289.995 C 276.180 290.432,276.000 291.152,276.000 291.595 C 276.000 292.038,275.865 292.401,275.700 292.403 C 275.341 292.407,274.400 294.344,274.400 295.080 C 274.400 295.366,274.220 295.600,274.000 295.600 C 273.780 295.600,273.600 295.865,273.600 296.188 C 273.600 297.216,267.723 306.847,266.392 308.000 C 266.265 308.110,265.730 308.830,265.203 309.600 C 263.745 311.730,255.335 319.956,252.400 322.124 C 250.970 323.180,249.483 324.305,249.095 324.622 C 248.708 324.940,248.213 325.200,247.995 325.200 C 247.778 325.200,247.600 325.336,247.600 325.502 C 247.600 325.669,247.015 326.064,246.300 326.380 C 245.585 326.697,244.651 327.280,244.225 327.678 C 243.798 328.075,243.213 328.400,242.925 328.400 C 242.636 328.400,242.400 328.580,242.400 328.800 C 242.400 329.020,242.040 329.200,241.600 329.200 C 241.160 329.200,240.800 329.380,240.800 329.600 C 240.800 329.820,240.440 330.000,240.000 330.000 C 239.560 330.000,239.200 330.180,239.200 330.400 C 239.200 330.620,238.947 330.800,238.638 330.800 C 238.329 330.800,237.294 331.186,236.338 331.657 C 234.508 332.559,233.872 332.820,231.600 333.600 C 230.830 333.864,229.840 334.222,229.400 334.395 C 228.284 334.833,224.699 335.779,220.400 336.770 C 209.800 339.213,188.861 337.499,181.105 333.553 C 180.723 333.359,180.136 333.200,179.800 333.200 C 179.464 333.200,178.877 333.038,178.495 332.840 C 178.113 332.642,175.820 331.520,173.400 330.345 C 170.980 329.171,168.940 328.073,168.867 327.905 C 168.793 327.737,168.478 327.600,168.167 327.600 C 167.855 327.600,167.600 327.420,167.600 327.200 C 167.600 326.980,167.330 326.800,167.000 326.800 C 166.670 326.800,166.400 326.620,166.400 326.400 C 166.400 326.180,166.207 326.000,165.972 326.000 C 165.513 326.000,162.166 323.798,161.236 322.884 C 160.926 322.579,160.001 321.906,159.180 321.388 C 157.246 320.166,148.634 311.554,147.412 309.620 C 146.894 308.799,146.221 307.874,145.916 307.564 C 145.002 306.634,142.800 303.287,142.800 302.828 C 142.800 302.593,142.620 302.400,142.400 302.400 C 142.180 302.400,142.000 302.130,142.000 301.800 C 142.000 301.470,141.820 301.200,141.600 301.200 C 141.380 301.200,141.200 300.945,141.200 300.633 C 141.200 300.322,141.063 300.007,140.895 299.933 C 140.727 299.860,139.629 297.820,138.455 295.400 C 137.280 292.980,136.158 290.687,135.960 290.305 C 135.762 289.923,135.600 289.336,135.600 289.000 C 135.600 288.664,135.441 288.077,135.247 287.695 C 131.301 279.939,129.587 259.000,132.030 248.400 C 132.941 244.447,134.002 240.426,134.405 239.400 C 134.578 238.960,134.936 237.970,135.200 237.200 C 135.980 234.928,136.241 234.292,137.143 232.462 C 137.614 231.506,138.000 230.471,138.000 230.162 C 138.000 229.853,138.180 229.600,138.400 229.600 C 138.620 229.600,138.800 229.240,138.800 228.800 C 138.800 228.360,138.980 228.000,139.200 228.000 C 139.420 228.000,139.600 227.640,139.600 227.200 C 139.600 226.760,139.780 226.400,140.000 226.400 C 140.220 226.400,140.400 226.164,140.400 225.875 C 140.400 225.587,140.725 225.002,141.122 224.575 C 141.520 224.149,142.103 223.215,142.420 222.500 C 142.736 221.785,143.131 221.200,143.298 221.200 C 143.464 221.200,143.600 221.022,143.600 220.805 C 143.600 220.587,143.860 220.092,144.178 219.705 C 144.495 219.317,145.620 217.830,146.676 216.400 C 148.844 213.465,157.070 205.055,159.200 203.597 C 159.970 203.070,160.690 202.535,160.800 202.408 C 161.953 201.077,171.584 195.200,172.612 195.200 C 172.935 195.200,173.200 195.020,173.200 194.800 C 173.200 194.580,173.560 194.400,174.000 194.400 C 174.440 194.400,174.800 194.220,174.800 194.000 C 174.800 193.780,175.160 193.600,175.600 193.600 C 176.040 193.600,176.400 193.420,176.400 193.200 C 176.400 192.980,176.762 192.800,177.205 192.800 C 177.648 192.800,178.368 192.620,178.805 192.400 C 179.242 192.180,179.958 191.820,180.395 191.600 C 180.832 191.380,181.552 191.200,181.995 191.200 C 182.438 191.200,182.800 191.020,182.800 190.800 C 182.800 190.580,183.329 190.400,183.976 190.400 C 184.623 190.400,185.264 190.220,185.400 190.000 C 185.536 189.780,186.256 189.600,187.000 189.600 C 187.744 189.600,188.464 189.420,188.600 189.200 C 188.736 188.980,189.456 188.800,190.200 188.800 C 190.944 188.800,191.664 188.620,191.800 188.400 C 191.936 188.180,192.982 187.987,194.124 187.972 C 195.266 187.956,196.560 187.786,197.000 187.593 C 198.076 187.120,214.733 187.400,218.000 187.946 " stroke="none" fill="#d4b454" fill-rule="evenodd"></path><path id="path2" d="M254.900 0.265 C 254.625 0.376,254.400 0.723,254.400 1.037 C 254.400 1.351,253.860 2.172,253.200 2.863 C 252.540 3.554,252.000 4.362,252.000 4.659 C 252.000 4.957,251.850 5.200,251.668 5.200 C 251.485 5.200,251.081 5.695,250.770 6.300 C 250.460 6.905,249.889 7.691,249.503 8.047 C 249.116 8.403,248.800 8.898,248.800 9.147 C 248.800 9.396,248.650 9.600,248.468 9.600 C 248.285 9.600,247.880 10.095,247.568 10.700 C 247.255 11.305,246.685 12.149,246.300 12.575 C 245.915 13.002,245.600 13.504,245.600 13.692 C 245.600 13.880,245.240 14.420,244.800 14.892 C 244.360 15.364,244.000 15.987,244.000 16.275 C 244.000 16.564,243.848 16.800,243.663 16.800 C 243.478 16.800,242.983 17.475,242.563 18.300 C 242.143 19.125,241.485 20.091,241.100 20.447 C 240.715 20.803,240.400 21.348,240.400 21.659 C 240.400 21.969,240.040 22.483,239.600 22.800 C 239.160 23.117,238.800 23.657,238.800 24.000 C 238.800 24.343,238.440 24.883,238.000 25.200 C 237.560 25.517,237.200 25.967,237.200 26.200 C 237.200 26.433,236.840 26.883,236.400 27.200 C 235.960 27.517,235.600 28.057,235.600 28.400 C 235.600 28.743,235.240 29.283,234.800 29.600 C 234.360 29.917,234.000 30.457,234.000 30.800 C 234.000 31.143,233.640 31.683,233.200 32.000 C 232.760 32.317,232.400 32.762,232.399 32.988 C 232.399 33.215,231.859 34.030,231.200 34.800 C 230.541 35.570,230.001 36.425,230.001 36.700 C 230.000 36.975,229.850 37.200,229.668 37.200 C 229.485 37.200,229.080 37.695,228.768 38.300 C 228.455 38.905,227.885 39.749,227.500 40.175 C 227.115 40.602,226.800 41.187,226.800 41.475 C 226.800 41.764,226.661 42.000,226.491 42.000 C 226.321 42.000,225.843 42.630,225.428 43.400 C 225.013 44.170,224.522 44.800,224.337 44.800 C 224.152 44.800,224.000 45.120,224.000 45.512 C 224.000 45.903,223.640 46.483,223.200 46.800 C 222.760 47.117,222.400 47.607,222.400 47.888 C 222.400 48.170,222.220 48.400,222.000 48.400 C 221.780 48.400,221.600 48.670,221.600 49.000 C 221.600 49.330,221.450 49.600,221.268 49.600 C 221.085 49.600,220.681 50.095,220.370 50.700 C 220.060 51.305,219.489 52.091,219.103 52.447 C 218.716 52.803,218.400 53.348,218.400 53.659 C 218.400 53.969,218.040 54.483,217.600 54.800 C 217.160 55.117,216.800 55.657,216.800 56.000 C 216.800 56.343,216.440 56.883,216.000 57.200 C 215.560 57.517,215.200 57.979,215.200 58.226 C 215.200 58.474,214.840 59.002,214.400 59.400 C 213.960 59.798,213.600 60.366,213.600 60.662 C 213.600 60.958,213.462 61.200,213.294 61.200 C 213.126 61.200,212.544 61.920,212.000 62.800 C 211.456 63.680,210.874 64.400,210.706 64.400 C 210.538 64.400,210.400 64.608,210.400 64.862 C 210.400 65.116,209.950 65.914,209.400 66.636 C 208.850 67.357,208.400 68.189,208.400 68.485 C 208.400 68.781,208.040 69.283,207.600 69.600 C 207.160 69.917,206.800 70.457,206.800 70.800 C 206.800 71.143,206.440 71.683,206.000 72.000 C 205.560 72.317,205.200 72.857,205.200 73.200 C 205.200 73.543,204.840 74.083,204.400 74.400 C 203.960 74.717,203.600 75.167,203.600 75.400 C 203.600 75.633,203.240 76.083,202.800 76.400 C 202.360 76.717,202.000 77.180,202.000 77.429 C 202.000 77.678,201.469 78.437,200.821 79.115 C 199.154 80.860,199.251 81.065,207.410 93.000 C 211.320 98.720,217.397 107.630,220.913 112.800 C 231.097 127.774,230.652 127.200,232.092 127.200 C 232.780 127.200,233.896 127.368,234.572 127.573 C 235.712 127.919,236.506 128.127,240.800 129.200 C 244.746 130.187,248.248 131.173,249.400 131.623 C 249.840 131.795,252.650 132.837,255.644 133.939 C 258.637 135.040,263.507 137.124,266.466 138.571 C 272.782 141.659,273.217 141.720,274.450 139.700 C 274.954 138.875,275.509 138.140,275.683 138.067 C 275.857 137.993,276.000 137.628,276.000 137.255 C 276.000 136.882,276.360 136.317,276.800 136.000 C 277.240 135.683,277.600 135.143,277.600 134.800 C 277.600 134.457,277.960 133.917,278.400 133.600 C 278.840 133.283,279.200 132.791,279.200 132.508 C 279.200 132.225,279.740 131.428,280.400 130.737 C 281.060 130.046,281.600 129.238,281.600 128.941 C 281.600 128.643,281.750 128.400,281.932 128.400 C 282.115 128.400,282.519 127.905,282.830 127.300 C 283.140 126.695,283.667 125.930,284.000 125.600 C 284.333 125.270,284.860 124.505,285.170 123.900 C 285.481 123.295,285.885 122.800,286.068 122.800 C 286.250 122.800,286.400 122.530,286.400 122.200 C 286.400 121.870,286.550 121.600,286.732 121.600 C 286.915 121.600,287.320 121.105,287.632 120.500 C 287.945 119.895,288.515 119.051,288.900 118.625 C 289.285 118.198,289.600 117.613,289.600 117.325 C 289.600 117.036,289.752 116.800,289.937 116.800 C 290.122 116.800,290.617 116.125,291.037 115.300 C 291.457 114.475,292.115 113.509,292.500 113.153 C 292.885 112.797,293.200 112.252,293.200 111.941 C 293.200 111.631,293.560 111.117,294.000 110.800 C 294.440 110.483,294.800 109.943,294.800 109.600 C 294.800 109.257,295.160 108.717,295.600 108.400 C 296.040 108.083,296.400 107.593,296.400 107.312 C 296.400 107.030,296.550 106.800,296.732 106.800 C 296.915 106.800,297.319 106.305,297.630 105.700 C 297.940 105.095,298.511 104.309,298.897 103.953 C 299.284 103.597,299.600 103.052,299.600 102.741 C 299.600 102.431,299.960 101.917,300.400 101.600 C 300.840 101.283,301.200 100.838,301.200 100.612 C 301.201 100.385,301.651 99.677,302.200 99.038 C 302.750 98.399,303.200 97.752,303.200 97.600 C 303.200 97.448,303.650 96.801,304.200 96.162 C 304.749 95.523,305.199 94.857,305.200 94.683 C 305.200 94.509,305.560 93.980,306.000 93.508 C 306.440 93.036,306.800 92.413,306.800 92.125 C 306.800 91.836,306.952 91.600,307.137 91.600 C 307.322 91.600,307.813 90.970,308.228 90.200 C 308.643 89.430,309.121 88.800,309.291 88.800 C 309.461 88.800,309.600 88.480,309.600 88.088 C 309.600 87.697,309.960 87.117,310.400 86.800 C 310.840 86.483,311.200 85.993,311.200 85.712 C 311.200 85.430,311.380 85.200,311.600 85.200 C 311.820 85.200,312.000 84.930,312.000 84.600 C 312.000 84.270,312.150 84.000,312.332 84.000 C 312.515 84.000,312.919 83.505,313.230 82.900 C 313.540 82.295,314.111 81.509,314.497 81.153 C 314.884 80.797,315.200 80.252,315.200 79.941 C 315.200 79.631,315.560 79.117,316.000 78.800 C 316.440 78.483,316.800 77.943,316.800 77.600 C 316.800 77.257,317.160 76.717,317.600 76.400 C 318.040 76.083,318.400 75.593,318.400 75.312 C 318.400 75.030,318.550 74.800,318.732 74.800 C 318.915 74.800,319.320 74.305,319.632 73.700 C 319.944 73.095,320.299 72.510,320.421 72.400 C 321.065 71.820,325.200 65.466,325.200 65.056 C 325.200 64.793,325.560 64.317,326.000 64.000 C 326.440 63.683,326.800 63.143,326.800 62.800 C 326.800 62.457,327.160 61.917,327.600 61.600 C 328.040 61.283,328.400 60.743,328.400 60.400 C 328.400 60.057,328.760 59.517,329.200 59.200 C 329.640 58.883,330.000 58.459,330.000 58.259 C 330.000 58.058,330.316 57.603,330.703 57.247 C 331.089 56.891,331.660 56.105,331.970 55.500 C 332.281 54.895,332.685 54.400,332.868 54.400 C 333.050 54.400,333.200 54.130,333.200 53.800 C 333.200 53.470,333.380 53.200,333.600 53.200 C 333.820 53.200,334.000 52.930,334.000 52.600 C 334.000 52.270,334.150 52.000,334.332 52.000 C 334.515 52.000,334.920 51.505,335.232 50.900 C 335.545 50.295,336.115 49.451,336.500 49.025 C 336.885 48.598,337.200 48.053,337.200 47.813 C 337.200 47.573,337.560 47.117,338.000 46.800 C 338.440 46.483,338.800 45.903,338.800 45.512 C 338.800 45.120,338.950 44.800,339.132 44.800 C 339.315 44.800,339.720 44.305,340.032 43.700 C 340.345 43.095,340.780 42.381,341.000 42.114 C 341.220 41.847,341.625 41.359,341.900 41.031 C 342.175 40.702,342.400 40.246,342.400 40.017 C 342.400 39.788,342.580 39.600,342.800 39.600 C 343.020 39.600,343.200 39.330,343.200 39.000 C 343.200 38.670,343.380 38.400,343.600 38.400 C 343.820 38.400,344.000 38.170,344.000 37.888 C 344.000 37.607,344.360 37.117,344.800 36.800 C 345.240 36.483,345.600 35.943,345.600 35.600 C 345.600 35.257,345.960 34.717,346.400 34.400 C 346.840 34.083,347.200 33.543,347.200 33.200 C 347.200 32.857,347.560 32.317,348.000 32.000 C 348.440 31.683,348.800 31.143,348.800 30.800 C 348.800 30.457,349.160 29.917,349.600 29.600 C 350.040 29.283,350.400 28.769,350.400 28.459 C 350.400 28.148,350.715 27.603,351.100 27.247 C 351.801 26.599,352.771 25.257,356.046 20.400 C 357.011 18.970,358.025 17.562,358.300 17.271 C 358.575 16.981,358.800 16.435,358.800 16.060 C 358.800 15.684,359.160 15.117,359.600 14.800 C 360.040 14.483,360.400 13.991,360.400 13.708 C 360.400 13.425,360.940 12.628,361.600 11.937 C 362.260 11.246,362.800 10.504,362.800 10.288 C 362.800 10.071,363.116 9.603,363.503 9.247 C 363.889 8.891,364.460 8.105,364.770 7.500 C 365.081 6.895,365.485 6.400,365.668 6.400 C 365.850 6.400,366.000 6.130,366.000 5.800 C 366.000 5.470,366.150 5.200,366.332 5.200 C 366.515 5.200,366.919 4.705,367.230 4.100 C 367.540 3.495,368.111 2.709,368.497 2.353 C 368.884 1.997,369.200 1.322,369.200 0.853 L 369.200 0.000 312.300 0.032 C 281.005 0.049,255.175 0.154,254.900 0.265 M146.893 3.600 C 147.168 4.040,147.531 4.400,147.700 4.400 C 147.869 4.400,147.782 4.040,147.507 3.600 C 147.232 3.160,146.869 2.800,146.700 2.800 C 146.531 2.800,146.618 3.160,146.893 3.600 M126.936 141.778 C 127.411 142.507,127.852 143.059,127.915 143.004 C 128.166 142.785,127.060 140.832,126.582 140.648 C 126.300 140.540,126.458 141.046,126.936 141.778 M128.873 144.600 C 129.123 145.150,129.484 145.600,129.673 145.600 C 129.863 145.600,129.724 145.150,129.363 144.600 C 129.003 144.050,128.643 143.600,128.563 143.600 C 128.483 143.600,128.622 144.050,128.873 144.600 " stroke="none" fill="#bc3c2c" fill-rule="evenodd"></path><path id="path3" d="M203.141 125.378 C 202.999 125.528,200.029 125.814,196.541 126.014 C 193.054 126.213,189.030 126.554,187.600 126.770 C 186.170 126.986,183.740 127.354,182.200 127.587 C 178.639 128.127,176.617 128.583,169.000 130.566 C 166.800 131.139,164.100 131.949,163.000 132.366 C 161.900 132.784,158.930 133.878,156.400 134.799 C 151.833 136.461,139.522 142.267,139.267 142.880 C 139.193 143.056,138.956 143.200,138.739 143.200 C 138.522 143.200,137.559 143.740,136.600 144.400 C 135.641 145.060,134.736 145.600,134.590 145.600 C 134.443 145.600,133.846 145.934,133.262 146.342 C 132.678 146.751,131.615 147.111,130.900 147.142 C 128.919 147.230,128.383 147.316,128.581 147.514 C 128.845 147.778,127.738 148.800,127.189 148.800 C 126.932 148.800,126.217 149.340,125.600 150.000 C 124.983 150.660,124.373 151.200,124.244 151.200 C 123.969 151.200,122.689 152.224,121.368 153.500 C 120.856 153.995,120.198 154.400,119.906 154.400 C 119.615 154.400,119.117 154.760,118.800 155.200 C 118.483 155.640,118.012 156.000,117.754 156.000 C 117.497 156.000,117.178 156.281,117.046 156.625 C 116.914 156.969,116.620 157.136,116.393 156.996 C 116.166 156.855,116.030 156.912,116.090 157.122 C 116.151 157.331,115.615 158.066,114.900 158.755 C 114.185 159.443,113.600 159.891,113.600 159.750 C 113.600 159.608,113.226 159.968,112.768 160.550 C 112.310 161.132,111.743 161.488,111.506 161.342 C 111.251 161.185,111.193 161.264,111.362 161.538 C 111.533 161.815,111.387 162.000,111.000 162.000 C 110.644 162.000,110.464 162.180,110.600 162.400 C 110.736 162.620,110.556 162.800,110.200 162.800 C 109.844 162.800,109.664 162.980,109.800 163.200 C 109.936 163.420,109.807 163.600,109.513 163.600 C 109.022 163.600,107.600 164.944,107.600 165.408 C 107.600 165.517,106.250 166.983,104.600 168.665 C 102.950 170.348,101.600 171.876,101.600 172.062 C 101.600 172.248,101.300 172.400,100.933 172.400 C 100.567 172.400,100.376 172.509,100.509 172.643 C 100.643 172.776,100.579 173.091,100.368 173.343 C 98.533 175.530,98.001 176.245,98.000 176.529 C 98.000 177.045,96.923 177.989,96.648 177.714 C 96.511 177.578,96.400 177.723,96.400 178.037 C 96.400 178.351,96.040 178.832,95.600 179.107 C 95.160 179.382,94.800 179.875,94.800 180.203 C 94.800 180.532,94.620 180.800,94.400 180.800 C 94.180 180.800,94.045 180.967,94.100 181.172 C 94.155 181.376,93.840 181.840,93.400 182.201 C 92.960 182.563,92.825 182.745,93.100 182.606 C 93.375 182.467,93.600 182.543,93.600 182.776 C 93.600 183.009,93.359 183.200,93.064 183.200 C 92.770 183.200,92.185 183.918,91.764 184.795 C 91.344 185.673,90.865 186.393,90.700 186.395 C 90.535 186.398,90.400 186.760,90.400 187.200 C 90.400 187.640,90.250 188.000,90.068 188.000 C 89.885 188.000,89.481 188.495,89.170 189.100 C 88.860 189.705,88.262 190.515,87.842 190.900 C 87.306 191.390,87.242 191.600,87.628 191.600 C 87.950 191.600,87.809 191.858,87.289 192.223 C 86.800 192.565,86.400 193.206,86.400 193.646 C 86.400 194.087,86.251 194.355,86.069 194.242 C 85.886 194.130,85.126 195.365,84.379 196.987 C 83.633 198.610,82.882 199.850,82.711 199.745 C 82.540 199.639,82.397 200.148,82.394 200.876 C 82.389 201.878,82.293 202.054,82.000 201.600 C 81.680 201.105,81.611 201.144,81.606 201.820 C 81.603 202.271,81.375 202.882,81.100 203.179 C 80.698 203.612,80.704 203.659,81.130 203.417 C 81.699 203.094,81.140 204.313,80.129 205.600 C 79.869 205.930,79.648 206.337,79.637 206.504 C 79.625 206.671,79.338 207.346,78.998 208.004 C 78.658 208.662,78.496 209.200,78.639 209.200 C 78.781 209.200,78.697 209.442,78.452 209.737 C 78.207 210.032,78.125 210.392,78.270 210.537 C 78.415 210.682,78.323 210.800,78.067 210.800 C 77.810 210.800,77.600 211.261,77.600 211.824 C 77.600 212.495,77.441 212.749,77.138 212.562 C 76.884 212.405,76.773 212.439,76.891 212.638 C 77.009 212.837,76.921 213.450,76.694 214.000 C 76.467 214.550,76.245 215.423,76.200 215.940 C 76.156 216.456,75.889 217.021,75.608 217.195 C 75.327 217.368,75.221 217.711,75.372 217.955 C 75.524 218.200,75.496 218.400,75.311 218.400 C 75.126 218.400,74.934 218.895,74.884 219.500 C 74.834 220.105,74.615 220.660,74.397 220.733 C 74.178 220.807,74.000 221.561,74.000 222.410 C 74.000 223.258,73.820 224.064,73.600 224.200 C 73.380 224.336,73.200 224.977,73.200 225.624 C 73.200 226.271,73.020 226.800,72.800 226.800 C 72.580 226.800,72.400 227.419,72.400 228.176 C 72.400 228.933,72.220 229.664,72.000 229.800 C 71.780 229.936,71.600 230.767,71.600 231.647 C 71.600 232.612,71.441 233.149,71.200 233.000 C 70.952 232.847,70.800 233.596,70.800 234.976 C 70.800 236.199,70.640 237.200,70.444 237.200 C 70.249 237.200,70.097 237.425,70.107 237.700 C 70.189 239.903,69.942 242.811,69.686 242.653 C 69.513 242.546,69.355 242.761,69.335 243.129 C 69.315 243.498,69.249 244.835,69.188 246.100 C 69.127 247.365,68.920 248.400,68.730 248.400 C 68.247 248.400,68.336 276.313,68.819 276.612 C 69.029 276.741,69.200 277.906,69.200 279.200 C 69.200 280.494,69.351 281.646,69.536 281.761 C 69.722 281.875,69.911 283.191,69.959 284.684 C 70.006 286.178,70.214 287.460,70.422 287.533 C 70.630 287.607,70.800 288.451,70.800 289.410 C 70.800 290.368,70.980 291.264,71.200 291.400 C 71.420 291.536,71.600 292.346,71.600 293.200 C 71.600 294.054,71.780 294.864,72.000 295.000 C 72.220 295.136,72.400 295.766,72.400 296.400 C 72.400 297.034,72.580 297.664,72.800 297.800 C 73.020 297.936,73.200 298.656,73.200 299.400 C 73.200 300.144,73.380 300.864,73.600 301.000 C 73.820 301.136,74.000 301.867,74.000 302.624 C 74.000 303.381,74.180 304.000,74.400 304.000 C 74.620 304.000,74.800 304.423,74.800 304.940 C 74.800 306.109,75.576 308.400,75.972 308.400 C 76.134 308.400,76.237 308.803,76.200 309.296 C 76.164 309.788,76.376 310.433,76.671 310.728 C 76.966 311.023,77.113 311.418,76.997 311.605 C 76.882 311.792,76.970 312.058,77.193 312.196 C 77.417 312.334,77.600 312.899,77.600 313.452 C 77.600 314.005,77.862 314.719,78.183 315.040 C 78.504 315.361,78.664 315.888,78.540 316.212 C 78.416 316.535,78.485 316.800,78.693 316.800 C 79.176 316.800,80.000 318.591,80.000 319.642 C 80.000 320.085,80.142 320.360,80.315 320.252 C 80.488 320.145,80.861 320.630,81.144 321.329 C 81.426 322.028,81.909 323.070,82.218 323.644 C 82.526 324.218,82.664 324.803,82.523 324.944 C 82.382 325.085,82.432 325.201,82.633 325.201 C 82.835 325.202,83.450 326.192,84.000 327.400 C 84.550 328.608,85.135 329.598,85.300 329.599 C 85.465 329.599,85.600 329.870,85.600 330.200 C 85.600 330.530,85.736 330.800,85.902 330.800 C 86.265 330.800,87.421 333.260,87.279 333.730 C 87.225 333.911,87.365 333.945,87.590 333.806 C 87.816 333.667,88.000 333.833,88.000 334.176 C 88.000 334.519,88.158 334.800,88.351 334.800 C 88.545 334.800,88.927 335.340,89.200 336.000 C 89.473 336.660,89.855 337.200,90.049 337.200 C 90.242 337.200,90.379 337.335,90.353 337.500 C 90.235 338.245,90.429 338.829,90.732 338.642 C 90.915 338.529,91.315 339.073,91.620 339.851 C 91.925 340.629,92.510 341.445,92.919 341.663 C 93.327 341.882,93.576 342.285,93.471 342.559 C 93.366 342.833,93.622 343.271,94.040 343.532 C 94.458 343.793,94.800 344.286,94.800 344.627 C 94.800 344.968,94.954 345.152,95.142 345.036 C 95.329 344.920,95.680 345.257,95.921 345.785 C 96.161 346.314,96.721 347.163,97.164 347.673 C 97.608 348.183,97.970 348.743,97.969 348.917 C 97.967 349.092,98.604 349.853,99.383 350.610 C 100.162 351.367,100.800 352.098,100.800 352.235 C 100.800 352.373,101.250 352.839,101.800 353.271 C 102.350 353.704,102.800 354.326,102.800 354.653 C 102.800 354.980,102.980 355.136,103.200 355.000 C 103.420 354.864,103.600 354.956,103.600 355.205 C 103.600 355.815,104.642 356.824,104.952 356.514 C 105.089 356.378,105.200 356.567,105.200 356.933 C 105.200 357.300,105.352 357.600,105.539 357.600 C 105.998 357.600,107.295 358.831,107.863 359.806 C 108.117 360.243,108.567 360.540,108.863 360.467 C 109.158 360.393,109.274 360.460,109.119 360.614 C 108.816 360.918,109.725 362.000,110.283 362.000 C 110.470 362.000,110.850 362.315,111.127 362.700 C 111.404 363.085,111.759 363.580,111.915 363.800 C 112.072 364.020,112.548 364.392,112.973 364.627 C 113.399 364.861,113.939 365.394,114.173 365.810 C 114.827 366.968,115.478 367.589,115.752 367.314 C 115.889 367.178,116.000 367.277,116.000 367.533 C 116.000 367.790,116.204 368.000,116.453 368.000 C 116.702 368.000,117.505 368.636,118.239 369.413 C 118.972 370.191,119.684 370.802,119.822 370.772 C 119.959 370.742,120.490 371.082,121.001 371.527 C 121.513 371.971,122.037 372.230,122.166 372.101 C 122.295 371.972,122.400 372.177,122.400 372.557 C 122.400 372.937,122.578 373.137,122.797 373.002 C 123.015 372.867,123.634 373.198,124.172 373.736 C 124.711 374.275,125.252 374.614,125.376 374.491 C 125.499 374.368,125.600 374.477,125.600 374.733 C 125.600 374.990,125.868 375.200,126.197 375.200 C 126.525 375.200,127.018 375.560,127.293 376.000 C 127.568 376.440,128.030 376.800,128.320 376.800 C 128.617 376.800,128.722 377.002,128.562 377.262 C 128.393 377.536,128.451 377.615,128.706 377.458 C 128.942 377.312,129.401 377.458,129.725 377.782 C 130.049 378.106,130.552 378.423,130.842 378.486 C 131.132 378.549,131.725 378.915,132.160 379.300 C 132.595 379.685,133.187 380.000,133.475 380.000 C 133.764 380.000,134.000 380.180,134.000 380.400 C 134.000 380.620,134.281 380.800,134.624 380.800 C 134.967 380.800,135.133 380.984,134.994 381.210 C 134.855 381.435,134.889 381.575,135.070 381.521 C 135.540 381.379,138.000 382.535,138.000 382.898 C 138.000 383.064,138.281 383.200,138.624 383.200 C 138.967 383.200,139.136 383.380,139.000 383.600 C 138.864 383.820,139.123 384.000,139.576 384.000 C 140.029 384.000,140.400 384.180,140.400 384.400 C 140.400 384.620,140.724 384.800,141.120 384.800 C 141.516 384.800,142.011 384.956,142.220 385.146 C 143.029 385.883,147.230 387.971,146.954 387.499 C 146.794 387.225,147.023 387.315,147.464 387.701 C 147.904 388.086,148.385 388.281,148.532 388.134 C 148.680 387.987,148.800 388.054,148.800 388.283 C 148.800 388.512,149.326 388.805,149.969 388.934 C 150.612 389.062,151.372 389.418,151.657 389.723 C 151.943 390.029,152.470 390.202,152.829 390.108 C 153.187 390.015,153.764 390.221,154.111 390.568 C 154.457 390.914,155.006 391.096,155.330 390.972 C 155.654 390.847,156.038 390.938,156.183 391.173 C 156.328 391.408,156.887 391.600,157.424 391.600 C 157.961 391.600,158.400 391.780,158.400 392.000 C 158.400 392.220,158.850 392.400,159.400 392.400 C 159.950 392.400,160.400 392.580,160.400 392.800 C 160.400 393.020,160.861 393.200,161.424 393.200 C 161.987 393.200,162.359 393.343,162.251 393.517 C 162.144 393.691,162.628 393.877,163.328 393.930 C 164.027 393.982,164.660 394.200,164.733 394.413 C 164.807 394.626,165.471 394.800,166.210 394.800 C 166.948 394.800,167.664 394.980,167.800 395.200 C 167.936 395.420,168.667 395.600,169.424 395.600 C 170.181 395.600,170.800 395.780,170.800 396.000 C 170.800 396.220,171.419 396.400,172.176 396.400 C 172.933 396.400,173.664 396.580,173.800 396.800 C 173.936 397.020,174.757 397.200,175.624 397.200 C 176.491 397.200,177.200 397.380,177.200 397.600 C 177.200 397.820,178.010 398.000,179.000 398.000 C 179.990 398.000,180.800 398.150,180.800 398.334 C 180.800 398.518,181.912 398.709,183.271 398.758 C 186.328 398.868,186.532 398.904,186.885 399.400 C 187.413 400.139,225.240 399.913,226.212 399.165 C 226.438 398.991,227.736 398.808,229.095 398.759 C 230.455 398.710,231.474 398.519,231.360 398.335 C 231.246 398.151,232.153 398.000,233.376 398.000 C 234.599 398.000,235.600 397.820,235.600 397.600 C 235.600 397.380,236.129 397.200,236.776 397.200 C 237.423 397.200,238.064 397.020,238.200 396.800 C 238.336 396.580,239.157 396.400,240.024 396.400 C 240.891 396.400,241.600 396.220,241.600 396.000 C 241.600 395.780,242.219 395.600,242.976 395.600 C 243.733 395.600,244.464 395.420,244.600 395.200 C 244.736 394.980,245.557 394.800,246.424 394.800 C 247.291 394.800,248.000 394.620,248.000 394.400 C 248.000 394.180,248.439 394.000,248.976 394.000 C 249.513 394.000,250.064 393.820,250.200 393.600 C 250.336 393.380,250.791 393.200,251.211 393.200 C 251.632 393.200,252.566 392.870,253.288 392.466 C 254.753 391.646,256.740 391.027,257.500 391.152 C 257.775 391.198,258.000 391.047,258.000 390.818 C 258.000 390.588,258.135 390.429,258.300 390.464 C 258.673 390.542,259.720 390.160,261.844 389.168 C 262.748 388.745,263.693 388.400,263.944 388.400 C 264.195 388.400,264.400 388.201,264.400 387.957 C 264.400 387.714,264.679 387.622,265.021 387.753 C 265.377 387.889,265.537 387.822,265.397 387.595 C 265.260 387.373,265.612 387.200,266.200 387.200 C 266.796 387.200,267.141 387.028,267.000 386.800 C 266.861 386.574,267.185 386.400,267.743 386.400 C 268.288 386.400,268.793 386.265,268.867 386.100 C 268.940 385.935,270.260 385.170,271.800 384.400 C 273.340 383.630,274.660 382.865,274.733 382.700 C 274.807 382.535,275.122 382.400,275.433 382.400 C 275.745 382.400,276.000 382.220,276.000 382.000 C 276.000 381.780,276.236 381.600,276.525 381.600 C 276.813 381.600,277.398 381.285,277.825 380.900 C 278.251 380.515,279.095 379.945,279.700 379.632 C 280.305 379.320,280.800 378.905,280.800 378.709 C 280.800 378.513,280.960 378.451,281.155 378.572 C 281.350 378.693,281.732 378.523,282.004 378.196 C 282.276 377.868,282.744 377.600,283.045 377.600 C 283.347 377.600,284.135 377.033,284.797 376.341 C 285.458 375.648,286.000 375.307,286.000 375.583 C 286.000 375.859,286.540 375.507,287.200 374.800 C 287.860 374.093,288.406 373.669,288.413 373.858 C 288.420 374.046,288.645 373.912,288.913 373.560 C 289.181 373.208,289.543 372.903,289.718 372.882 C 290.001 372.849,291.662 371.566,294.097 369.500 C 294.551 369.115,295.079 368.800,295.270 368.800 C 295.461 368.800,295.822 368.350,296.073 367.800 C 296.323 367.250,296.770 366.800,297.064 366.800 C 297.359 366.800,297.600 366.650,297.600 366.468 C 297.600 366.285,298.044 365.898,298.586 365.607 C 299.129 365.317,299.478 364.927,299.363 364.740 C 299.247 364.553,299.330 364.400,299.546 364.400 C 299.762 364.400,300.644 363.680,301.507 362.800 C 302.369 361.920,303.244 361.200,303.449 361.200 C 303.655 361.200,304.088 360.823,304.412 360.363 C 304.735 359.902,305.315 359.155,305.700 358.701 C 306.085 358.248,306.400 357.715,306.400 357.515 C 306.400 357.316,306.579 357.264,306.798 357.399 C 307.017 357.534,307.388 357.224,307.623 356.709 C 307.858 356.194,308.578 355.419,309.224 354.987 C 309.869 354.554,310.399 353.930,310.400 353.600 C 310.401 353.270,310.941 352.640,311.600 352.200 C 312.259 351.760,312.798 351.215,312.799 350.988 C 312.799 350.762,313.160 350.317,313.600 350.000 C 314.040 349.683,314.400 349.193,314.400 348.913 C 314.400 348.632,315.120 347.637,316.000 346.703 C 316.880 345.769,317.600 344.804,317.600 344.560 C 317.600 344.316,318.175 343.640,318.877 343.058 C 319.580 342.476,320.014 342.000,319.842 342.000 C 319.670 342.000,319.995 341.446,320.564 340.769 C 321.134 340.092,321.600 339.277,321.600 338.957 C 321.600 338.637,321.869 338.272,322.198 338.146 C 322.526 338.019,322.713 337.782,322.612 337.619 C 322.510 337.455,322.781 336.941,323.214 336.477 C 323.646 336.013,324.000 335.446,324.000 335.217 C 324.000 334.988,324.191 334.800,324.424 334.800 C 324.657 334.800,324.736 334.620,324.600 334.400 C 324.464 334.180,324.543 334.000,324.776 334.000 C 325.009 334.000,325.200 333.640,325.200 333.200 C 325.200 332.760,325.380 332.400,325.600 332.400 C 325.820 332.400,326.000 332.040,326.000 331.600 C 326.000 331.160,326.159 330.800,326.353 330.800 C 326.548 330.800,326.807 330.485,326.929 330.100 C 327.146 329.415,328.404 327.196,328.800 326.800 C 328.910 326.690,329.058 326.330,329.130 326.000 C 329.201 325.670,329.426 325.340,329.630 325.267 C 329.833 325.193,330.000 324.884,330.000 324.579 C 330.000 324.117,330.840 322.387,331.932 320.600 C 332.067 320.380,332.232 319.848,332.299 319.417 C 332.365 318.987,332.551 318.537,332.710 318.417 C 333.268 317.999,334.000 316.404,334.000 315.605 C 334.000 315.162,334.180 314.800,334.400 314.800 C 334.620 314.800,334.800 314.170,334.800 313.400 C 334.800 312.630,334.980 312.000,335.200 312.000 C 335.420 312.000,335.600 311.640,335.600 311.200 C 335.600 310.760,335.780 310.400,336.000 310.400 C 336.220 310.400,336.400 310.070,336.400 309.667 C 336.400 309.263,336.525 308.808,336.678 308.655 C 336.831 308.502,336.990 308.157,337.032 307.888 C 337.073 307.620,337.460 306.320,337.892 305.000 C 338.323 303.680,339.085 300.845,339.583 298.700 C 340.082 296.555,340.643 294.800,340.829 294.800 C 341.015 294.800,341.167 294.305,341.166 293.700 C 341.163 291.514,341.702 287.616,341.983 287.789 C 342.225 287.939,342.326 286.930,342.512 282.500 C 342.524 282.225,342.683 282.000,342.867 282.000 C 343.050 282.000,343.200 280.866,343.200 279.480 C 343.200 278.094,343.385 276.775,343.610 276.550 C 344.451 275.709,343.652 243.130,342.769 242.220 C 342.566 242.011,342.400 240.886,342.400 239.720 C 342.400 238.554,342.247 237.600,342.059 237.600 C 341.871 237.600,341.598 236.039,341.451 234.132 C 341.305 232.224,340.968 230.402,340.702 230.082 C 340.436 229.762,340.271 229.000,340.336 228.390 C 340.400 227.779,340.260 227.161,340.026 227.016 C 339.792 226.871,339.600 226.259,339.600 225.656 C 339.600 225.053,339.425 224.385,339.211 224.171 C 338.997 223.957,338.772 223.156,338.711 222.391 C 338.650 221.626,338.510 220.910,338.400 220.800 C 337.881 220.281,337.186 218.744,337.580 218.988 C 337.822 219.137,337.655 218.611,337.210 217.818 C 336.764 217.025,336.400 216.036,336.400 215.621 C 336.400 215.206,336.216 214.805,335.992 214.731 C 335.767 214.656,335.542 214.011,335.492 213.298 C 335.441 212.585,335.265 212.001,335.100 212.001 C 334.935 212.000,334.800 211.764,334.800 211.475 C 334.800 211.186,334.440 210.205,334.000 209.294 C 333.560 208.384,333.200 207.450,333.200 207.219 C 333.200 206.989,333.050 206.800,332.867 206.800 C 332.683 206.800,332.526 206.575,332.518 206.300 C 332.485 205.283,332.182 204.583,331.500 203.953 C 331.115 203.597,330.800 203.012,330.800 202.653 C 330.800 202.294,330.620 202.000,330.400 202.000 C 330.180 202.000,330.000 201.550,330.000 201.000 C 330.000 200.450,329.820 200.000,329.600 200.000 C 329.380 200.000,329.200 199.655,329.200 199.233 C 329.200 198.812,329.012 198.404,328.782 198.327 C 328.552 198.251,328.334 197.786,328.297 197.294 C 328.260 196.802,328.088 196.400,327.915 196.400 C 327.742 196.400,327.600 196.029,327.600 195.576 C 327.600 195.123,327.420 194.864,327.200 195.000 C 326.980 195.136,326.800 194.967,326.800 194.624 C 326.800 194.281,326.642 194.000,326.449 194.000 C 326.255 194.000,325.857 193.415,325.563 192.700 C 325.270 191.985,324.885 191.220,324.709 191.000 C 323.691 189.729,322.400 187.483,322.400 186.982 C 322.400 186.662,322.220 186.400,322.000 186.400 C 321.780 186.400,321.600 186.161,321.600 185.870 C 321.600 185.578,321.156 184.922,320.612 184.412 C 320.069 183.901,319.737 183.302,319.874 183.080 C 320.011 182.858,319.951 182.783,319.741 182.913 C 319.530 183.043,318.920 182.441,318.384 181.575 C 317.849 180.709,317.274 180.000,317.106 180.000 C 316.938 180.000,316.800 179.629,316.800 179.176 C 316.800 178.723,316.620 178.464,316.400 178.600 C 316.180 178.736,316.000 178.556,316.000 178.200 C 316.000 177.844,315.847 177.647,315.660 177.763 C 315.473 177.878,315.070 177.484,314.763 176.886 C 314.456 176.289,313.889 175.509,313.503 175.153 C 313.116 174.797,312.800 174.342,312.800 174.142 C 312.800 173.942,312.305 173.322,311.700 172.764 C 311.095 172.206,309.970 170.970,309.200 170.018 C 307.687 168.145,301.600 161.827,301.600 162.129 C 301.600 162.231,300.722 161.441,299.650 160.374 C 298.577 159.307,297.612 158.521,297.506 158.628 C 297.399 158.734,296.827 158.187,296.235 157.411 C 295.644 156.635,294.965 156.000,294.727 156.000 C 294.489 156.000,294.003 155.684,293.647 155.297 C 293.291 154.911,292.511 154.344,291.914 154.037 C 291.316 153.730,290.922 153.327,291.037 153.140 C 291.153 152.953,290.967 152.800,290.624 152.800 C 290.281 152.800,290.000 152.620,290.000 152.400 C 290.000 152.180,289.775 151.999,289.500 151.998 C 289.225 151.997,288.377 151.412,287.615 150.698 C 286.853 149.984,286.073 149.400,285.882 149.400 C 285.692 149.400,285.323 149.109,285.063 148.754 C 284.803 148.398,283.645 147.613,282.490 147.009 C 281.335 146.405,280.218 145.616,280.007 145.255 C 279.797 144.895,279.619 144.739,279.612 144.908 C 279.596 145.322,276.839 143.887,275.639 142.839 C 275.110 142.378,274.435 142.000,274.139 142.000 C 273.842 142.000,273.600 141.851,273.600 141.669 C 273.600 141.487,273.060 141.418,272.399 141.515 C 271.523 141.643,270.032 141.124,266.899 139.598 C 262.534 137.472,256.236 134.854,252.859 133.761 C 251.837 133.430,250.640 133.001,250.200 132.806 C 248.202 131.923,244.450 130.800,243.497 130.800 C 242.920 130.800,242.348 130.640,242.227 130.444 C 242.106 130.249,241.421 129.992,240.704 129.873 C 239.987 129.755,238.590 129.455,237.600 129.207 C 230.795 127.503,224.279 126.485,217.200 126.019 C 214.450 125.838,210.220 125.558,207.800 125.398 C 205.380 125.237,203.284 125.228,203.141 125.378 M212.600 162.793 C 229.744 164.150,244.250 168.764,258.200 177.296 C 280.376 190.859,297.430 214.010,303.212 238.400 C 306.920 254.041,307.190 266.109,304.192 282.200 C 303.578 285.494,301.755 292.654,301.239 293.800 C 301.040 294.240,300.483 295.680,300.000 297.000 C 295.923 308.143,288.369 320.592,280.333 329.405 C 253.166 359.205,208.672 370.570,173.200 356.771 C 171.550 356.129,170.061 355.603,169.891 355.602 C 169.722 355.601,168.102 354.906,166.291 354.057 C 164.481 353.209,162.100 352.096,161.000 351.585 C 159.900 351.074,158.248 350.148,157.328 349.528 C 156.408 348.907,155.545 348.400,155.409 348.400 C 154.958 348.400,147.855 343.539,144.400 340.866 C 140.030 337.486,131.314 328.770,127.934 324.400 C 125.261 320.945,120.400 313.842,120.400 313.391 C 120.400 313.255,119.893 312.392,119.272 311.472 C 118.652 310.552,117.726 308.900,117.215 307.800 C 116.704 306.700,115.591 304.319,114.743 302.509 C 113.894 300.698,113.199 299.078,113.198 298.909 C 113.197 298.739,112.671 297.250,112.029 295.600 C 97.643 258.617,110.955 211.238,143.015 185.319 C 151.684 178.310,162.025 172.376,171.800 168.800 C 173.120 168.317,174.560 167.760,175.000 167.561 C 176.137 167.049,183.285 165.227,186.600 164.604 C 197.130 162.627,204.245 162.131,212.600 162.793 M196.695 188.211 C 167.032 192.531,141.571 214.292,134.345 241.500 C 134.155 242.215,133.818 243.475,133.596 244.300 C 123.182 283.003,148.470 325.471,187.600 334.990 C 197.123 337.307,203.745 337.939,211.344 337.256 C 216.481 336.795,221.493 336.013,224.500 335.204 C 225.325 334.982,226.585 334.645,227.300 334.455 C 229.667 333.826,236.557 331.121,239.307 329.742 C 276.507 311.071,291.696 266.488,273.423 229.600 C 271.503 225.726,268.229 220.072,267.631 219.600 C 267.492 219.490,266.351 218.023,265.097 216.340 C 262.195 212.448,256.634 206.887,252.564 203.806 C 250.824 202.489,249.310 201.300,249.200 201.163 C 248.716 200.563,243.044 197.282,239.200 195.377 C 231.034 191.333,225.008 189.562,214.123 188.010 C 210.315 187.467,201.074 187.574,196.695 188.211 " stroke="none" fill="#ebc35c" fill-rule="evenodd"></path><path id="path4" d="M204.691 125.089 C 205.401 125.177,206.661 125.179,207.491 125.092 C 208.321 125.005,207.740 124.933,206.200 124.931 C 204.660 124.929,203.981 125.000,204.691 125.089 M193.600 125.631 C 191.510 125.800,188.630 126.134,187.200 126.373 C 185.770 126.611,183.340 126.981,181.800 127.194 C 180.260 127.407,176.210 128.296,172.800 129.169 C 169.390 130.042,166.150 130.871,165.600 131.012 C 165.050 131.152,164.240 131.418,163.800 131.602 C 163.360 131.787,162.141 132.248,161.091 132.627 C 160.041 133.006,159.255 133.388,159.344 133.478 C 159.434 133.567,160.563 133.251,161.853 132.777 C 163.144 132.302,166.180 131.375,168.600 130.717 C 175.606 128.813,178.483 128.150,182.200 127.587 C 183.740 127.354,186.170 126.986,187.600 126.770 C 189.030 126.554,193.054 126.213,196.541 126.014 C 200.029 125.814,202.984 125.549,203.108 125.425 C 203.401 125.132,198.426 125.240,193.600 125.631 M211.400 125.618 C 212.500 125.790,215.290 125.917,217.600 125.900 L 221.800 125.871 218.000 125.580 C 215.910 125.420,213.120 125.293,211.800 125.298 L 209.400 125.307 211.400 125.618 M222.400 126.376 C 222.939 126.746,227.168 127.011,226.767 126.650 C 226.675 126.568,225.520 126.380,224.200 126.232 C 222.504 126.043,221.976 126.086,222.400 126.376 M227.800 127.200 C 228.240 127.389,229.140 127.538,229.800 127.532 C 230.970 127.521,230.975 127.512,230.000 127.200 C 228.533 126.730,226.706 126.730,227.800 127.200 M232.400 128.000 C 232.730 128.213,233.450 128.373,234.000 128.354 L 235.000 128.320 234.000 128.000 C 232.458 127.506,231.636 127.506,232.400 128.000 M239.200 129.582 C 239.530 129.805,240.145 129.991,240.567 129.994 C 241.590 130.002,241.271 129.773,239.800 129.444 C 238.924 129.248,238.762 129.285,239.200 129.582 M242.190 130.384 C 242.332 130.613,242.917 130.800,243.490 130.800 C 244.744 130.800,244.599 130.608,243.066 130.240 C 242.323 130.062,242.021 130.111,242.190 130.384 M247.400 131.812 C 249.473 132.558,250.194 132.540,248.454 131.784 C 247.714 131.463,246.814 131.208,246.454 131.218 C 246.094 131.227,246.520 131.495,247.400 131.812 M250.153 132.686 C 250.483 133.017,253.265 133.994,253.800 133.969 C 254.265 133.946,252.719 133.275,251.046 132.772 C 250.411 132.581,250.009 132.542,250.153 132.686 M155.800 134.466 C 152.371 135.841,149.202 137.336,149.367 137.501 C 149.454 137.588,150.075 137.375,150.745 137.028 C 151.416 136.681,153.503 135.841,155.383 135.161 C 157.262 134.481,158.800 133.851,158.800 133.762 C 158.800 133.437,157.756 133.682,155.800 134.466 M256.226 134.965 C 258.244 135.844,259.526 136.059,257.800 135.229 C 256.920 134.806,255.930 134.453,255.600 134.445 C 255.270 134.438,255.552 134.672,256.226 134.965 M259.654 136.187 C 259.990 136.523,262.800 137.616,262.800 137.411 C 262.800 137.301,262.148 136.938,261.351 136.605 C 259.875 135.989,259.318 135.851,259.654 136.187 M141.800 140.932 C 136.887 143.557,130.954 147.201,131.612 147.191 C 131.935 147.186,132.650 146.830,133.200 146.400 C 133.750 145.970,134.348 145.614,134.528 145.609 C 134.708 145.604,135.641 145.060,136.600 144.400 C 137.559 143.740,138.522 143.200,138.739 143.200 C 138.956 143.200,139.193 143.059,139.267 142.886 C 139.340 142.714,140.795 141.888,142.500 141.052 C 145.362 139.647,146.071 139.182,145.300 139.212 C 145.135 139.218,143.560 139.992,141.800 140.932 M199.200 162.831 C 191.369 163.494,178.401 166.028,175.000 167.561 C 174.560 167.760,173.120 168.320,171.800 168.807 C 166.921 170.605,162.885 172.483,163.468 172.684 C 163.726 172.773,164.806 172.415,165.868 171.889 C 166.931 171.363,168.880 170.528,170.200 170.034 C 171.520 169.540,172.913 168.970,173.295 168.768 C 173.677 168.566,174.264 168.400,174.600 168.400 C 174.936 168.400,175.523 168.242,175.905 168.049 C 177.061 167.465,179.404 166.800,180.305 166.800 C 180.771 166.800,181.264 166.620,181.400 166.400 C 181.536 166.180,182.231 166.000,182.944 166.000 C 183.657 166.000,184.411 165.838,184.620 165.641 C 184.829 165.444,185.810 165.169,186.800 165.031 C 187.790 164.893,189.770 164.597,191.200 164.373 C 194.023 163.931,203.619 163.135,206.200 163.128 C 210.040 163.118,218.269 163.683,219.000 164.007 C 219.440 164.202,220.700 164.455,221.800 164.570 C 226.276 165.037,227.818 165.295,228.180 165.639 C 228.389 165.837,229.053 166.000,229.656 166.000 C 230.259 166.000,230.864 166.180,231.000 166.400 C 231.136 166.620,231.779 166.800,232.429 166.800 C 233.079 166.800,233.923 166.957,234.305 167.150 C 234.687 167.342,236.350 167.956,238.000 168.514 C 243.643 170.420,245.686 171.238,249.941 173.293 C 252.284 174.425,254.290 175.451,254.400 175.575 C 254.744 175.962,256.966 177.239,257.700 177.471 C 258.085 177.593,258.400 177.852,258.400 178.047 C 258.400 178.241,258.593 178.400,258.828 178.400 C 259.215 178.400,262.064 180.226,263.591 181.453 C 263.926 181.722,265.460 182.889,267.000 184.045 C 268.540 185.202,270.070 186.432,270.400 186.779 C 270.730 187.126,272.170 188.397,273.600 189.605 C 276.772 192.283,276.517 192.028,279.195 195.200 C 280.403 196.630,281.674 198.070,282.021 198.400 C 282.368 198.730,283.598 200.260,284.755 201.800 C 285.911 203.340,287.078 204.874,287.347 205.209 C 288.574 206.736,290.400 209.585,290.400 209.972 C 290.400 210.207,290.559 210.400,290.753 210.400 C 290.948 210.400,291.207 210.715,291.329 211.100 C 291.561 211.834,292.838 214.056,293.225 214.400 C 293.349 214.510,294.375 216.516,295.507 218.859 C 297.562 223.114,298.380 225.157,300.286 230.800 C 300.844 232.450,301.458 234.113,301.650 234.495 C 301.843 234.877,302.000 235.721,302.000 236.371 C 302.000 237.021,302.180 237.664,302.400 237.800 C 302.620 237.936,302.800 238.541,302.800 239.144 C 302.800 239.747,302.963 240.411,303.161 240.620 C 303.505 240.982,303.763 242.524,304.230 247.000 C 304.345 248.100,304.598 249.360,304.793 249.800 C 305.117 250.531,305.682 258.760,305.672 262.600 C 305.665 265.181,304.869 274.777,304.427 277.600 C 304.203 279.030,303.907 281.010,303.769 282.000 C 303.631 282.990,303.356 283.971,303.159 284.180 C 302.962 284.389,302.800 285.143,302.800 285.856 C 302.800 286.569,302.620 287.264,302.400 287.400 C 302.180 287.536,302.000 288.029,302.000 288.495 C 302.000 289.396,301.335 291.739,300.751 292.895 C 300.558 293.277,300.400 293.864,300.400 294.200 C 300.400 294.536,300.234 295.123,300.032 295.505 C 299.830 295.887,299.260 297.280,298.766 298.600 C 298.272 299.920,297.437 301.869,296.911 302.932 C 296.385 303.994,296.027 305.074,296.116 305.332 C 296.317 305.915,298.195 301.879,299.993 297.000 C 300.480 295.680,301.040 294.240,301.239 293.800 C 301.755 292.654,303.578 285.494,304.192 282.200 C 307.190 266.109,306.920 254.041,303.212 238.400 C 297.430 214.010,280.376 190.859,258.200 177.296 C 240.432 166.429,218.945 161.161,199.200 162.831 M159.382 174.347 C 139.364 185.261,123.823 202.065,114.666 222.698 C 111.741 229.286,108.901 238.479,110.000 237.800 C 110.220 237.664,110.400 237.034,110.400 236.400 C 110.400 235.766,110.580 235.136,110.800 235.000 C 111.020 234.864,111.200 234.234,111.200 233.600 C 111.200 232.966,111.380 232.336,111.600 232.200 C 111.820 232.064,112.000 231.513,112.000 230.976 C 112.000 230.439,112.180 230.000,112.400 230.000 C 112.620 230.000,112.800 229.638,112.800 229.195 C 112.800 228.752,112.959 228.077,113.153 227.695 C 113.348 227.313,113.729 226.460,114.000 225.800 C 114.271 225.140,114.652 224.287,114.847 223.905 C 115.041 223.523,115.200 222.938,115.200 222.605 C 115.200 222.272,115.336 222.000,115.502 222.000 C 115.669 222.000,116.042 221.415,116.332 220.700 C 117.142 218.702,120.026 213.073,120.584 212.400 C 120.857 212.070,121.513 210.990,122.041 210.000 C 122.568 209.010,123.090 208.110,123.200 208.000 C 123.310 207.890,124.021 206.900,124.779 205.800 C 125.538 204.700,126.267 203.710,126.399 203.600 C 126.531 203.490,127.071 202.770,127.600 202.000 C 128.129 201.230,128.660 200.510,128.781 200.400 C 128.902 200.290,130.171 198.851,131.600 197.203 C 134.594 193.752,136.761 191.578,140.574 188.200 C 142.064 186.880,143.489 185.614,143.742 185.387 C 143.994 185.160,144.830 184.536,145.600 184.000 C 146.370 183.464,147.232 182.802,147.515 182.527 C 147.798 182.253,148.563 181.713,149.215 181.328 C 149.867 180.943,150.400 180.486,150.400 180.314 C 150.400 180.141,150.670 180.000,151.000 180.000 C 151.330 180.000,151.600 179.841,151.600 179.647 C 151.600 179.452,151.915 179.193,152.300 179.071 C 153.209 178.783,155.153 177.588,156.158 176.700 C 156.594 176.315,157.187 176.000,157.475 176.000 C 157.764 176.000,158.000 175.820,158.000 175.600 C 158.000 175.380,158.360 175.200,158.800 175.200 C 159.240 175.200,159.600 175.062,159.600 174.894 C 159.600 174.726,160.320 174.277,161.200 173.896 C 162.676 173.256,163.229 172.792,162.500 172.806 C 162.335 172.809,160.932 173.503,159.382 174.347 M197.000 187.593 C 196.560 187.786,195.266 187.956,194.124 187.972 C 192.982 187.987,191.936 188.180,191.800 188.400 C 191.664 188.620,190.944 188.800,190.200 188.800 C 189.456 188.800,188.736 188.980,188.600 189.200 C 188.464 189.420,187.744 189.600,187.000 189.600 C 186.256 189.600,185.536 189.780,185.400 190.000 C 185.264 190.220,184.623 190.400,183.976 190.400 C 183.329 190.400,182.800 190.580,182.800 190.800 C 182.800 191.020,182.438 191.200,181.995 191.200 C 181.552 191.200,180.832 191.380,180.395 191.600 C 179.958 191.820,179.242 192.180,178.805 192.400 C 178.368 192.620,177.648 192.800,177.205 192.800 C 176.762 192.800,176.400 192.980,176.400 193.200 C 176.400 193.420,176.040 193.600,175.600 193.600 C 175.160 193.600,174.800 193.780,174.800 194.000 C 174.800 194.220,174.440 194.400,174.000 194.400 C 173.560 194.400,173.200 194.580,173.200 194.800 C 173.200 195.020,172.935 195.200,172.612 195.200 C 171.584 195.200,161.953 201.077,160.800 202.408 C 160.690 202.535,159.970 203.070,159.200 203.597 C 157.070 205.055,148.844 213.465,146.676 216.400 C 145.620 217.830,144.495 219.317,144.178 219.705 C 143.860 220.092,143.600 220.587,143.600 220.805 C 143.600 221.022,143.464 221.200,143.298 221.200 C 143.131 221.200,142.736 221.785,142.420 222.500 C 142.103 223.215,141.520 224.149,141.122 224.575 C 140.725 225.002,140.400 225.587,140.400 225.875 C 140.400 226.164,140.220 226.400,140.000 226.400 C 139.780 226.400,139.600 226.760,139.600 227.200 C 139.600 227.640,139.420 228.000,139.200 228.000 C 138.980 228.000,138.800 228.360,138.800 228.800 C 138.800 229.240,138.620 229.600,138.400 229.600 C 138.180 229.600,138.000 229.853,138.000 230.162 C 138.000 230.471,137.614 231.506,137.143 232.462 C 136.241 234.292,135.980 234.928,135.200 237.200 C 134.936 237.970,134.578 238.960,134.405 239.400 C 134.002 240.426,132.941 244.447,132.030 248.400 C 129.587 259.000,131.301 279.939,135.247 287.695 C 135.441 288.077,135.600 288.664,135.600 289.000 C 135.600 289.336,135.762 289.923,135.960 290.305 C 136.158 290.687,137.280 292.980,138.455 295.400 C 139.629 297.820,140.727 299.860,140.895 299.933 C 141.063 300.007,141.200 300.322,141.200 300.633 C 141.200 300.945,141.380 301.200,141.600 301.200 C 141.820 301.200,142.000 301.470,142.000 301.800 C 142.000 302.130,142.180 302.400,142.400 302.400 C 142.620 302.400,142.800 302.593,142.800 302.828 C 142.800 303.287,145.002 306.634,145.916 307.564 C 146.221 307.874,146.894 308.799,147.412 309.620 C 148.634 311.554,157.246 320.166,159.180 321.388 C 160.001 321.906,160.926 322.579,161.236 322.884 C 162.166 323.798,165.513 326.000,165.972 326.000 C 166.207 326.000,166.400 326.180,166.400 326.400 C 166.400 326.620,166.670 326.800,167.000 326.800 C 167.330 326.800,167.600 326.980,167.600 327.200 C 167.600 327.420,167.855 327.600,168.167 327.600 C 168.478 327.600,168.793 327.737,168.867 327.905 C 168.940 328.073,170.980 329.171,173.400 330.345 C 175.820 331.520,178.113 332.642,178.495 332.840 C 178.877 333.038,179.464 333.200,179.800 333.200 C 180.136 333.200,180.723 333.359,181.105 333.553 C 188.861 337.499,209.800 339.213,220.400 336.770 C 224.699 335.779,228.284 334.833,229.400 334.395 C 229.840 334.222,230.830 333.864,231.600 333.600 C 233.872 332.820,234.508 332.559,236.338 331.657 C 237.294 331.186,238.329 330.800,238.638 330.800 C 238.947 330.800,239.200 330.620,239.200 330.400 C 239.200 330.180,239.560 330.000,240.000 330.000 C 240.440 330.000,240.800 329.820,240.800 329.600 C 240.800 329.380,241.160 329.200,241.600 329.200 C 242.040 329.200,242.400 329.020,242.400 328.800 C 242.400 328.580,242.636 328.400,242.925 328.400 C 243.213 328.400,243.798 328.075,244.225 327.678 C 244.651 327.280,245.585 326.697,246.300 326.380 C 247.015 326.064,247.600 325.669,247.600 325.502 C 247.600 325.336,247.778 325.200,247.995 325.200 C 248.213 325.200,248.708 324.940,249.095 324.622 C 249.483 324.305,250.970 323.180,252.400 322.124 C 255.335 319.956,263.745 311.730,265.203 309.600 C 265.730 308.830,266.265 308.110,266.392 308.000 C 267.723 306.847,273.600 297.216,273.600 296.188 C 273.600 295.865,273.780 295.600,274.000 295.600 C 274.220 295.600,274.400 295.366,274.400 295.080 C 274.400 294.344,275.341 292.407,275.700 292.403 C 275.865 292.401,276.000 292.038,276.000 291.595 C 276.000 291.152,276.180 290.432,276.400 289.995 C 276.620 289.558,276.980 288.842,277.200 288.405 C 277.420 287.968,277.600 287.248,277.600 286.805 C 277.600 286.362,277.780 286.000,278.000 286.000 C 278.220 286.000,278.400 285.471,278.400 284.824 C 278.400 284.177,278.580 283.536,278.800 283.400 C 279.020 283.264,279.200 282.544,279.200 281.800 C 279.200 281.056,279.380 280.336,279.600 280.200 C 279.820 280.064,280.000 279.369,280.000 278.656 C 280.000 277.943,280.160 277.189,280.357 276.980 C 281.345 275.926,281.731 255.925,280.861 250.800 C 280.618 249.370,280.306 247.434,280.168 246.497 C 280.029 245.561,279.755 244.695,279.558 244.574 C 279.361 244.452,279.200 243.834,279.200 243.200 C 279.200 242.566,279.020 241.936,278.800 241.800 C 278.580 241.664,278.400 241.111,278.400 240.571 C 278.400 239.625,278.272 239.259,277.262 237.305 C 277.008 236.813,276.800 236.048,276.800 235.605 C 276.800 235.162,276.620 234.800,276.400 234.800 C 276.180 234.800,276.000 234.350,276.000 233.800 C 276.000 233.250,275.820 232.800,275.600 232.800 C 275.380 232.800,275.200 232.555,275.200 232.255 C 275.200 231.298,268.904 219.816,268.042 219.200 C 267.887 219.090,267.326 218.370,266.794 217.600 C 266.262 216.830,265.640 215.989,265.413 215.732 C 265.186 215.474,264.010 214.133,262.800 212.752 C 260.053 209.615,259.185 208.747,256.048 206.000 C 254.667 204.790,253.326 203.614,253.068 203.387 C 252.811 203.160,251.970 202.538,251.200 202.006 C 250.430 201.474,249.710 200.913,249.600 200.758 C 248.984 199.896,237.502 193.600,236.545 193.600 C 236.245 193.600,236.000 193.420,236.000 193.200 C 236.000 192.980,235.550 192.800,235.000 192.800 C 234.450 192.800,234.000 192.620,234.000 192.400 C 234.000 192.180,233.638 192.000,233.195 192.000 C 232.752 192.000,231.987 191.792,231.495 191.538 C 229.541 190.528,229.175 190.400,228.229 190.400 C 227.689 190.400,227.136 190.220,227.000 190.000 C 226.864 189.780,226.234 189.600,225.600 189.600 C 224.966 189.600,224.348 189.439,224.226 189.242 C 224.105 189.045,223.239 188.771,222.303 188.632 C 221.366 188.494,219.430 188.185,218.000 187.946 C 214.733 187.400,198.076 187.120,197.000 187.593 M214.123 188.010 C 225.008 189.562,231.034 191.333,239.200 195.377 C 243.044 197.282,248.716 200.563,249.200 201.163 C 249.310 201.300,250.824 202.489,252.564 203.806 C 256.634 206.887,262.195 212.448,265.097 216.340 C 266.351 218.023,267.492 219.490,267.631 219.600 C 268.229 220.072,271.503 225.726,273.423 229.600 C 281.339 245.582,283.243 263.077,278.951 280.400 C 272.617 305.964,251.545 328.016,227.300 334.455 C 226.585 334.645,225.325 334.982,224.500 335.204 C 185.797 345.618,143.329 320.330,133.810 281.200 C 131.493 271.677,130.861 265.055,131.544 257.456 C 132.005 252.319,132.787 247.307,133.596 244.300 C 133.818 243.475,134.155 242.215,134.345 241.500 C 143.173 208.258,180.518 183.219,214.123 188.010 M108.688 241.079 C 107.901 244.371,107.776 246.166,108.400 245.200 C 108.613 244.870,108.791 243.871,108.794 242.980 C 108.797 242.089,108.994 241.166,109.231 240.929 C 109.468 240.692,109.598 239.981,109.520 239.349 C 109.410 238.470,109.215 238.876,108.688 241.079 M107.504 247.400 C 107.054 249.840,107.114 251.189,107.634 250.297 C 107.859 249.910,107.989 248.740,107.922 247.697 L 107.800 245.800 107.504 247.400 M106.659 254.260 C 106.334 258.105,106.397 268.621,106.764 271.800 C 106.921 273.157,107.056 269.204,107.075 262.700 C 107.111 250.423,107.064 249.466,106.659 254.260 M107.229 275.200 C 107.238 275.750,107.395 276.920,107.577 277.800 L 107.908 279.400 107.948 277.400 C 107.970 276.300,107.813 275.130,107.600 274.800 C 107.294 274.327,107.216 274.411,107.229 275.200 M108.046 280.600 C 108.106 282.732,108.714 284.105,108.754 282.200 C 108.773 281.320,108.613 280.330,108.400 280.000 C 108.105 279.543,108.020 279.686,108.046 280.600 M108.803 284.276 C 108.810 285.214,111.274 293.799,112.166 295.993 C 112.735 297.393,113.200 298.691,113.200 298.878 C 113.200 299.064,113.894 300.698,114.743 302.509 C 115.591 304.319,116.704 306.700,117.215 307.800 C 117.726 308.900,118.652 310.552,119.272 311.472 C 119.893 312.392,120.400 313.255,120.400 313.391 C 120.400 313.842,125.261 320.945,127.934 324.400 C 131.314 328.770,140.030 337.486,144.400 340.866 C 147.855 343.539,154.958 348.400,155.409 348.400 C 155.545 348.400,156.408 348.907,157.328 349.528 C 158.248 350.148,159.900 351.074,161.000 351.585 C 162.100 352.096,164.481 353.209,166.291 354.057 C 168.102 354.906,169.736 355.600,169.922 355.600 C 170.109 355.600,171.407 356.065,172.807 356.634 C 176.977 358.328,185.072 360.364,184.600 359.600 C 184.464 359.380,183.834 359.200,183.200 359.200 C 182.566 359.200,181.936 359.020,181.800 358.800 C 181.664 358.580,180.944 358.400,180.200 358.400 C 179.456 358.400,178.736 358.220,178.600 358.000 C 178.464 357.780,177.911 357.600,177.371 357.600 C 176.831 357.600,176.077 357.441,175.695 357.247 C 174.760 356.771,173.293 356.182,171.600 355.600 C 169.456 354.864,168.927 354.635,164.200 352.394 C 159.608 350.218,150.129 344.753,148.802 343.516 C 148.379 343.122,147.926 342.800,147.795 342.800 C 147.664 342.800,146.981 342.261,146.278 341.602 C 145.575 340.943,144.868 340.403,144.707 340.402 C 143.764 340.396,128.404 325.036,128.398 324.093 C 128.397 323.932,127.857 323.225,127.198 322.522 C 126.539 321.819,126.000 321.136,126.000 321.005 C 126.000 320.874,125.685 320.427,125.300 320.012 C 124.069 318.686,118.567 309.149,116.408 304.600 C 114.166 299.876,113.937 299.346,113.200 297.200 C 112.618 295.507,112.029 294.040,111.553 293.105 C 111.359 292.723,111.200 291.969,111.200 291.429 C 111.200 290.889,111.020 290.336,110.800 290.200 C 110.580 290.064,110.400 289.344,110.400 288.600 C 110.400 287.856,110.220 287.136,110.000 287.000 C 109.780 286.864,109.600 286.234,109.600 285.600 C 109.600 284.966,109.420 284.336,109.200 284.200 C 108.980 284.064,108.801 284.098,108.803 284.276 M294.955 307.468 C 294.563 308.310,294.075 309.114,293.872 309.254 C 293.669 309.393,293.586 309.753,293.689 310.054 C 293.794 310.362,294.351 309.666,294.965 308.460 C 295.564 307.283,295.967 306.234,295.861 306.128 C 295.755 306.022,295.347 306.625,294.955 307.468 M292.800 311.325 C 292.800 311.613,292.485 312.206,292.100 312.642 C 291.212 313.647,290.017 315.591,289.729 316.500 C 289.607 316.885,289.348 317.200,289.153 317.200 C 288.959 317.200,288.800 317.470,288.800 317.800 C 288.800 318.130,288.659 318.400,288.486 318.400 C 288.314 318.400,287.857 318.933,287.472 319.585 C 287.087 320.237,286.547 321.002,286.273 321.285 C 285.998 321.568,285.336 322.430,284.800 323.200 C 284.264 323.970,283.640 324.806,283.413 325.058 C 283.186 325.311,281.920 326.736,280.600 328.226 C 277.222 332.039,275.048 334.206,271.597 337.200 C 269.949 338.629,268.510 339.898,268.400 340.019 C 268.290 340.140,267.570 340.671,266.800 341.200 C 266.030 341.729,265.310 342.269,265.200 342.401 C 265.090 342.533,264.100 343.262,263.000 344.021 C 261.900 344.779,260.910 345.490,260.800 345.600 C 260.690 345.710,259.790 346.232,258.800 346.759 C 257.810 347.287,256.730 347.943,256.400 348.216 C 255.727 348.774,250.098 351.658,248.100 352.468 C 247.385 352.758,246.800 353.131,246.800 353.298 C 246.800 353.464,246.528 353.600,246.195 353.600 C 245.862 353.600,245.277 353.759,244.895 353.953 C 244.513 354.148,243.660 354.529,243.000 354.800 C 242.340 355.071,241.487 355.452,241.105 355.647 C 240.723 355.841,240.048 356.000,239.605 356.000 C 239.162 356.000,238.800 356.180,238.800 356.400 C 238.800 356.620,238.361 356.800,237.824 356.800 C 237.287 356.800,236.736 356.980,236.600 357.200 C 236.464 357.420,235.834 357.600,235.200 357.600 C 234.566 357.600,233.936 357.780,233.800 358.000 C 233.664 358.220,233.034 358.400,232.400 358.400 C 231.766 358.400,231.136 358.580,231.000 358.800 C 230.667 359.339,230.952 359.307,234.200 358.434 C 250.496 354.053,267.774 343.182,280.333 329.405 C 285.619 323.608,294.486 310.800,293.214 310.800 C 292.986 310.800,292.800 311.036,292.800 311.325 M227.800 359.600 C 227.664 359.820,226.798 360.003,225.876 360.006 C 224.954 360.009,223.930 360.204,223.600 360.437 C 222.793 361.009,226.414 360.592,228.826 359.836 C 230.528 359.302,230.548 359.277,229.324 359.240 C 228.622 359.218,227.936 359.380,227.800 359.600 M186.000 360.400 C 187.516 360.886,189.551 360.886,188.800 360.400 C 188.470 360.187,187.480 360.027,186.600 360.046 C 185.212 360.075,185.132 360.122,186.000 360.400 M191.000 361.223 C 193.328 361.704,194.764 361.693,194.000 361.200 C 193.670 360.987,192.500 360.830,191.400 360.852 L 189.400 360.892 191.000 361.223 M218.400 361.200 C 217.668 361.673,219.941 361.673,221.800 361.200 C 222.844 360.934,222.740 360.889,221.000 360.853 C 219.900 360.831,218.730 360.987,218.400 361.200 M197.000 362.036 C 200.094 362.393,212.287 362.395,215.400 362.038 C 216.720 361.887,212.580 361.762,206.200 361.761 C 199.820 361.760,195.680 361.884,197.000 362.036 " stroke="none" fill="#dcb654" fill-rule="evenodd"></path></g></svg>