<svg id="svg" version="1.1" xmlns="http://www.w3.org/2000/svg" xmlns:xlink="http://www.w3.org/1999/xlink" width="400" height="400" viewBox="0, 0, 400,400"><g id="svgg"><path id="path0" d="M156.616 26.374 C 156.471 26.608,155.553 26.800,154.576 26.800 C 153.599 26.800,152.800 26.980,152.800 27.200 C 152.800 27.420,152.181 27.600,151.424 27.600 C 150.667 27.600,149.936 27.780,149.800 28.000 C 149.664 28.220,149.203 28.400,148.776 28.400 C 148.349 28.400,148.000 28.580,148.000 28.800 C 148.000 29.020,147.638 29.200,147.195 29.200 C 146.477 29.200,144.938 29.861,144.400 30.401 C 144.290 30.511,143.705 30.856,143.100 31.168 C 142.495 31.480,142.000 31.885,142.000 32.068 C 142.000 32.250,141.680 32.400,141.288 32.400 C 140.897 32.400,140.317 32.760,140.000 33.200 C 139.683 33.640,139.209 34.000,138.947 34.000 C 138.684 34.000,137.373 35.080,136.032 36.400 C 134.692 37.720,133.437 38.800,133.245 38.800 C 133.053 38.800,131.299 40.526,129.348 42.635 C 127.396 44.745,125.035 47.260,124.100 48.225 C 123.165 49.190,122.400 50.157,122.400 50.374 C 122.400 50.985,114.841 58.400,114.218 58.400 C 113.915 58.400,113.607 58.535,113.533 58.700 C 113.346 59.122,110.454 60.949,108.900 61.628 C 108.185 61.940,107.600 62.331,107.600 62.498 C 107.600 62.664,107.240 62.800,106.800 62.800 C 106.360 62.800,106.000 62.980,106.000 63.200 C 106.000 63.420,105.728 63.600,105.395 63.600 C 105.062 63.600,104.432 63.780,103.995 64.000 C 103.558 64.220,102.842 64.580,102.405 64.800 C 101.968 65.020,101.338 65.200,101.005 65.200 C 100.672 65.200,100.400 65.380,100.400 65.600 C 100.400 65.820,100.040 66.000,99.600 66.000 C 99.160 66.000,98.800 66.180,98.800 66.400 C 98.800 66.620,98.350 66.800,97.800 66.800 C 97.250 66.800,96.800 66.980,96.800 67.200 C 96.800 67.420,96.451 67.600,96.024 67.600 C 95.597 67.600,95.136 67.780,95.000 68.000 C 94.864 68.220,94.403 68.400,93.976 68.400 C 93.549 68.400,93.200 68.580,93.200 68.800 C 93.200 69.020,92.930 69.200,92.600 69.200 C 92.270 69.200,92.000 69.380,92.000 69.600 C 92.000 69.820,91.561 70.000,91.024 70.000 C 90.487 70.000,89.936 70.180,89.800 70.400 C 89.664 70.620,89.203 70.800,88.776 70.800 C 88.349 70.800,88.000 70.980,88.000 71.200 C 88.000 71.420,87.764 71.600,87.475 71.600 C 87.187 71.600,86.564 71.960,86.092 72.400 C 85.620 72.840,84.956 73.200,84.617 73.200 C 84.278 73.200,84.000 73.380,84.000 73.600 C 84.000 73.820,83.640 74.000,83.200 74.000 C 82.760 74.000,82.400 74.158,82.400 74.350 C 82.400 74.543,81.891 74.948,81.268 75.250 C 79.152 76.278,73.200 81.490,73.200 82.315 C 73.200 82.516,72.705 83.206,72.100 83.848 C 71.495 84.489,70.745 85.506,70.432 86.107 C 70.120 86.708,69.715 87.200,69.532 87.200 C 69.350 87.200,69.200 87.560,69.200 88.000 C 69.200 88.440,69.020 88.800,68.800 88.800 C 68.580 88.800,68.400 89.160,68.400 89.600 C 68.400 90.040,68.220 90.400,68.000 90.400 C 67.780 90.400,67.600 90.760,67.600 91.200 C 67.600 91.640,67.420 92.000,67.200 92.000 C 66.980 92.000,66.800 92.360,66.800 92.800 C 66.800 93.240,66.620 93.600,66.400 93.600 C 66.180 93.600,66.000 94.039,66.000 94.576 C 66.000 95.113,65.820 95.664,65.600 95.800 C 65.380 95.936,65.200 96.566,65.200 97.200 C 65.200 97.834,65.020 98.464,64.800 98.600 C 64.580 98.736,64.400 99.456,64.400 100.200 C 64.400 100.944,64.220 101.664,64.000 101.800 C 63.780 101.936,63.600 102.937,63.600 104.024 C 63.600 105.111,63.420 106.000,63.200 106.000 C 62.972 106.000,62.800 107.192,62.800 108.776 C 62.800 110.303,62.620 111.664,62.400 111.800 C 62.180 111.936,62.000 113.657,62.000 115.624 C 62.000 117.741,61.837 119.200,61.600 119.200 C 61.369 119.200,61.200 120.459,61.200 122.176 C 61.200 123.813,61.020 125.264,60.800 125.400 C 60.580 125.536,60.400 126.436,60.400 127.400 C 60.400 128.364,60.220 129.264,60.000 129.400 C 59.780 129.536,59.600 130.017,59.600 130.470 C 59.600 131.497,58.305 135.353,57.900 135.533 C 57.735 135.607,57.600 136.012,57.600 136.433 C 57.600 136.855,57.420 137.200,57.200 137.200 C 56.980 137.200,56.800 137.560,56.800 138.000 C 56.800 138.440,56.620 138.800,56.400 138.800 C 56.180 138.800,56.000 139.160,56.000 139.600 C 56.000 140.040,55.820 140.400,55.600 140.400 C 55.380 140.400,55.200 140.720,55.200 141.112 C 55.200 141.503,54.840 142.083,54.400 142.400 C 53.960 142.717,53.600 143.207,53.600 143.488 C 53.600 143.770,53.420 144.000,53.200 144.000 C 52.980 144.000,52.800 144.320,52.800 144.712 C 52.800 145.103,52.440 145.683,52.000 146.000 C 51.560 146.317,51.200 146.814,51.200 147.105 C 51.200 147.396,50.840 148.020,50.400 148.492 C 49.960 148.964,49.600 149.587,49.600 149.875 C 49.600 150.164,49.420 150.400,49.200 150.400 C 48.980 150.400,48.800 150.760,48.800 151.200 C 48.800 151.640,48.620 152.000,48.400 152.000 C 48.180 152.000,48.000 152.360,48.000 152.800 C 48.000 153.240,47.820 153.600,47.600 153.600 C 47.380 153.600,47.200 153.960,47.200 154.400 C 47.200 154.840,47.020 155.200,46.800 155.200 C 46.580 155.200,46.400 155.560,46.400 156.000 C 46.400 156.440,46.220 156.800,46.000 156.800 C 45.780 156.800,45.600 157.160,45.600 157.600 C 45.600 158.040,45.420 158.400,45.200 158.400 C 44.980 158.400,44.800 158.672,44.800 159.005 C 44.800 159.338,44.620 159.968,44.400 160.405 C 44.180 160.842,43.820 161.558,43.600 161.995 C 43.380 162.432,43.200 163.116,43.200 163.515 C 43.200 163.914,43.044 164.411,42.854 164.620 C 41.188 166.448,40.725 182.256,42.164 188.200 C 42.536 189.740,42.942 191.495,43.066 192.100 C 43.190 192.705,43.450 193.200,43.645 193.200 C 43.840 193.200,44.000 193.639,44.000 194.176 C 44.000 194.713,44.180 195.264,44.400 195.400 C 44.620 195.536,44.800 195.997,44.800 196.424 C 44.800 196.851,44.980 197.200,45.200 197.200 C 45.420 197.200,45.600 197.560,45.600 198.000 C 45.600 198.440,45.780 198.800,46.000 198.800 C 46.220 198.800,46.400 199.160,46.400 199.600 C 46.400 200.040,46.580 200.400,46.800 200.400 C 47.020 200.400,47.200 200.760,47.200 201.200 C 47.200 201.640,47.380 202.000,47.600 202.000 C 47.820 202.000,48.000 202.360,48.000 202.800 C 48.000 203.240,48.180 203.600,48.400 203.600 C 48.620 203.600,48.800 203.793,48.800 204.028 C 48.800 204.263,49.340 205.241,50.000 206.200 C 50.660 207.159,51.200 208.097,51.200 208.284 C 51.200 208.471,51.560 208.883,52.000 209.200 C 52.440 209.517,52.800 210.097,52.800 210.488 C 52.800 210.880,52.980 211.200,53.200 211.200 C 53.420 211.200,53.600 211.520,53.600 211.912 C 53.600 212.303,53.960 212.883,54.400 213.200 C 54.840 213.517,55.200 214.097,55.200 214.488 C 55.200 214.880,55.380 215.200,55.600 215.200 C 55.820 215.200,56.000 215.560,56.000 216.000 C 56.000 216.440,56.180 216.800,56.400 216.800 C 56.620 216.800,56.800 217.160,56.800 217.600 C 56.800 218.040,56.980 218.400,57.200 218.400 C 57.420 218.400,57.600 218.760,57.600 219.200 C 57.600 219.640,57.735 220.002,57.900 220.003 C 58.065 220.005,58.528 221.130,58.929 222.503 C 59.330 223.877,59.825 225.313,60.029 225.695 C 60.233 226.077,60.400 226.651,60.400 226.971 C 60.400 227.292,46.855 241.098,30.300 257.652 L 0.200 287.751 0.200 293.942 C 0.200 298.539,0.329 300.176,0.700 300.300 C 0.975 300.392,1.200 300.686,1.200 300.955 C 1.200 301.705,3.824 304.400,4.554 304.400 C 4.909 304.400,5.200 304.580,5.200 304.800 C 5.200 305.020,5.560 305.200,6.000 305.200 C 6.440 305.200,6.800 305.380,6.800 305.600 C 6.800 305.820,7.046 306.000,7.347 306.000 C 7.870 306.000,11.529 307.329,12.815 307.987 C 13.154 308.160,14.188 308.429,15.113 308.585 C 16.039 308.742,16.897 309.034,17.022 309.235 C 17.146 309.436,17.687 309.600,18.224 309.600 C 18.761 309.600,19.200 309.780,19.200 310.000 C 19.200 310.220,19.740 310.400,20.400 310.400 C 21.060 310.400,21.600 310.580,21.600 310.800 C 21.600 311.020,22.140 311.200,22.800 311.200 C 23.460 311.200,24.000 311.380,24.000 311.600 C 24.000 311.820,24.450 312.000,25.000 312.000 C 25.550 312.000,26.000 312.180,26.000 312.400 C 26.000 312.620,26.540 312.800,27.200 312.800 C 27.860 312.800,28.400 312.980,28.400 313.200 C 28.400 313.420,28.850 313.600,29.400 313.600 C 29.950 313.600,30.400 313.780,30.400 314.000 C 30.400 314.220,30.850 314.400,31.400 314.400 C 31.950 314.400,32.400 314.580,32.400 314.800 C 32.400 315.020,32.940 315.200,33.600 315.200 C 34.260 315.200,34.800 315.380,34.800 315.600 C 34.800 315.820,35.340 316.000,36.000 316.000 C 36.660 316.000,37.200 316.180,37.200 316.400 C 37.200 316.620,37.740 316.800,38.400 316.800 C 39.060 316.800,39.600 316.947,39.600 317.128 C 39.600 317.308,40.500 317.700,41.600 318.000 C 42.700 318.300,43.600 318.692,43.600 318.872 C 43.600 319.053,44.039 319.200,44.576 319.200 C 45.113 319.200,45.664 319.380,45.800 319.600 C 45.936 319.820,46.487 320.000,47.024 320.000 C 47.561 320.000,48.000 320.180,48.000 320.400 C 48.000 320.620,48.540 320.800,49.200 320.800 C 49.860 320.800,50.400 320.980,50.400 321.200 C 50.400 321.420,50.760 321.600,51.200 321.600 C 51.782 321.600,52.000 321.867,52.000 322.576 C 52.000 323.113,52.180 323.664,52.400 323.800 C 52.620 323.936,52.800 324.487,52.800 325.024 C 52.800 325.561,52.980 326.000,53.200 326.000 C 53.420 326.000,53.600 326.540,53.600 327.200 C 53.600 327.860,53.780 328.400,54.000 328.400 C 54.220 328.400,54.400 328.839,54.400 329.376 C 54.400 329.913,54.580 330.464,54.800 330.600 C 55.020 330.736,55.200 331.197,55.200 331.624 C 55.200 332.051,55.380 332.400,55.600 332.400 C 55.820 332.400,56.000 332.940,56.000 333.600 C 56.000 334.260,56.180 334.800,56.400 334.800 C 56.620 334.800,56.800 335.340,56.800 336.000 C 56.800 336.660,56.980 337.200,57.200 337.200 C 57.420 337.200,57.600 337.639,57.600 338.176 C 57.600 338.713,57.780 339.264,58.000 339.400 C 58.220 339.536,58.401 340.042,58.402 340.524 C 58.404 341.006,58.674 341.916,59.002 342.546 C 59.331 343.176,59.600 344.121,59.600 344.646 C 59.600 345.171,59.780 345.600,60.000 345.600 C 60.220 345.600,60.400 346.039,60.400 346.576 C 60.400 347.113,60.580 347.664,60.800 347.800 C 61.020 347.936,61.200 348.476,61.200 349.000 C 61.200 349.524,61.344 350.042,61.521 350.151 C 61.697 350.260,62.090 351.261,62.393 352.375 C 62.696 353.489,63.092 354.400,63.272 354.400 C 63.453 354.400,63.600 354.839,63.600 355.376 C 63.600 355.913,63.780 356.464,64.000 356.600 C 64.220 356.736,64.400 357.287,64.400 357.824 C 64.400 358.361,64.580 358.800,64.800 358.800 C 65.020 358.800,65.200 359.340,65.200 360.000 C 65.200 360.660,65.380 361.200,65.600 361.200 C 65.820 361.200,66.000 361.562,66.000 362.005 C 66.000 362.448,66.180 363.168,66.400 363.605 C 66.620 364.042,66.980 364.758,67.200 365.195 C 67.420 365.632,67.600 366.352,67.600 366.795 C 67.600 367.238,67.780 367.600,68.000 367.600 C 68.220 367.600,68.400 367.870,68.400 368.200 C 68.400 368.530,68.580 368.800,68.800 368.800 C 69.020 368.800,69.200 368.988,69.200 369.218 C 69.200 369.701,71.008 371.596,71.482 371.609 C 71.657 371.614,72.250 371.970,72.800 372.400 C 73.350 372.830,74.194 373.186,74.676 373.191 C 75.158 373.196,75.664 373.380,75.800 373.600 C 76.388 374.551,84.800 373.712,84.800 372.703 C 84.800 372.536,85.109 372.400,85.487 372.400 C 85.865 372.400,97.747 360.835,111.893 346.700 C 140.462 318.151,138.010 320.373,139.407 321.770 C 139.973 322.337,140.595 322.800,140.790 322.800 C 140.984 322.800,141.384 323.025,141.679 323.300 C 142.537 324.101,144.668 325.200,145.362 325.200 C 145.713 325.200,146.000 325.380,146.000 325.600 C 146.000 325.820,146.450 326.000,147.000 326.000 C 147.550 326.000,148.000 326.180,148.000 326.400 C 148.000 326.620,148.349 326.800,148.776 326.800 C 149.203 326.800,149.664 326.980,149.800 327.200 C 149.936 327.420,150.667 327.600,151.424 327.600 C 152.181 327.600,152.800 327.780,152.800 328.000 C 152.800 328.220,153.700 328.400,154.800 328.400 C 155.900 328.400,156.800 328.580,156.800 328.800 C 156.800 329.341,169.866 329.341,170.200 328.800 C 170.336 328.580,171.517 328.400,172.824 328.400 C 174.141 328.400,175.200 328.222,175.200 328.000 C 175.200 327.780,176.100 327.600,177.200 327.600 C 178.300 327.600,179.200 327.420,179.200 327.200 C 179.200 326.980,180.100 326.800,181.200 326.800 C 182.300 326.800,183.200 326.620,183.200 326.400 C 183.200 326.180,183.920 326.000,184.800 326.000 C 185.680 326.000,186.400 325.846,186.400 325.657 C 186.400 324.005,211.270 323.982,212.980 325.633 C 213.189 325.835,214.134 326.000,215.080 326.000 C 216.026 326.000,216.800 326.180,216.800 326.400 C 216.800 326.620,217.509 326.800,218.376 326.800 C 219.243 326.800,220.064 326.980,220.200 327.200 C 220.336 327.420,221.247 327.600,222.224 327.600 C 223.201 327.600,224.000 327.780,224.000 328.000 C 224.000 328.225,225.125 328.400,226.576 328.400 C 227.993 328.400,229.264 328.580,229.400 328.800 C 229.734 329.340,242.400 329.340,242.400 328.800 C 242.400 328.578,243.467 328.400,244.800 328.400 C 246.133 328.400,247.200 328.222,247.200 328.000 C 247.200 327.780,247.740 327.600,248.400 327.600 C 249.060 327.600,249.600 327.420,249.600 327.200 C 249.600 326.980,250.140 326.800,250.800 326.800 C 251.460 326.800,252.000 326.620,252.000 326.400 C 252.000 326.180,252.360 326.000,252.800 326.000 C 253.240 326.000,253.600 325.843,253.600 325.650 C 253.600 325.457,254.142 325.192,254.804 325.059 C 255.798 324.860,257.970 323.632,258.800 322.799 C 258.910 322.689,259.495 322.344,260.100 322.032 C 260.705 321.720,261.200 321.315,261.200 321.132 C 261.200 319.840,265.283 323.686,288.242 346.600 C 302.459 360.790,314.341 372.400,314.646 372.400 C 314.951 372.400,315.200 372.536,315.200 372.703 C 315.200 373.712,323.612 374.551,324.200 373.600 C 324.336 373.380,324.842 373.196,325.324 373.191 C 325.806 373.186,326.650 372.830,327.200 372.400 C 327.750 371.970,328.356 371.614,328.546 371.609 C 329.076 371.595,331.600 368.713,331.600 368.122 C 331.600 367.835,331.780 367.600,332.000 367.600 C 332.220 367.600,332.400 367.161,332.400 366.624 C 332.400 366.087,332.580 365.536,332.800 365.400 C 333.020 365.264,333.200 364.803,333.200 364.376 C 333.200 363.949,333.380 363.600,333.600 363.600 C 333.820 363.600,334.000 363.060,334.000 362.400 C 334.000 361.740,334.180 361.200,334.400 361.200 C 334.620 361.200,334.800 360.660,334.800 360.000 C 334.800 359.340,334.980 358.800,335.200 358.800 C 335.420 358.800,335.600 358.361,335.600 357.824 C 335.600 357.287,335.780 356.736,336.000 356.600 C 336.220 356.464,336.400 355.913,336.400 355.376 C 336.400 354.839,336.547 354.400,336.728 354.400 C 336.908 354.400,337.304 353.489,337.607 352.375 C 337.910 351.261,338.303 350.260,338.479 350.151 C 338.656 350.042,338.800 349.513,338.800 348.976 C 338.800 348.439,338.980 348.000,339.200 348.000 C 339.420 348.000,339.600 347.460,339.600 346.800 C 339.600 346.140,339.780 345.600,340.000 345.600 C 340.220 345.600,340.400 345.161,340.400 344.624 C 340.400 344.087,340.570 343.542,340.777 343.414 C 340.984 343.286,341.275 342.373,341.423 341.386 C 341.571 340.398,341.852 339.492,342.046 339.371 C 342.241 339.251,342.400 338.713,342.400 338.176 C 342.400 337.639,342.580 337.200,342.800 337.200 C 343.020 337.200,343.200 336.660,343.200 336.000 C 343.200 335.340,343.380 334.800,343.600 334.800 C 343.820 334.800,344.000 334.260,344.000 333.600 C 344.000 332.940,344.180 332.400,344.400 332.400 C 344.620 332.400,344.800 332.051,344.800 331.624 C 344.800 331.197,344.980 330.736,345.200 330.600 C 345.420 330.464,345.600 329.913,345.600 329.376 C 345.600 328.839,345.780 328.400,346.000 328.400 C 346.220 328.400,346.400 327.860,346.400 327.200 C 346.400 326.540,346.580 326.000,346.800 326.000 C 347.020 326.000,347.200 325.561,347.200 325.024 C 347.200 324.487,347.380 323.936,347.600 323.800 C 347.820 323.664,348.000 323.113,348.000 322.576 C 348.000 321.867,348.218 321.600,348.800 321.600 C 349.240 321.600,349.600 321.420,349.600 321.200 C 349.600 320.980,350.140 320.800,350.800 320.800 C 351.460 320.800,352.000 320.620,352.000 320.400 C 352.000 320.180,352.439 320.000,352.976 320.000 C 353.513 320.000,354.064 319.820,354.200 319.600 C 354.336 319.380,354.887 319.200,355.424 319.200 C 355.961 319.200,356.400 319.020,356.400 318.800 C 356.400 318.580,356.762 318.400,357.205 318.400 C 357.983 318.400,358.369 318.258,360.295 317.262 C 360.787 317.008,361.552 316.800,361.995 316.800 C 362.438 316.800,362.800 316.620,362.800 316.400 C 362.800 316.180,363.340 316.000,364.000 316.000 C 364.660 316.000,365.200 315.820,365.200 315.600 C 365.200 315.380,365.740 315.200,366.400 315.200 C 367.060 315.200,367.600 315.020,367.600 314.800 C 367.600 314.580,367.962 314.400,368.405 314.400 C 369.183 314.400,369.569 314.258,371.495 313.262 C 371.987 313.008,372.752 312.800,373.195 312.800 C 373.638 312.800,374.000 312.620,374.000 312.400 C 374.000 312.180,374.450 312.000,375.000 312.000 C 375.550 312.000,376.000 311.820,376.000 311.600 C 376.000 311.380,376.540 311.200,377.200 311.200 C 377.860 311.200,378.400 311.020,378.400 310.800 C 378.400 310.580,378.940 310.400,379.600 310.400 C 380.260 310.400,380.800 310.220,380.800 310.000 C 380.800 309.780,381.239 309.600,381.776 309.600 C 382.313 309.600,382.854 309.436,382.978 309.235 C 383.103 309.034,383.968 308.744,384.902 308.590 C 385.836 308.436,386.780 308.182,387.000 308.027 C 387.220 307.871,388.210 307.500,389.200 307.202 C 390.190 306.905,391.171 306.512,391.380 306.330 C 391.589 306.149,392.084 306.000,392.480 306.000 C 392.876 306.000,393.200 305.820,393.200 305.600 C 393.200 305.380,393.560 305.200,394.000 305.200 C 394.440 305.200,394.800 305.020,394.800 304.800 C 394.800 304.580,395.091 304.400,395.446 304.400 C 396.176 304.400,398.800 301.705,398.800 300.955 C 398.800 300.686,399.025 300.392,399.300 300.300 C 399.671 300.176,399.800 298.539,399.800 293.942 L 399.800 287.750 369.700 257.649 C 348.071 236.019,339.602 227.302,339.606 226.674 C 339.612 225.808,340.365 223.374,340.867 222.597 C 341.010 222.375,341.254 221.520,341.408 220.697 C 341.563 219.874,341.849 219.200,342.045 219.200 C 342.240 219.200,342.400 218.840,342.400 218.400 C 342.400 217.960,342.580 217.600,342.800 217.600 C 343.020 217.600,343.200 217.322,343.200 216.983 C 343.200 216.644,343.560 215.980,344.000 215.508 C 344.440 215.036,344.800 214.413,344.800 214.125 C 344.800 213.836,344.980 213.600,345.200 213.600 C 345.420 213.600,345.600 213.240,345.600 212.800 C 345.600 212.360,345.780 212.000,346.000 212.000 C 346.220 212.000,346.400 211.764,346.400 211.475 C 346.400 211.187,346.760 210.564,347.200 210.092 C 347.640 209.620,348.000 209.046,348.000 208.817 C 348.000 208.588,348.180 208.400,348.400 208.400 C 348.620 208.400,348.800 208.130,348.800 207.800 C 348.800 207.470,348.980 207.200,349.200 207.200 C 349.420 207.200,349.600 206.930,349.600 206.600 C 349.600 206.270,349.780 206.000,350.000 206.000 C 350.220 206.000,350.400 205.640,350.400 205.200 C 350.400 204.760,350.580 204.400,350.800 204.400 C 351.020 204.400,351.200 204.040,351.200 203.600 C 351.200 203.160,351.357 202.800,351.549 202.800 C 351.963 202.800,354.400 197.826,354.400 196.982 C 354.400 196.662,354.580 196.400,354.800 196.400 C 355.020 196.400,355.200 196.040,355.200 195.600 C 355.200 195.160,355.380 194.800,355.600 194.800 C 355.820 194.800,356.000 194.260,356.000 193.600 C 356.000 192.940,356.180 192.400,356.400 192.400 C 356.620 192.400,356.800 191.961,356.800 191.424 C 356.800 190.887,356.980 190.336,357.200 190.200 C 357.420 190.064,357.600 189.369,357.600 188.656 C 357.600 187.943,357.825 187.135,358.100 186.860 C 358.469 186.491,358.600 184.115,358.600 177.800 C 358.600 171.485,358.469 169.109,358.100 168.740 C 357.825 168.465,357.600 167.657,357.600 166.944 C 357.600 166.231,357.420 165.536,357.200 165.400 C 356.980 165.264,356.800 164.724,356.800 164.200 C 356.800 163.676,356.620 163.136,356.400 163.000 C 356.180 162.864,356.000 162.420,356.000 162.014 C 356.000 161.281,355.704 160.605,353.195 155.600 C 352.478 154.170,351.691 152.596,351.446 152.103 C 351.201 151.610,350.865 151.205,350.700 151.203 C 350.535 151.201,350.400 150.840,350.400 150.400 C 350.400 149.960,350.220 149.600,350.000 149.600 C 349.780 149.600,349.600 149.364,349.600 149.075 C 349.600 148.787,349.240 148.164,348.800 147.692 C 348.360 147.220,348.000 146.638,348.000 146.400 C 348.000 146.162,347.640 145.580,347.200 145.108 C 346.760 144.636,346.400 144.013,346.400 143.725 C 346.400 143.436,346.220 143.200,346.000 143.200 C 345.780 143.200,345.600 142.930,345.600 142.600 C 345.600 142.270,345.420 142.000,345.200 142.000 C 344.980 142.000,344.800 141.680,344.800 141.288 C 344.800 140.897,344.440 140.317,344.000 140.000 C 343.560 139.683,343.200 139.103,343.200 138.712 C 343.200 138.320,343.020 138.000,342.800 138.000 C 342.580 138.000,342.400 137.640,342.400 137.200 C 342.400 136.760,342.220 136.400,342.000 136.400 C 341.780 136.400,341.600 136.134,341.600 135.808 C 341.600 135.483,341.150 133.876,340.600 132.238 C 340.050 130.599,339.600 128.806,339.600 128.253 C 339.600 127.700,339.420 127.136,339.200 127.000 C 338.980 126.864,338.800 125.593,338.800 124.176 C 338.800 122.725,338.625 121.600,338.400 121.600 C 338.160 121.600,338.000 120.008,338.000 117.624 C 338.000 115.404,337.823 113.538,337.600 113.400 C 337.380 113.264,337.200 111.723,337.200 109.976 C 337.200 108.125,337.033 106.800,336.800 106.800 C 336.580 106.800,336.400 105.900,336.400 104.800 C 336.400 103.700,336.220 102.800,336.000 102.800 C 335.780 102.800,335.600 102.080,335.600 101.200 C 335.600 100.320,335.420 99.600,335.200 99.600 C 334.980 99.600,334.800 98.981,334.800 98.224 C 334.800 97.467,334.620 96.736,334.400 96.600 C 334.180 96.464,334.000 95.913,334.000 95.376 C 334.000 94.839,333.820 94.400,333.600 94.400 C 333.380 94.400,333.200 94.166,333.200 93.880 C 333.200 93.144,332.259 91.207,331.900 91.203 C 331.735 91.201,331.600 90.840,331.600 90.400 C 331.600 89.960,331.420 89.600,331.200 89.600 C 330.980 89.600,330.800 89.240,330.800 88.800 C 330.800 88.360,330.620 88.000,330.400 88.000 C 330.180 88.000,330.000 87.680,330.000 87.288 C 330.000 86.897,329.640 86.317,329.200 86.000 C 328.760 85.683,328.400 85.202,328.400 84.931 C 328.400 83.627,318.908 74.800,317.505 74.800 C 317.215 74.800,316.717 74.440,316.400 74.000 C 316.083 73.560,315.503 73.200,315.112 73.200 C 314.720 73.200,314.400 73.020,314.400 72.800 C 314.400 72.580,314.040 72.400,313.600 72.400 C 313.160 72.400,312.800 72.220,312.800 72.000 C 312.800 71.780,312.575 71.596,312.300 71.591 C 312.025 71.586,311.350 71.230,310.800 70.800 C 310.250 70.370,309.485 70.014,309.100 70.009 C 308.715 70.004,308.400 69.820,308.400 69.600 C 308.400 69.380,308.040 69.200,307.600 69.200 C 307.160 69.200,306.800 69.020,306.800 68.800 C 306.800 68.580,306.440 68.400,306.000 68.400 C 305.560 68.400,305.200 68.220,305.200 68.000 C 305.200 67.780,304.761 67.600,304.224 67.600 C 303.687 67.600,303.136 67.420,303.000 67.200 C 302.864 66.980,302.403 66.800,301.976 66.800 C 301.549 66.800,301.200 66.620,301.200 66.400 C 301.200 66.180,300.851 66.000,300.424 66.000 C 299.997 66.000,299.536 65.820,299.400 65.600 C 299.264 65.380,298.713 65.200,298.176 65.200 C 297.639 65.200,297.200 65.020,297.200 64.800 C 297.200 64.580,296.840 64.400,296.400 64.400 C 295.960 64.400,295.600 64.220,295.600 64.000 C 295.600 63.780,295.240 63.600,294.800 63.600 C 294.360 63.600,294.000 63.420,294.000 63.200 C 294.000 62.980,293.735 62.800,293.412 62.800 C 292.859 62.800,291.359 62.038,288.600 60.354 C 287.940 59.952,286.879 59.329,286.243 58.971 C 284.910 58.222,275.200 48.542,275.200 47.964 C 275.200 47.510,273.160 45.162,271.258 43.425 C 270.520 42.751,268.210 40.535,266.125 38.500 C 264.040 36.465,262.118 34.800,261.855 34.800 C 261.592 34.800,261.117 34.440,260.800 34.000 C 260.483 33.560,259.969 33.200,259.659 33.200 C 259.348 33.200,258.803 32.871,258.447 32.470 C 258.091 32.068,257.215 31.484,256.500 31.172 C 255.785 30.860,255.200 30.469,255.200 30.302 C 255.200 30.136,254.840 30.000,254.400 30.000 C 253.960 30.000,253.600 29.853,253.600 29.672 C 253.600 29.492,252.689 29.096,251.575 28.793 C 250.461 28.490,249.460 28.097,249.351 27.921 C 249.242 27.744,248.533 27.600,247.776 27.600 C 247.019 27.600,246.400 27.420,246.400 27.200 C 246.400 26.980,245.536 26.800,244.480 26.800 C 243.424 26.800,242.371 26.611,242.140 26.380 C 241.621 25.861,230.156 26.131,226.400 26.751 C 224.970 26.987,222.990 27.293,222.000 27.431 C 221.010 27.569,220.029 27.844,219.820 28.041 C 219.611 28.238,218.857 28.400,218.144 28.400 C 217.431 28.400,216.736 28.580,216.600 28.800 C 216.464 29.020,215.654 29.200,214.800 29.200 C 213.946 29.200,213.136 29.380,213.000 29.600 C 212.864 29.820,212.144 30.000,211.400 30.000 C 210.656 30.000,209.936 30.180,209.800 30.400 C 209.664 30.620,208.573 30.800,207.376 30.800 C 206.179 30.800,205.200 30.980,205.200 31.200 C 205.200 31.446,203.200 31.600,200.000 31.600 C 196.800 31.600,194.800 31.446,194.800 31.200 C 194.800 30.978,193.733 30.800,192.400 30.800 C 191.067 30.800,190.000 30.622,190.000 30.400 C 190.000 30.180,189.190 30.000,188.200 30.000 C 187.210 30.000,186.400 29.820,186.400 29.600 C 186.400 29.380,185.680 29.200,184.800 29.200 C 183.920 29.200,183.200 29.020,183.200 28.800 C 183.200 28.580,182.426 28.400,181.480 28.400 C 180.534 28.400,179.589 28.238,179.380 28.041 C 179.171 27.844,178.190 27.569,177.200 27.431 C 176.210 27.293,174.230 26.991,172.800 26.759 C 168.956 26.137,156.939 25.851,156.616 26.374 M168.400 51.600 C 168.400 51.820,169.300 52.000,170.400 52.000 C 171.500 52.000,172.400 52.180,172.400 52.400 C 172.400 52.620,173.199 52.800,174.176 52.800 C 175.153 52.800,176.064 52.980,176.200 53.200 C 176.336 53.420,177.146 53.600,178.000 53.600 C 178.854 53.600,179.664 53.780,179.800 54.000 C 179.936 54.220,180.656 54.400,181.400 54.400 C 182.144 54.400,182.864 54.580,183.000 54.800 C 183.136 55.020,184.137 55.200,185.224 55.200 C 186.311 55.200,187.200 55.380,187.200 55.600 C 187.200 55.827,188.373 56.000,189.920 56.000 C 191.416 56.000,192.829 56.189,193.059 56.419 C 193.800 57.160,211.744 56.377,212.580 55.568 C 212.789 55.365,213.824 55.200,214.880 55.200 C 215.936 55.200,216.800 55.020,216.800 54.800 C 216.800 54.580,217.509 54.400,218.376 54.400 C 219.243 54.400,220.064 54.220,220.200 54.000 C 220.336 53.780,221.157 53.600,222.024 53.600 C 222.891 53.600,223.600 53.420,223.600 53.200 C 223.600 52.980,224.320 52.800,225.200 52.800 C 226.080 52.800,226.800 52.620,226.800 52.400 C 226.800 52.178,227.867 52.000,229.200 52.000 C 230.533 52.000,231.600 51.822,231.600 51.600 C 231.600 51.358,233.333 51.200,236.000 51.200 C 238.667 51.200,240.400 51.358,240.400 51.600 C 240.400 51.820,240.665 52.000,240.988 52.000 C 241.629 52.000,243.914 53.207,245.781 54.532 C 248.257 56.289,256.000 63.778,256.000 64.415 C 256.000 65.258,269.091 78.400,269.931 78.400 C 270.124 78.400,270.846 78.940,271.537 79.600 C 272.228 80.260,272.982 80.800,273.213 80.800 C 273.444 80.800,274.020 81.160,274.492 81.600 C 274.964 82.040,275.587 82.400,275.875 82.400 C 276.164 82.400,276.400 82.546,276.400 82.725 C 276.400 82.904,277.030 83.298,277.800 83.600 C 278.570 83.902,279.200 84.296,279.200 84.475 C 279.200 84.654,279.560 84.800,280.000 84.800 C 280.440 84.800,280.800 84.980,280.800 85.200 C 280.800 85.420,281.160 85.600,281.600 85.600 C 282.040 85.600,282.400 85.780,282.400 86.000 C 282.400 86.220,282.636 86.400,282.925 86.400 C 283.214 86.400,284.195 86.760,285.106 87.200 C 286.016 87.640,287.040 88.000,287.381 88.000 C 287.721 88.000,288.000 88.180,288.000 88.400 C 288.000 88.620,288.272 88.800,288.605 88.800 C 288.938 88.800,289.523 88.964,289.905 89.165 C 291.797 90.160,295.133 91.600,295.545 91.600 C 295.801 91.600,296.323 91.768,296.705 91.974 C 297.087 92.179,297.985 92.583,298.700 92.871 C 299.415 93.160,300.000 93.531,300.000 93.698 C 300.000 93.864,300.270 94.000,300.600 94.000 C 300.930 94.000,301.200 94.180,301.200 94.400 C 301.200 94.620,301.560 94.800,302.000 94.800 C 302.440 94.800,302.800 94.980,302.800 95.200 C 302.800 95.420,303.046 95.600,303.346 95.600 C 304.254 95.600,308.222 99.696,308.969 101.403 C 309.353 102.282,309.832 103.313,310.034 103.695 C 310.235 104.077,310.400 104.842,310.400 105.395 C 310.400 105.948,310.580 106.400,310.800 106.400 C 311.020 106.400,311.200 107.199,311.200 108.176 C 311.200 109.153,311.380 110.064,311.600 110.200 C 311.820 110.336,312.000 111.697,312.000 113.224 C 312.000 114.808,312.172 116.000,312.400 116.000 C 312.637 116.000,312.800 117.459,312.800 119.576 C 312.800 121.543,312.980 123.264,313.200 123.400 C 313.420 123.536,313.600 124.976,313.600 126.600 C 313.600 128.224,313.780 129.664,314.000 129.800 C 314.220 129.936,314.400 130.937,314.400 132.024 C 314.400 133.111,314.580 134.000,314.800 134.000 C 315.020 134.000,315.200 134.709,315.200 135.576 C 315.200 136.443,315.380 137.264,315.600 137.400 C 315.820 137.536,316.000 138.177,316.000 138.824 C 316.000 139.471,316.180 140.000,316.400 140.000 C 316.620 140.000,316.800 140.540,316.800 141.200 C 316.800 141.860,316.980 142.400,317.200 142.400 C 317.420 142.400,317.600 142.760,317.600 143.200 C 317.600 143.640,317.780 144.000,318.000 144.000 C 318.220 144.000,318.400 144.439,318.400 144.976 C 318.400 145.513,318.580 146.064,318.800 146.200 C 319.020 146.336,319.200 146.797,319.200 147.224 C 319.200 147.651,319.380 148.000,319.600 148.000 C 319.820 148.000,320.000 148.360,320.000 148.800 C 320.000 149.240,320.180 149.600,320.400 149.600 C 320.620 149.600,320.800 149.836,320.800 150.125 C 320.800 150.413,321.160 151.036,321.600 151.508 C 322.040 151.980,322.400 152.644,322.400 152.983 C 322.400 153.322,322.580 153.600,322.800 153.600 C 323.020 153.600,323.200 153.960,323.200 154.400 C 323.200 154.840,323.380 155.200,323.600 155.200 C 323.820 155.200,324.000 155.470,324.000 155.800 C 324.000 156.130,324.159 156.400,324.353 156.400 C 324.548 156.400,324.806 156.715,324.928 157.100 C 325.237 158.081,326.938 160.972,327.300 161.133 C 327.465 161.207,327.600 161.612,327.600 162.033 C 327.600 162.455,327.758 162.800,327.951 162.800 C 328.145 162.800,328.527 163.340,328.800 164.000 C 329.073 164.660,329.455 165.200,329.649 165.200 C 329.842 165.200,330.000 165.560,330.000 166.000 C 330.000 166.440,330.180 166.800,330.400 166.800 C 330.620 166.800,330.800 167.160,330.800 167.600 C 330.800 168.040,330.980 168.400,331.200 168.400 C 331.420 168.400,331.600 168.760,331.600 169.200 C 331.600 169.640,331.780 170.000,332.000 170.000 C 332.220 170.000,332.400 170.540,332.400 171.200 C 332.400 171.860,332.580 172.400,332.800 172.400 C 333.020 172.400,333.200 173.030,333.200 173.800 C 333.200 174.570,333.380 175.200,333.600 175.200 C 333.822 175.200,334.000 176.267,334.000 177.600 C 334.000 178.933,333.822 180.000,333.600 180.000 C 333.380 180.000,333.200 180.720,333.200 181.600 C 333.200 182.480,333.020 183.200,332.800 183.200 C 332.580 183.200,332.400 183.639,332.400 184.176 C 332.400 184.713,332.220 185.264,332.000 185.400 C 331.780 185.536,331.600 185.997,331.600 186.424 C 331.600 186.851,331.420 187.200,331.200 187.200 C 330.980 187.200,330.800 187.560,330.800 188.000 C 330.800 188.440,330.620 188.800,330.400 188.800 C 330.180 188.800,330.000 189.160,330.000 189.600 C 330.000 190.040,329.842 190.400,329.649 190.400 C 329.455 190.400,329.073 190.940,328.800 191.600 C 328.527 192.260,328.145 192.800,327.951 192.800 C 327.758 192.800,327.600 192.997,327.600 193.238 C 327.600 193.479,327.268 194.154,326.863 194.738 C 326.458 195.322,325.603 196.790,324.963 198.000 C 324.323 199.210,323.665 200.260,323.500 200.333 C 323.335 200.407,323.200 200.812,323.200 201.233 C 323.200 201.655,323.020 202.000,322.800 202.000 C 322.580 202.000,322.400 202.320,322.400 202.712 C 322.400 203.103,322.040 203.683,321.600 204.000 C 321.160 204.317,320.800 204.897,320.800 205.288 C 320.800 205.680,320.620 206.000,320.400 206.000 C 320.180 206.000,320.000 206.360,320.000 206.800 C 320.000 207.240,319.820 207.600,319.600 207.600 C 319.380 207.600,319.200 207.960,319.200 208.400 C 319.200 208.840,319.020 209.200,318.800 209.200 C 318.580 209.200,318.400 209.650,318.400 210.200 C 318.400 210.750,318.220 211.200,318.000 211.200 C 317.780 211.200,317.600 211.560,317.600 212.000 C 317.600 212.440,317.420 212.800,317.200 212.800 C 316.980 212.800,316.800 213.340,316.800 214.000 C 316.800 214.660,316.620 215.200,316.400 215.200 C 316.180 215.200,316.000 215.729,316.000 216.376 C 316.000 217.023,315.820 217.664,315.600 217.800 C 315.380 217.936,315.200 218.847,315.200 219.824 C 315.200 220.801,315.020 221.600,314.800 221.600 C 314.580 221.600,314.400 222.489,314.400 223.576 C 314.400 224.663,314.220 225.664,314.000 225.800 C 313.780 225.936,313.600 227.286,313.600 228.800 C 313.600 230.314,313.420 231.664,313.200 231.800 C 312.980 231.936,312.800 233.646,312.800 235.600 C 312.800 237.554,312.620 239.264,312.400 239.400 C 312.180 239.536,312.000 240.886,312.000 242.400 C 312.000 243.914,311.820 245.264,311.600 245.400 C 311.380 245.536,311.200 246.269,311.200 247.029 C 311.200 247.789,311.042 248.723,310.849 249.105 C 310.656 249.487,310.283 250.520,310.020 251.400 C 308.920 255.082,307.001 257.661,304.349 259.020 C 303.607 259.401,302.910 259.822,302.800 259.956 C 302.690 260.090,302.240 260.393,301.800 260.629 C 296.908 263.254,290.997 266.000,290.239 266.000 C 289.888 266.000,289.600 266.180,289.600 266.400 C 289.600 266.620,289.240 266.800,288.800 266.800 C 288.360 266.800,288.000 266.980,288.000 267.200 C 288.000 267.420,287.460 267.600,286.800 267.600 C 286.140 267.600,285.600 267.780,285.600 268.000 C 285.600 268.220,285.240 268.400,284.800 268.400 C 284.360 268.400,284.000 268.580,284.000 268.800 C 284.000 269.020,283.640 269.200,283.200 269.200 C 282.760 269.200,282.400 269.380,282.400 269.600 C 282.400 269.820,282.040 270.000,281.600 270.000 C 281.160 270.000,280.800 270.180,280.800 270.400 C 280.800 270.620,280.440 270.800,280.000 270.800 C 279.560 270.800,279.200 270.980,279.200 271.200 C 279.200 271.420,278.840 271.600,278.400 271.600 C 277.960 271.600,277.600 271.736,277.600 271.902 C 277.600 272.069,277.015 272.460,276.300 272.772 C 275.585 273.084,274.709 273.668,274.353 274.070 C 273.997 274.471,273.503 274.800,273.254 274.800 C 272.270 274.800,268.375 278.028,264.000 282.469 C 258.518 288.034,255.200 291.559,255.200 291.820 C 255.200 292.260,246.888 300.249,245.891 300.768 C 245.291 301.080,244.800 301.485,244.800 301.668 C 244.800 301.850,244.530 302.000,244.200 302.000 C 243.870 302.000,243.600 302.180,243.600 302.400 C 243.600 302.620,243.240 302.800,242.800 302.800 C 242.360 302.800,242.000 302.980,242.000 303.200 C 242.000 303.420,241.561 303.600,241.024 303.600 C 240.487 303.600,239.936 303.780,239.800 304.000 C 239.477 304.522,232.123 304.522,231.800 304.000 C 231.664 303.780,230.663 303.600,229.576 303.600 C 228.489 303.600,227.600 303.420,227.600 303.200 C 227.600 302.980,226.801 302.800,225.824 302.800 C 224.847 302.800,223.936 302.620,223.800 302.400 C 223.664 302.180,222.944 302.000,222.200 302.000 C 221.456 302.000,220.736 301.820,220.600 301.600 C 220.464 301.380,219.553 301.200,218.576 301.200 C 217.599 301.200,216.800 301.020,216.800 300.800 C 216.800 300.580,215.900 300.400,214.800 300.400 C 213.700 300.400,212.800 300.220,212.800 300.000 C 212.800 299.771,211.600 299.600,210.000 299.600 C 208.400 299.600,207.200 299.429,207.200 299.200 C 207.200 298.948,204.533 298.800,200.000 298.800 C 195.467 298.800,192.800 298.948,192.800 299.200 C 192.800 299.431,191.541 299.600,189.824 299.600 C 188.187 299.600,186.736 299.780,186.600 300.000 C 186.464 300.220,185.564 300.400,184.600 300.400 C 183.636 300.400,182.736 300.580,182.600 300.800 C 182.464 301.020,181.643 301.200,180.776 301.200 C 179.909 301.200,179.200 301.380,179.200 301.600 C 179.200 301.820,178.480 302.000,177.600 302.000 C 176.720 302.000,176.000 302.180,176.000 302.400 C 176.000 302.620,175.190 302.800,174.200 302.800 C 173.210 302.800,172.400 302.980,172.400 303.200 C 172.400 303.422,171.333 303.600,170.000 303.600 C 168.667 303.600,167.600 303.778,167.600 304.000 C 167.600 304.240,166.000 304.400,163.600 304.400 C 161.200 304.400,159.600 304.240,159.600 304.000 C 159.600 303.780,159.238 303.600,158.795 303.600 C 157.904 303.600,156.660 302.969,155.445 301.900 C 155.007 301.515,154.495 301.200,154.308 301.200 C 154.120 301.200,151.913 299.175,149.404 296.700 C 146.895 294.225,144.298 291.750,143.633 291.200 C 142.968 290.650,142.416 290.020,142.407 289.800 C 142.366 288.842,131.635 277.600,130.761 277.600 C 130.543 277.600,129.945 277.181,129.434 276.670 C 128.922 276.158,127.940 275.507,127.252 275.221 C 126.563 274.936,126.000 274.545,126.000 274.351 C 126.000 274.158,125.730 274.000,125.400 274.000 C 125.070 274.000,124.800 273.820,124.800 273.600 C 124.800 273.380,124.530 273.200,124.200 273.200 C 123.870 273.200,123.600 273.054,123.600 272.875 C 123.600 272.696,122.970 272.302,122.200 272.000 C 121.430 271.698,120.800 271.304,120.800 271.125 C 120.800 270.946,120.440 270.800,120.000 270.800 C 119.560 270.800,119.200 270.620,119.200 270.400 C 119.200 270.180,118.840 270.000,118.400 270.000 C 117.960 270.000,117.600 269.820,117.600 269.600 C 117.600 269.380,117.251 269.200,116.824 269.200 C 116.397 269.200,115.936 269.020,115.800 268.800 C 115.664 268.580,115.113 268.400,114.576 268.400 C 114.039 268.400,113.600 268.220,113.600 268.000 C 113.600 267.780,113.240 267.600,112.800 267.600 C 112.360 267.600,112.000 267.420,112.000 267.200 C 112.000 266.980,111.728 266.800,111.395 266.800 C 111.062 266.800,110.477 266.640,110.095 266.444 C 109.713 266.248,108.500 265.688,107.400 265.200 C 106.300 264.712,105.087 264.152,104.705 263.956 C 104.323 263.760,103.738 263.600,103.405 263.600 C 103.072 263.600,102.800 263.420,102.800 263.200 C 102.800 262.980,102.440 262.800,102.000 262.800 C 101.560 262.800,101.200 262.620,101.200 262.400 C 101.200 262.180,100.840 262.000,100.400 262.000 C 99.960 262.000,99.600 261.820,99.600 261.600 C 99.600 261.380,99.240 261.200,98.800 261.200 C 98.360 261.200,98.000 261.042,98.000 260.849 C 98.000 260.655,97.487 260.284,96.859 260.025 C 93.238 258.524,88.827 251.898,88.806 247.924 C 88.803 247.332,88.620 246.736,88.400 246.600 C 88.180 246.464,88.000 245.373,88.000 244.176 C 88.000 242.979,87.832 242.000,87.627 242.000 C 87.423 242.000,87.156 240.335,87.036 238.300 C 86.589 230.732,86.330 228.190,85.970 227.820 C 85.766 227.611,85.600 226.486,85.600 225.320 C 85.600 224.154,85.420 223.200,85.200 223.200 C 84.980 223.200,84.800 222.300,84.800 221.200 C 84.800 220.100,84.620 219.200,84.400 219.200 C 84.180 219.200,84.000 218.480,84.000 217.600 C 84.000 216.720,83.820 216.000,83.600 216.000 C 83.380 216.000,83.200 215.460,83.200 214.800 C 83.200 214.140,83.020 213.600,82.800 213.600 C 82.580 213.600,82.400 213.150,82.400 212.600 C 82.400 212.050,82.220 211.600,82.000 211.600 C 81.780 211.600,81.600 211.366,81.600 211.080 C 81.600 210.344,80.659 208.407,80.300 208.403 C 80.135 208.401,80.000 208.040,80.000 207.600 C 80.000 207.160,79.820 206.800,79.600 206.800 C 79.380 206.800,79.200 206.440,79.200 206.000 C 79.200 205.560,79.020 205.200,78.800 205.200 C 78.580 205.200,78.400 204.840,78.400 204.400 C 78.400 203.960,78.220 203.600,78.000 203.600 C 77.780 203.600,77.600 203.280,77.600 202.888 C 77.600 202.497,77.240 201.917,76.800 201.600 C 76.360 201.283,76.000 200.703,76.000 200.312 C 76.000 199.920,75.820 199.600,75.600 199.600 C 75.380 199.600,75.200 199.262,75.200 198.849 C 75.200 198.436,74.930 197.874,74.600 197.600 C 74.270 197.326,74.000 196.925,74.000 196.709 C 74.000 196.493,73.460 195.516,72.800 194.538 C 72.140 193.560,71.600 192.589,71.600 192.380 C 71.600 192.171,71.420 192.000,71.200 192.000 C 70.980 192.000,70.800 191.640,70.800 191.200 C 70.800 190.760,70.620 190.400,70.400 190.400 C 70.180 190.400,70.000 190.040,70.000 189.600 C 70.000 189.160,69.820 188.800,69.600 188.800 C 69.380 188.800,69.200 188.440,69.200 188.000 C 69.200 187.560,69.020 187.200,68.800 187.200 C 68.580 187.200,68.400 186.840,68.400 186.400 C 68.400 185.960,68.220 185.600,68.000 185.600 C 67.780 185.600,67.600 185.240,67.600 184.800 C 67.600 184.360,67.420 184.000,67.200 184.000 C 66.980 184.000,66.800 183.460,66.800 182.800 C 66.800 182.140,66.620 181.600,66.400 181.600 C 65.871 181.600,65.871 174.127,66.400 173.800 C 66.620 173.664,66.800 173.113,66.800 172.576 C 66.800 172.039,66.980 171.600,67.200 171.600 C 67.420 171.600,67.600 171.355,67.600 171.056 C 67.600 170.399,70.076 165.455,70.500 165.267 C 70.665 165.193,70.800 164.788,70.800 164.367 C 70.800 163.945,70.980 163.600,71.200 163.600 C 71.420 163.600,71.600 163.322,71.600 162.983 C 71.600 162.644,71.960 161.980,72.400 161.508 C 72.840 161.036,73.200 160.413,73.200 160.125 C 73.200 159.836,73.340 159.600,73.510 159.600 C 73.681 159.600,74.176 158.792,74.610 157.804 C 75.045 156.816,75.535 156.006,75.700 156.004 C 75.865 156.002,76.000 155.640,76.000 155.200 C 76.000 154.760,76.180 154.400,76.400 154.400 C 76.620 154.400,76.800 154.130,76.800 153.800 C 76.800 153.470,76.980 153.200,77.200 153.200 C 77.420 153.200,77.600 152.930,77.600 152.600 C 77.600 152.270,77.780 152.000,78.000 152.000 C 78.220 152.000,78.400 151.640,78.400 151.200 C 78.400 150.760,78.580 150.400,78.800 150.400 C 79.020 150.400,79.200 150.040,79.200 149.600 C 79.200 149.160,79.380 148.800,79.600 148.800 C 79.820 148.800,80.000 148.440,80.000 148.000 C 80.000 147.560,80.180 147.200,80.400 147.200 C 80.620 147.200,80.800 146.840,80.800 146.400 C 80.800 145.960,80.980 145.600,81.200 145.600 C 81.420 145.600,81.600 145.251,81.600 144.824 C 81.600 144.397,81.780 143.936,82.000 143.800 C 82.220 143.664,82.400 143.113,82.400 142.576 C 82.400 142.039,82.580 141.600,82.800 141.600 C 83.020 141.600,83.200 141.161,83.200 140.624 C 83.200 140.087,83.380 139.536,83.600 139.400 C 83.820 139.264,84.000 138.533,84.000 137.776 C 84.000 137.019,84.180 136.400,84.400 136.400 C 84.620 136.400,84.800 135.500,84.800 134.400 C 84.800 133.300,84.980 132.400,85.200 132.400 C 85.422 132.400,85.600 131.333,85.600 130.000 C 85.600 128.667,85.778 127.600,86.000 127.600 C 86.233 127.600,86.400 126.275,86.400 124.424 C 86.400 122.677,86.580 121.136,86.800 121.000 C 87.020 120.864,87.200 119.143,87.200 117.176 C 87.200 115.059,87.363 113.600,87.600 113.600 C 87.822 113.600,88.000 112.541,88.000 111.224 C 88.000 109.917,88.180 108.736,88.400 108.600 C 88.620 108.464,88.800 107.744,88.800 107.000 C 88.800 106.256,88.980 105.536,89.200 105.400 C 89.420 105.264,89.600 104.882,89.600 104.551 C 89.600 103.722,91.652 99.600,92.065 99.600 C 92.249 99.600,92.400 99.324,92.400 98.987 C 92.400 98.651,92.715 98.257,93.100 98.112 C 93.485 97.967,94.277 97.343,94.860 96.725 C 95.444 96.106,96.169 95.600,96.472 95.600 C 96.775 95.600,97.283 95.240,97.600 94.800 C 97.917 94.360,98.497 94.000,98.888 94.000 C 99.280 94.000,99.600 93.820,99.600 93.600 C 99.600 93.380,99.960 93.200,100.400 93.200 C 100.840 93.200,101.200 93.020,101.200 92.800 C 101.200 92.580,101.560 92.400,102.000 92.400 C 102.440 92.400,102.800 92.240,102.800 92.045 C 102.800 91.849,103.452 91.567,104.249 91.417 C 105.046 91.268,105.991 90.992,106.349 90.805 C 108.069 89.907,110.855 88.800,111.396 88.800 C 111.728 88.800,112.000 88.620,112.000 88.400 C 112.000 88.180,112.360 88.000,112.800 88.000 C 113.240 88.000,113.600 87.820,113.600 87.600 C 113.600 87.380,113.872 87.200,114.205 87.200 C 114.538 87.200,115.168 87.020,115.605 86.800 C 116.042 86.580,116.758 86.220,117.195 86.000 C 117.632 85.780,118.262 85.600,118.595 85.600 C 118.928 85.600,119.200 85.454,119.200 85.275 C 119.200 85.096,119.830 84.702,120.600 84.400 C 121.370 84.098,122.000 83.738,122.000 83.600 C 122.000 83.462,122.630 83.102,123.400 82.800 C 124.170 82.498,124.800 82.104,124.800 81.925 C 124.800 81.746,125.030 81.600,125.312 81.600 C 125.593 81.600,126.083 81.240,126.400 80.800 C 126.717 80.360,127.225 80.000,127.528 80.000 C 127.831 80.000,128.583 79.460,129.200 78.800 C 129.817 78.140,130.510 77.600,130.742 77.600 C 131.706 77.600,141.600 67.786,141.600 66.830 C 141.600 66.079,153.639 54.400,154.413 54.400 C 154.626 54.400,154.800 54.220,154.800 54.000 C 154.800 53.780,155.070 53.600,155.400 53.600 C 155.730 53.600,156.001 53.465,156.003 53.300 C 156.007 52.894,157.986 52.000,158.880 52.000 C 159.276 52.000,159.600 51.820,159.600 51.600 C 159.600 51.358,161.333 51.200,164.000 51.200 C 166.667 51.200,168.400 51.358,168.400 51.600 M192.800 78.771 C 192.800 78.974,191.315 79.237,189.500 79.354 C 184.140 79.701,181.425 80.047,181.020 80.435 C 180.811 80.636,179.967 80.800,179.144 80.800 C 178.321 80.800,177.536 80.980,177.400 81.200 C 177.264 81.420,176.443 81.600,175.576 81.600 C 174.709 81.600,174.000 81.780,174.000 82.000 C 174.000 82.220,173.280 82.400,172.400 82.400 C 171.520 82.400,170.800 82.580,170.800 82.800 C 170.800 83.020,170.260 83.200,169.600 83.200 C 168.940 83.200,168.400 83.380,168.400 83.600 C 168.400 83.820,167.860 84.000,167.200 84.000 C 166.540 84.000,166.000 84.180,166.000 84.400 C 166.000 84.620,165.460 84.800,164.800 84.800 C 164.140 84.800,163.600 84.980,163.600 85.200 C 163.600 85.420,163.150 85.600,162.600 85.600 C 162.050 85.600,161.600 85.780,161.600 86.000 C 161.600 86.220,161.366 86.400,161.080 86.400 C 160.344 86.400,158.407 87.341,158.403 87.700 C 158.401 87.865,157.860 88.000,157.200 88.000 C 156.540 88.000,156.000 88.180,156.000 88.400 C 156.000 88.620,155.640 88.800,155.200 88.800 C 154.760 88.800,154.400 88.980,154.400 89.200 C 154.400 89.420,154.040 89.600,153.600 89.600 C 153.160 89.600,152.800 89.780,152.800 90.000 C 152.800 90.220,152.440 90.400,152.000 90.400 C 151.560 90.400,151.198 90.535,151.195 90.700 C 151.193 90.865,150.428 91.351,149.495 91.779 C 148.563 92.208,147.026 93.063,146.080 93.679 C 145.134 94.296,144.217 94.800,144.042 94.800 C 143.867 94.800,143.398 95.160,143.000 95.600 C 142.602 96.040,142.116 96.400,141.920 96.400 C 141.724 96.400,141.114 96.850,140.564 97.400 C 140.014 97.950,139.398 98.400,139.195 98.400 C 138.992 98.400,138.197 99.030,137.427 99.800 C 136.657 100.570,135.859 101.200,135.653 101.200 C 135.100 101.200,124.800 111.384,124.800 111.931 C 124.800 112.189,124.620 112.400,124.400 112.400 C 124.180 112.400,124.000 112.580,124.000 112.800 C 124.000 113.019,123.280 113.941,122.400 114.848 C 121.520 115.755,120.800 116.705,120.800 116.960 C 120.800 117.215,120.440 117.683,120.000 118.000 C 119.560 118.317,119.200 118.831,119.200 119.141 C 119.200 119.452,118.884 119.997,118.497 120.353 C 118.111 120.709,117.540 121.495,117.230 122.100 C 116.919 122.705,116.515 123.200,116.332 123.200 C 116.150 123.200,116.000 123.478,116.000 123.817 C 116.000 124.156,115.664 124.794,115.254 125.234 C 114.843 125.675,114.078 126.882,113.554 127.918 C 113.029 128.953,112.465 129.860,112.300 129.933 C 112.135 130.007,112.000 130.412,112.000 130.833 C 112.000 131.255,111.820 131.600,111.600 131.600 C 111.380 131.600,111.200 131.960,111.200 132.400 C 111.200 132.840,111.020 133.200,110.800 133.200 C 110.580 133.200,110.400 133.436,110.400 133.725 C 110.400 134.014,110.056 134.962,109.636 135.832 C 109.215 136.702,108.745 138.088,108.590 138.912 C 108.436 139.735,108.150 140.507,107.955 140.628 C 107.760 140.749,107.600 141.287,107.600 141.824 C 107.600 142.361,107.420 142.800,107.200 142.800 C 106.980 142.800,106.800 143.239,106.800 143.776 C 106.800 144.313,106.620 144.864,106.400 145.000 C 106.180 145.136,106.000 145.777,106.000 146.424 C 106.000 147.071,105.820 147.600,105.600 147.600 C 105.380 147.600,105.200 148.230,105.200 149.000 C 105.200 149.770,105.020 150.400,104.800 150.400 C 104.580 150.400,104.400 151.120,104.400 152.000 C 104.400 152.880,104.220 153.600,104.000 153.600 C 103.780 153.600,103.600 154.500,103.600 155.600 C 103.600 156.700,103.420 157.600,103.200 157.600 C 102.980 157.600,102.800 158.590,102.800 159.800 C 102.800 161.010,102.620 162.000,102.400 162.000 C 102.163 162.000,102.000 163.467,102.000 165.600 C 102.000 167.733,101.837 169.200,101.600 169.200 C 101.056 169.200,101.056 185.864,101.600 186.200 C 101.820 186.336,102.000 187.967,102.000 189.824 C 102.000 191.808,102.165 193.200,102.400 193.200 C 102.622 193.200,102.800 194.267,102.800 195.600 C 102.800 196.933,102.978 198.000,103.200 198.000 C 103.420 198.000,103.600 198.900,103.600 200.000 C 103.600 201.100,103.780 202.000,104.000 202.000 C 104.220 202.000,104.400 202.720,104.400 203.600 C 104.400 204.480,104.580 205.200,104.800 205.200 C 105.020 205.200,105.200 205.740,105.200 206.400 C 105.200 207.060,105.380 207.600,105.600 207.600 C 105.820 207.600,106.000 208.230,106.000 209.000 C 106.000 209.770,106.180 210.400,106.400 210.400 C 106.620 210.400,106.800 210.940,106.800 211.600 C 106.800 212.260,106.980 212.800,107.200 212.800 C 107.420 212.800,107.600 213.149,107.600 213.576 C 107.600 214.003,107.780 214.464,108.000 214.600 C 108.220 214.736,108.401 215.242,108.402 215.724 C 108.404 216.206,108.674 217.116,109.002 217.746 C 109.331 218.376,109.600 219.062,109.600 219.271 C 109.600 219.856,112.119 224.983,112.480 225.133 C 112.656 225.207,112.800 225.612,112.800 226.033 C 112.800 226.455,112.980 226.800,113.200 226.800 C 113.420 226.800,113.600 227.078,113.600 227.417 C 113.600 227.756,113.960 228.420,114.400 228.892 C 114.840 229.364,115.200 229.987,115.200 230.275 C 115.200 230.564,115.380 230.800,115.600 230.800 C 115.820 230.800,116.000 231.120,116.000 231.512 C 116.000 231.903,116.360 232.483,116.800 232.800 C 117.240 233.117,117.600 233.657,117.600 234.000 C 117.600 234.343,117.960 234.883,118.400 235.200 C 118.840 235.517,119.200 236.015,119.200 236.306 C 119.200 236.598,119.637 237.273,120.171 237.807 C 120.705 238.341,121.464 239.323,121.858 239.990 C 122.251 240.656,122.865 241.294,123.223 241.407 C 123.580 241.521,124.126 242.103,124.436 242.701 C 125.479 244.714,132.218 251.792,134.800 253.588 C 135.570 254.124,136.470 254.849,136.800 255.200 C 137.130 255.551,138.030 256.273,138.800 256.806 C 139.570 257.338,140.438 258.005,140.729 258.287 C 141.019 258.569,141.514 258.800,141.829 258.800 C 142.143 258.800,142.400 258.950,142.400 259.132 C 142.400 259.315,142.895 259.720,143.500 260.032 C 144.105 260.345,144.949 260.915,145.375 261.300 C 145.802 261.685,146.387 262.000,146.675 262.000 C 146.964 262.000,147.200 262.180,147.200 262.400 C 147.200 262.620,147.560 262.800,148.000 262.800 C 148.440 262.800,148.800 262.980,148.800 263.200 C 148.800 263.420,149.036 263.600,149.325 263.600 C 149.613 263.600,150.236 263.960,150.708 264.400 C 151.180 264.840,151.844 265.200,152.183 265.200 C 152.522 265.200,152.800 265.380,152.800 265.600 C 152.800 265.820,153.160 266.000,153.600 266.000 C 154.040 266.000,154.400 266.180,154.400 266.400 C 154.400 266.620,154.749 266.800,155.176 266.800 C 155.603 266.800,156.064 266.980,156.200 267.200 C 156.336 267.420,156.887 267.600,157.424 267.600 C 157.961 267.600,158.401 267.735,158.403 267.900 C 158.407 268.306,160.386 269.200,161.280 269.200 C 161.676 269.200,162.000 269.380,162.000 269.600 C 162.000 269.820,162.349 270.000,162.776 270.000 C 163.203 270.000,163.664 270.180,163.800 270.400 C 163.936 270.620,164.476 270.800,165.000 270.800 C 165.524 270.800,166.064 270.980,166.200 271.200 C 166.336 271.420,166.876 271.600,167.400 271.600 C 167.924 271.600,168.451 271.759,168.571 271.954 C 168.692 272.149,169.287 272.407,169.895 272.529 C 170.503 272.651,171.810 272.952,172.800 273.197 C 178.604 274.637,181.531 275.150,184.100 275.176 C 185.365 275.189,186.400 275.380,186.400 275.600 C 186.400 275.833,187.733 276.000,189.600 276.000 C 191.467 276.000,192.800 276.167,192.800 276.400 C 192.800 276.653,195.733 276.800,200.800 276.800 C 205.867 276.800,208.800 276.653,208.800 276.400 C 208.800 276.163,210.267 276.000,212.400 276.000 C 214.533 276.000,216.000 275.837,216.000 275.600 C 216.000 275.380,216.765 275.189,217.700 275.176 C 219.443 275.152,221.626 274.788,224.800 273.993 C 225.790 273.745,227.185 273.446,227.900 273.327 C 228.615 273.209,229.200 272.952,229.200 272.756 C 229.200 272.560,229.740 272.400,230.400 272.400 C 231.060 272.400,231.600 272.220,231.600 272.000 C 231.600 271.780,232.140 271.600,232.800 271.600 C 233.460 271.600,234.000 271.420,234.000 271.200 C 234.000 270.980,234.439 270.800,234.976 270.800 C 235.513 270.800,236.064 270.620,236.200 270.400 C 236.336 270.180,236.797 270.000,237.224 270.000 C 237.651 270.000,238.000 269.820,238.000 269.600 C 238.000 269.380,238.349 269.200,238.776 269.200 C 239.203 269.200,239.664 269.020,239.800 268.800 C 239.936 268.580,240.397 268.400,240.824 268.400 C 241.251 268.400,241.600 268.220,241.600 268.000 C 241.600 267.780,241.960 267.600,242.400 267.600 C 242.840 267.600,243.200 267.420,243.200 267.200 C 243.200 266.980,243.560 266.800,244.000 266.800 C 244.440 266.800,244.800 266.620,244.800 266.400 C 244.800 266.180,245.160 266.000,245.600 266.000 C 246.040 266.000,246.400 265.820,246.400 265.600 C 246.400 265.380,246.760 265.200,247.200 265.200 C 247.640 265.200,248.000 265.020,248.000 264.800 C 248.000 264.580,248.270 264.400,248.600 264.400 C 248.930 264.400,249.200 264.220,249.200 264.000 C 249.200 263.780,249.470 263.600,249.800 263.600 C 250.130 263.600,250.400 263.420,250.400 263.200 C 250.400 262.980,250.760 262.800,251.200 262.800 C 251.640 262.800,252.000 262.620,252.000 262.400 C 252.000 262.180,252.270 262.000,252.600 262.000 C 252.930 262.000,253.200 261.820,253.200 261.600 C 253.200 261.380,253.470 261.200,253.800 261.200 C 254.130 261.200,254.400 261.020,254.400 260.800 C 254.400 260.580,254.670 260.400,255.000 260.400 C 255.330 260.400,255.600 260.220,255.600 260.000 C 255.600 259.780,255.870 259.600,256.200 259.600 C 256.530 259.600,256.800 259.432,256.800 259.227 C 256.800 259.022,257.139 258.746,257.553 258.615 C 257.968 258.483,258.866 257.841,259.550 257.188 C 260.233 256.535,260.953 256.000,261.148 256.000 C 261.344 256.000,262.200 255.324,263.052 254.498 C 263.903 253.672,265.230 252.551,266.000 252.007 C 268.514 250.230,274.095 244.307,274.882 242.581 C 275.124 242.050,275.625 241.519,275.997 241.401 C 276.368 241.283,276.911 240.740,277.204 240.193 C 277.496 239.647,277.885 239.200,278.068 239.200 C 278.250 239.200,278.400 238.970,278.400 238.688 C 278.400 238.407,278.760 237.917,279.200 237.600 C 279.640 237.283,280.000 236.793,280.000 236.512 C 280.000 236.230,280.180 236.000,280.400 236.000 C 280.620 236.000,280.800 235.770,280.800 235.488 C 280.800 235.207,281.160 234.717,281.600 234.400 C 282.040 234.083,282.400 233.543,282.400 233.200 C 282.400 232.857,282.760 232.317,283.200 232.000 C 283.640 231.683,284.000 231.103,284.000 230.712 C 284.000 230.320,284.180 230.000,284.400 230.000 C 284.620 230.000,284.800 229.764,284.800 229.475 C 284.800 229.187,285.160 228.564,285.600 228.092 C 286.040 227.620,286.400 226.971,286.400 226.650 C 286.400 226.329,286.541 226.007,286.713 225.933 C 287.330 225.670,291.600 216.537,291.600 215.480 C 291.600 214.886,291.780 214.400,292.000 214.400 C 292.220 214.400,292.400 214.040,292.400 213.600 C 292.400 213.160,292.580 212.800,292.800 212.800 C 293.020 212.800,293.200 212.260,293.200 211.600 C 293.200 210.940,293.380 210.400,293.600 210.400 C 293.820 210.400,294.000 209.860,294.000 209.200 C 294.000 208.540,294.180 208.000,294.400 208.000 C 294.620 208.000,294.800 207.471,294.800 206.824 C 294.800 206.177,294.980 205.536,295.200 205.400 C 295.420 205.264,295.600 204.623,295.600 203.976 C 295.600 203.329,295.780 202.800,296.000 202.800 C 296.220 202.800,296.400 201.990,296.400 201.000 C 296.400 200.010,296.580 199.200,296.800 199.200 C 297.020 199.200,297.200 198.210,297.200 197.000 C 297.200 195.790,297.380 194.800,297.600 194.800 C 297.826 194.800,298.000 193.667,298.000 192.200 C 298.000 190.733,298.174 189.600,298.400 189.600 C 298.658 189.600,298.800 185.408,298.800 177.824 C 298.800 170.404,298.652 165.956,298.400 165.800 C 298.180 165.664,298.000 164.393,298.000 162.976 C 298.000 161.525,297.825 160.400,297.600 160.400 C 297.380 160.400,297.200 159.511,297.200 158.424 C 297.200 157.337,297.020 156.336,296.800 156.200 C 296.580 156.064,296.400 155.243,296.400 154.376 C 296.400 153.509,296.220 152.800,296.000 152.800 C 295.780 152.800,295.600 152.170,295.600 151.400 C 295.600 150.630,295.420 150.000,295.200 150.000 C 294.980 150.000,294.800 149.370,294.800 148.600 C 294.800 147.830,294.620 147.200,294.400 147.200 C 294.180 147.200,294.000 146.660,294.000 146.000 C 294.000 145.340,293.820 144.800,293.600 144.800 C 293.380 144.800,293.200 144.350,293.200 143.800 C 293.200 143.250,293.020 142.800,292.800 142.800 C 292.580 142.800,292.400 142.440,292.400 142.000 C 292.400 141.560,292.220 141.200,292.000 141.200 C 291.780 141.200,291.599 140.705,291.598 140.100 C 291.596 139.495,291.326 138.484,290.998 137.854 C 290.669 137.224,290.400 136.459,290.400 136.154 C 290.400 135.849,290.220 135.600,290.000 135.600 C 289.780 135.600,289.600 135.240,289.600 134.800 C 289.600 134.360,289.420 134.000,289.200 134.000 C 288.980 134.000,288.800 133.640,288.800 133.200 C 288.800 132.760,288.620 132.400,288.400 132.400 C 288.180 132.400,288.000 132.040,288.000 131.600 C 288.000 131.160,287.820 130.800,287.600 130.800 C 287.380 130.800,287.200 130.440,287.200 130.000 C 287.200 129.560,287.064 129.200,286.898 129.200 C 286.731 129.200,286.371 128.694,286.097 128.075 C 285.824 127.456,285.240 126.564,284.800 126.092 C 284.360 125.620,284.000 124.996,284.000 124.705 C 284.000 124.414,283.640 123.917,283.200 123.600 C 282.760 123.283,282.400 122.743,282.400 122.400 C 282.400 122.057,282.040 121.517,281.600 121.200 C 281.160 120.883,280.800 120.375,280.800 120.072 C 280.800 119.769,280.260 119.017,279.600 118.400 C 278.940 117.783,278.400 117.067,278.400 116.808 C 278.400 116.549,277.719 115.676,276.887 114.869 C 276.055 114.061,274.938 112.770,274.404 112.000 C 273.238 110.318,265.676 102.800,265.150 102.800 C 264.946 102.800,263.969 101.990,262.979 101.000 C 261.989 100.010,261.012 99.200,260.808 99.200 C 260.603 99.200,260.017 98.781,259.505 98.269 C 258.275 97.038,251.646 92.594,250.500 92.231 C 250.005 92.074,249.600 91.778,249.600 91.573 C 249.600 91.368,249.240 91.200,248.800 91.200 C 248.360 91.200,248.000 91.020,248.000 90.800 C 248.000 90.580,247.640 90.400,247.200 90.400 C 246.760 90.400,246.400 90.220,246.400 90.000 C 246.400 89.780,246.040 89.600,245.600 89.600 C 245.160 89.600,244.800 89.420,244.800 89.200 C 244.800 88.980,244.440 88.800,244.000 88.800 C 243.560 88.800,243.200 88.620,243.200 88.400 C 243.200 88.180,242.840 88.000,242.400 88.000 C 241.960 88.000,241.600 87.820,241.600 87.600 C 241.600 87.380,241.240 87.200,240.800 87.200 C 240.360 87.200,240.000 87.020,240.000 86.800 C 240.000 86.580,239.550 86.400,239.000 86.400 C 238.450 86.400,238.000 86.220,238.000 86.000 C 238.000 85.780,237.640 85.600,237.200 85.600 C 236.760 85.600,236.400 85.420,236.400 85.200 C 236.400 84.980,235.860 84.800,235.200 84.800 C 234.540 84.800,234.000 84.620,234.000 84.400 C 234.000 84.180,233.460 84.000,232.800 84.000 C 232.140 84.000,231.600 83.820,231.600 83.600 C 231.600 83.380,231.060 83.200,230.400 83.200 C 229.740 83.200,229.200 83.020,229.200 82.800 C 229.200 82.580,228.660 82.400,228.000 82.400 C 227.340 82.400,226.800 82.220,226.800 82.000 C 226.800 81.780,226.080 81.600,225.200 81.600 C 224.320 81.600,223.600 81.420,223.600 81.200 C 223.600 80.980,222.891 80.800,222.024 80.800 C 221.157 80.800,220.336 80.620,220.200 80.400 C 220.064 80.180,219.074 80.000,218.000 80.000 C 216.926 80.000,215.936 79.820,215.800 79.600 C 215.664 79.380,214.224 79.200,212.600 79.200 C 210.976 79.200,209.536 79.020,209.400 78.800 C 209.080 78.283,192.800 78.254,192.800 78.771 M210.600 104.800 C 210.736 105.020,211.726 105.200,212.800 105.200 C 213.874 105.200,214.864 105.380,215.000 105.600 C 215.136 105.820,215.946 106.000,216.800 106.000 C 217.654 106.000,218.464 106.180,218.600 106.400 C 218.736 106.620,219.456 106.800,220.200 106.800 C 220.944 106.800,221.664 106.980,221.800 107.200 C 221.936 107.420,222.476 107.600,223.000 107.600 C 223.524 107.600,224.058 107.770,224.186 107.977 C 224.314 108.184,225.224 108.475,226.209 108.622 C 227.194 108.770,228.000 109.050,228.000 109.245 C 228.000 109.440,228.450 109.600,229.000 109.600 C 229.550 109.600,230.000 109.780,230.000 110.000 C 230.000 110.220,230.360 110.400,230.800 110.400 C 231.240 110.400,231.600 110.580,231.600 110.800 C 231.600 111.020,231.960 111.200,232.400 111.200 C 232.840 111.200,233.200 111.380,233.200 111.600 C 233.200 111.820,233.560 112.000,234.000 112.000 C 234.440 112.000,234.800 112.180,234.800 112.400 C 234.800 112.620,235.160 112.800,235.600 112.800 C 236.040 112.800,236.400 112.980,236.400 113.200 C 236.400 113.420,236.760 113.600,237.200 113.600 C 237.640 113.600,238.000 113.780,238.000 114.000 C 238.000 114.220,238.320 114.400,238.712 114.400 C 239.103 114.400,239.683 114.760,240.000 115.200 C 240.317 115.640,240.857 116.000,241.200 116.000 C 241.543 116.000,242.083 116.360,242.400 116.800 C 242.717 117.240,243.119 117.600,243.292 117.600 C 243.465 117.600,244.172 118.140,244.863 118.800 C 245.554 119.460,246.265 120.000,246.444 120.000 C 247.193 120.000,258.400 130.958,258.400 131.690 C 258.400 131.975,258.850 132.693,259.400 133.287 C 259.950 133.880,260.400 134.519,260.400 134.707 C 260.400 134.895,260.715 135.406,261.100 135.842 C 261.988 136.847,263.183 138.791,263.471 139.700 C 263.593 140.085,263.852 140.400,264.047 140.400 C 264.241 140.400,264.400 140.670,264.400 141.000 C 264.400 141.330,264.580 141.600,264.800 141.600 C 265.020 141.600,265.200 141.960,265.200 142.400 C 265.200 142.840,265.380 143.200,265.600 143.200 C 265.820 143.200,266.000 143.560,266.000 144.000 C 266.000 144.440,266.180 144.800,266.400 144.800 C 266.620 144.800,266.800 145.160,266.800 145.600 C 266.800 146.040,266.980 146.400,267.200 146.400 C 267.420 146.400,267.600 146.940,267.600 147.600 C 267.600 148.260,267.780 148.800,268.000 148.800 C 268.220 148.800,268.400 149.160,268.400 149.600 C 268.400 150.040,268.580 150.400,268.800 150.400 C 269.020 150.400,269.200 150.940,269.200 151.600 C 269.200 152.260,269.380 152.800,269.600 152.800 C 269.820 152.800,270.000 153.340,270.000 154.000 C 270.000 154.660,270.180 155.200,270.400 155.200 C 270.620 155.200,270.800 155.830,270.800 156.600 C 270.800 157.370,270.980 158.000,271.200 158.000 C 271.420 158.000,271.600 158.529,271.600 159.176 C 271.600 159.823,271.780 160.464,272.000 160.600 C 272.220 160.736,272.400 161.647,272.400 162.624 C 272.400 163.601,272.580 164.400,272.800 164.400 C 273.025 164.400,273.200 165.525,273.200 166.976 C 273.200 168.393,273.380 169.664,273.600 169.800 C 273.847 169.952,274.000 173.337,274.000 178.624 C 274.000 184.075,273.854 187.200,273.600 187.200 C 273.378 187.200,273.200 188.267,273.200 189.600 C 273.200 190.933,273.022 192.000,272.800 192.000 C 272.580 192.000,272.400 192.709,272.400 193.576 C 272.400 194.443,272.220 195.264,272.000 195.400 C 271.780 195.536,271.600 196.177,271.600 196.824 C 271.600 197.471,271.420 198.000,271.200 198.000 C 270.980 198.000,270.800 198.529,270.800 199.176 C 270.800 199.823,270.620 200.464,270.400 200.600 C 270.180 200.736,270.000 201.287,270.000 201.824 C 270.000 202.361,269.820 202.800,269.600 202.800 C 269.380 202.800,269.200 203.340,269.200 204.000 C 269.200 204.660,269.020 205.200,268.800 205.200 C 268.580 205.200,268.400 205.560,268.400 206.000 C 268.400 206.440,268.220 206.800,268.000 206.800 C 267.780 206.800,267.600 207.160,267.600 207.600 C 267.600 208.040,267.420 208.400,267.200 208.400 C 266.980 208.400,266.800 208.665,266.800 208.989 C 266.800 209.313,266.342 210.348,265.782 211.289 C 265.223 212.230,264.662 213.315,264.536 213.700 C 264.410 214.085,264.148 214.400,263.953 214.400 C 263.759 214.400,263.600 214.678,263.600 215.017 C 263.600 215.356,263.240 216.020,262.800 216.492 C 262.360 216.964,262.000 217.587,262.000 217.875 C 262.000 218.164,261.842 218.400,261.649 218.400 C 261.455 218.400,261.073 218.940,260.800 219.600 C 260.527 220.260,260.178 220.800,260.026 220.800 C 259.873 220.800,259.453 221.419,259.093 222.175 C 258.732 222.931,257.574 224.473,256.518 225.601 C 252.453 229.947,249.122 233.200,248.738 233.200 C 248.518 233.200,247.646 233.920,246.800 234.800 C 245.954 235.680,245.069 236.400,244.831 236.400 C 244.594 236.400,244.400 236.580,244.400 236.800 C 244.400 237.020,244.170 237.200,243.888 237.200 C 243.607 237.200,243.117 237.560,242.800 238.000 C 242.483 238.440,242.033 238.800,241.800 238.800 C 241.567 238.800,241.117 239.160,240.800 239.600 C 240.483 240.040,239.918 240.400,239.545 240.400 C 239.172 240.400,238.807 240.555,238.733 240.744 C 238.572 241.159,229.563 245.600,228.881 245.600 C 228.616 245.600,228.400 245.780,228.400 246.000 C 228.400 246.220,227.950 246.400,227.400 246.400 C 226.850 246.400,226.400 246.580,226.400 246.800 C 226.400 247.020,226.040 247.200,225.600 247.200 C 225.160 247.200,224.800 247.380,224.800 247.600 C 224.800 247.820,224.260 248.000,223.600 248.000 C 222.940 248.000,222.400 248.180,222.400 248.400 C 222.400 248.620,221.680 248.800,220.800 248.800 C 219.920 248.800,219.200 248.980,219.200 249.200 C 219.200 249.420,218.581 249.600,217.824 249.600 C 217.067 249.600,216.336 249.780,216.200 250.000 C 216.064 250.220,215.243 250.400,214.376 250.400 C 213.509 250.400,212.800 250.580,212.800 250.800 C 212.800 251.026,211.667 251.200,210.200 251.200 C 208.733 251.200,207.600 251.374,207.600 251.600 C 207.600 251.853,204.800 252.000,200.000 252.000 C 195.200 252.000,192.400 251.853,192.400 251.600 C 192.400 251.374,191.267 251.200,189.800 251.200 C 188.333 251.200,187.200 251.026,187.200 250.800 C 187.200 250.580,186.300 250.400,185.200 250.400 C 184.100 250.400,183.200 250.220,183.200 250.000 C 183.200 249.780,182.480 249.600,181.600 249.600 C 180.720 249.600,180.000 249.420,180.000 249.200 C 180.000 248.980,179.460 248.800,178.800 248.800 C 178.140 248.800,177.600 248.620,177.600 248.400 C 177.600 248.180,177.060 248.000,176.400 248.000 C 175.740 248.000,175.200 247.820,175.200 247.600 C 175.200 247.380,174.750 247.200,174.200 247.200 C 173.650 247.200,173.200 247.020,173.200 246.800 C 173.200 246.580,172.928 246.400,172.595 246.400 C 172.262 246.400,171.677 246.231,171.295 246.024 C 170.913 245.818,168.530 244.623,166.000 243.370 C 163.470 242.116,160.996 240.890,160.503 240.645 C 160.010 240.400,159.605 240.065,159.603 239.900 C 159.601 239.735,159.407 239.600,159.171 239.600 C 158.936 239.600,158.506 239.375,158.216 239.100 C 157.180 238.116,155.987 237.200,155.742 237.200 C 155.606 237.200,155.203 236.876,154.847 236.481 C 154.491 236.086,153.570 235.322,152.800 234.784 C 151.366 233.782,143.200 225.788,143.200 225.386 C 143.200 225.264,142.795 224.730,142.300 224.201 C 140.816 222.614,140.419 222.079,139.934 221.015 C 139.680 220.457,139.342 220.000,139.184 220.000 C 139.026 220.000,138.673 219.460,138.400 218.800 C 138.127 218.140,137.745 217.600,137.551 217.600 C 137.358 217.600,137.200 217.364,137.200 217.075 C 137.200 216.787,136.840 216.164,136.400 215.692 C 135.960 215.220,135.600 214.556,135.600 214.217 C 135.600 213.878,135.465 213.599,135.300 213.599 C 135.135 213.598,134.550 212.608,134.000 211.400 C 133.450 210.192,132.865 209.202,132.700 209.201 C 132.535 209.201,132.400 208.840,132.400 208.400 C 132.400 207.960,132.220 207.600,132.000 207.600 C 131.780 207.600,131.600 207.240,131.600 206.800 C 131.600 206.360,131.420 206.000,131.200 206.000 C 130.980 206.000,130.800 205.460,130.800 204.800 C 130.800 204.140,130.620 203.600,130.400 203.600 C 130.180 203.600,130.000 203.060,130.000 202.400 C 130.000 201.740,129.820 201.200,129.600 201.200 C 129.380 201.200,129.200 200.761,129.200 200.224 C 129.200 199.687,129.020 199.136,128.800 199.000 C 128.580 198.864,128.400 198.223,128.400 197.576 C 128.400 196.929,128.220 196.400,128.000 196.400 C 127.780 196.400,127.600 195.680,127.600 194.800 C 127.600 193.920,127.420 193.200,127.200 193.200 C 126.980 193.200,126.800 192.311,126.800 191.224 C 126.800 190.137,126.620 189.136,126.400 189.000 C 126.180 188.864,126.000 187.334,126.000 185.600 C 126.000 183.866,125.820 182.336,125.600 182.200 C 125.072 181.874,125.072 175.200,125.600 175.200 C 125.837 175.200,126.000 173.741,126.000 171.624 C 126.000 169.657,126.180 167.936,126.400 167.800 C 126.620 167.664,126.800 166.663,126.800 165.576 C 126.800 164.489,126.980 163.600,127.200 163.600 C 127.420 163.600,127.600 162.700,127.600 161.600 C 127.600 160.500,127.780 159.600,128.000 159.600 C 128.220 159.600,128.400 158.970,128.400 158.200 C 128.400 157.430,128.580 156.800,128.800 156.800 C 129.020 156.800,129.200 156.260,129.200 155.600 C 129.200 154.940,129.380 154.400,129.600 154.400 C 129.820 154.400,130.000 153.860,130.000 153.200 C 130.000 152.540,130.180 152.000,130.400 152.000 C 130.620 152.000,130.800 151.460,130.800 150.800 C 130.800 150.140,130.980 149.600,131.200 149.600 C 131.420 149.600,131.600 149.240,131.600 148.800 C 131.600 148.360,131.780 148.000,132.000 148.000 C 132.220 148.000,132.400 147.728,132.400 147.395 C 132.400 147.062,132.580 146.432,132.800 145.995 C 133.020 145.558,133.380 144.842,133.600 144.405 C 133.820 143.968,134.000 143.421,134.000 143.189 C 134.000 142.957,134.360 142.380,134.800 141.908 C 135.240 141.436,135.600 140.813,135.600 140.525 C 135.600 140.236,135.736 140.000,135.902 140.000 C 136.069 140.000,136.464 139.415,136.780 138.700 C 137.097 137.985,137.680 137.051,138.078 136.625 C 138.475 136.198,138.800 135.613,138.800 135.325 C 138.800 135.036,138.935 134.800,139.100 134.799 C 139.265 134.799,139.934 133.944,140.586 132.899 C 141.238 131.855,142.273 130.523,142.886 129.940 C 143.499 129.356,144.008 128.636,144.018 128.340 C 144.029 128.043,144.752 127.170,145.626 126.400 C 146.500 125.630,147.946 124.325,148.840 123.500 C 149.734 122.675,150.586 122.000,150.733 122.000 C 150.880 122.000,151.798 121.271,152.773 120.380 C 153.748 119.488,155.053 118.459,155.673 118.093 C 156.293 117.727,156.800 117.286,156.800 117.114 C 156.800 116.941,157.030 116.800,157.312 116.800 C 157.593 116.800,158.083 116.440,158.400 116.000 C 158.717 115.560,159.297 115.200,159.688 115.200 C 160.080 115.200,160.400 115.020,160.400 114.800 C 160.400 114.580,160.760 114.400,161.200 114.400 C 161.640 114.400,162.000 114.220,162.000 114.000 C 162.000 113.780,162.236 113.600,162.525 113.600 C 162.813 113.600,163.436 113.240,163.908 112.800 C 164.380 112.360,165.044 112.000,165.383 112.000 C 165.722 112.000,166.000 111.820,166.000 111.600 C 166.000 111.380,166.349 111.200,166.776 111.200 C 167.203 111.200,167.664 111.020,167.800 110.800 C 167.936 110.580,168.487 110.400,169.024 110.400 C 169.561 110.400,170.000 110.220,170.000 110.000 C 170.000 109.780,170.360 109.600,170.800 109.600 C 171.240 109.600,171.600 109.420,171.600 109.200 C 171.600 108.980,171.948 108.800,172.372 108.800 C 172.797 108.800,174.642 108.338,176.472 107.773 C 178.303 107.209,180.353 106.579,181.028 106.373 C 181.704 106.168,182.728 106.000,183.305 106.000 C 183.881 106.000,184.464 105.820,184.600 105.600 C 184.736 105.380,185.816 105.200,187.000 105.200 C 188.184 105.200,189.264 105.020,189.400 104.800 C 189.555 104.550,193.530 104.400,200.000 104.400 C 206.470 104.400,210.445 104.550,210.600 104.800 M230.000 142.239 C 229.670 142.360,228.950 142.664,228.400 142.915 C 227.310 143.412,217.423 153.201,216.018 155.175 C 215.540 155.846,213.585 157.975,211.674 159.906 C 208.278 163.338,206.800 165.007,206.800 165.409 C 206.800 165.519,204.955 167.489,202.700 169.787 C 198.766 173.796,193.351 179.552,191.635 181.551 L 190.818 182.501 188.709 180.224 C 187.549 178.971,183.944 175.214,180.698 171.873 C 177.452 168.533,174.321 165.305,173.739 164.700 C 173.158 164.095,172.439 163.600,172.141 163.600 C 171.844 163.600,171.600 163.420,171.600 163.200 C 171.600 162.980,171.251 162.800,170.824 162.800 C 170.397 162.800,169.936 162.620,169.800 162.400 C 169.278 161.555,162.214 161.928,160.338 162.900 C 157.991 164.116,154.400 167.837,154.400 169.054 C 154.400 169.574,154.220 170.000,154.000 170.000 C 153.757 170.000,153.600 171.800,153.600 174.600 C 153.600 177.400,153.757 179.200,154.000 179.200 C 154.220 179.200,154.400 179.560,154.400 180.000 C 154.400 180.440,154.580 180.800,154.800 180.800 C 155.020 180.800,155.200 181.041,155.200 181.336 C 155.200 181.631,156.021 182.756,157.025 183.836 C 161.612 188.771,163.460 190.665,164.216 191.211 C 164.665 191.535,165.474 192.430,166.013 193.200 C 166.553 193.970,168.796 196.415,170.997 198.634 C 173.199 200.852,176.260 204.073,177.800 205.792 C 181.596 210.029,182.821 211.200,183.459 211.200 C 183.757 211.200,184.000 211.380,184.000 211.600 C 184.000 211.820,184.360 212.000,184.800 212.000 C 185.240 212.000,185.600 212.180,185.600 212.400 C 185.600 212.620,185.960 212.800,186.400 212.800 C 186.840 212.800,187.200 212.980,187.200 213.200 C 187.200 213.435,188.592 213.600,190.576 213.600 C 192.433 213.600,194.064 213.420,194.200 213.200 C 194.336 212.980,194.887 212.800,195.424 212.800 C 195.961 212.800,196.400 212.620,196.400 212.400 C 196.400 212.180,196.720 212.000,197.112 212.000 C 197.503 212.000,198.083 211.640,198.400 211.200 C 198.717 210.760,199.102 210.400,199.254 210.400 C 199.892 210.400,208.800 201.058,208.800 200.389 C 208.800 200.175,208.980 200.000,209.200 200.000 C 209.420 200.000,209.600 199.818,209.600 199.595 C 209.600 199.373,211.445 197.317,213.700 195.027 C 220.866 187.748,227.600 180.427,227.600 179.915 C 227.600 179.734,229.445 177.727,231.700 175.455 C 233.955 173.184,237.060 169.931,238.600 168.227 C 240.140 166.523,241.985 164.521,242.700 163.778 C 243.415 163.035,244.000 162.233,244.000 161.997 C 244.000 161.760,244.360 161.180,244.800 160.708 C 245.240 160.236,245.600 159.433,245.600 158.925 C 245.600 158.416,245.780 158.000,246.000 158.000 C 246.239 158.000,246.400 156.467,246.400 154.200 C 246.400 151.933,246.239 150.400,246.000 150.400 C 245.780 150.400,245.600 149.900,245.600 149.288 C 245.600 148.635,245.270 147.939,244.800 147.600 C 244.360 147.283,244.000 146.746,244.000 146.407 C 244.000 145.731,242.819 144.726,240.261 143.225 C 238.617 142.260,231.747 141.600,230.000 142.239 M65.429 259.371 C 65.743 259.686,66.000 260.305,66.000 260.748 C 66.000 261.191,66.180 261.664,66.400 261.800 C 66.620 261.936,66.800 262.397,66.800 262.824 C 66.800 263.251,66.980 263.600,67.200 263.600 C 67.420 263.600,67.600 263.960,67.600 264.400 C 67.600 264.840,67.780 265.200,68.000 265.200 C 68.220 265.200,68.400 265.560,68.400 266.000 C 68.400 266.440,68.580 266.800,68.800 266.800 C 69.020 266.800,69.200 267.120,69.200 267.512 C 69.200 267.903,69.560 268.483,70.000 268.800 C 70.440 269.117,70.800 269.625,70.800 269.928 C 70.800 270.231,71.340 270.983,72.000 271.600 C 72.660 272.217,73.200 272.840,73.200 272.986 C 73.200 273.639,80.361 280.000,81.096 280.000 C 81.373 280.000,81.600 280.180,81.600 280.400 C 81.600 280.620,81.836 280.800,82.125 280.800 C 82.413 280.800,83.036 281.160,83.508 281.600 C 83.980 282.040,84.644 282.400,84.983 282.400 C 85.322 282.400,85.600 282.580,85.600 282.800 C 85.600 283.020,85.945 283.200,86.367 283.200 C 86.788 283.200,87.193 283.351,87.267 283.535 C 87.340 283.719,89.380 284.814,91.800 285.967 C 94.220 287.121,96.513 288.230,96.895 288.433 C 97.277 288.635,97.862 288.800,98.195 288.800 C 98.528 288.800,98.800 288.980,98.800 289.200 C 98.800 289.420,99.072 289.600,99.405 289.600 C 99.738 289.600,100.368 289.780,100.805 290.000 C 101.242 290.220,101.938 290.568,102.351 290.773 C 102.764 290.978,103.754 291.268,104.551 291.417 C 105.348 291.567,106.000 291.849,106.000 292.045 C 106.000 292.240,106.360 292.400,106.800 292.400 C 107.240 292.400,107.600 292.580,107.600 292.800 C 107.600 293.020,107.960 293.200,108.400 293.200 C 108.840 293.200,109.200 293.380,109.200 293.600 C 109.200 293.820,109.470 294.000,109.800 294.000 C 110.130 294.000,110.400 294.180,110.400 294.400 C 110.400 294.620,110.625 294.800,110.900 294.801 C 111.175 294.801,112.030 295.341,112.800 296.000 C 113.570 296.659,114.338 297.199,114.507 297.199 C 114.676 297.200,115.983 298.368,117.411 299.796 L 120.007 302.392 102.193 320.196 C 83.302 339.076,84.000 338.423,84.000 337.200 C 84.000 336.760,83.820 336.400,83.600 336.400 C 83.380 336.400,83.200 335.860,83.200 335.200 C 83.200 334.540,83.020 334.000,82.800 334.000 C 82.580 334.000,82.400 333.460,82.400 332.800 C 82.400 332.140,82.220 331.600,82.000 331.600 C 81.780 331.600,81.600 331.238,81.600 330.795 C 81.600 330.017,81.458 329.631,80.462 327.705 C 80.208 327.213,80.000 326.538,80.000 326.205 C 80.000 325.872,79.820 325.600,79.600 325.600 C 79.380 325.600,79.200 325.060,79.200 324.400 C 79.200 323.740,79.020 323.200,78.800 323.200 C 78.580 323.200,78.400 322.660,78.400 322.000 C 78.400 321.340,78.220 320.800,78.000 320.800 C 77.780 320.800,77.600 320.260,77.600 319.600 C 77.600 318.940,77.420 318.400,77.200 318.400 C 76.980 318.400,76.800 317.961,76.800 317.424 C 76.800 316.887,76.620 316.336,76.400 316.200 C 76.180 316.064,76.000 315.603,76.000 315.176 C 76.000 314.749,75.859 314.400,75.686 314.400 C 75.513 314.400,75.181 313.455,74.948 312.300 C 74.466 309.916,73.150 306.267,72.700 306.067 C 72.535 305.993,72.400 305.663,72.400 305.332 C 72.400 304.497,68.055 300.400,67.170 300.400 C 66.772 300.400,66.336 300.220,66.200 300.000 C 66.064 299.780,65.603 299.600,65.176 299.600 C 64.749 299.600,64.400 299.420,64.400 299.200 C 64.400 298.980,63.860 298.800,63.200 298.800 C 62.540 298.800,62.000 298.620,62.000 298.400 C 62.000 298.180,61.460 298.000,60.800 298.000 C 60.140 298.000,59.600 297.820,59.600 297.600 C 59.600 297.380,59.238 297.200,58.795 297.200 C 58.352 297.200,57.677 297.041,57.295 296.847 C 56.122 296.250,54.674 295.676,53.000 295.145 C 52.120 294.865,51.229 294.493,51.020 294.318 C 50.811 294.143,50.237 294.000,49.744 294.000 C 49.251 294.000,48.736 293.820,48.600 293.600 C 48.464 293.380,47.924 293.200,47.400 293.200 C 46.876 293.200,46.336 293.020,46.200 292.800 C 46.064 292.580,45.558 292.399,45.076 292.398 C 44.594 292.396,43.684 292.126,43.054 291.798 C 42.424 291.469,41.580 291.200,41.178 291.200 C 40.776 291.200,40.336 291.020,40.200 290.800 C 40.064 290.580,39.513 290.400,38.976 290.400 C 38.439 290.400,38.000 290.220,38.000 290.000 C 38.000 289.780,37.460 289.600,36.800 289.600 C 34.205 289.600,36.933 286.422,52.452 271.363 C 54.513 269.362,58.090 265.726,60.400 263.281 C 65.152 258.253,64.678 258.621,65.429 259.371 M339.940 263.654 C 342.503 266.324,346.112 269.969,347.961 271.754 C 362.761 286.047,365.795 289.600,363.200 289.600 C 362.540 289.600,362.000 289.780,362.000 290.000 C 362.000 290.220,361.561 290.400,361.024 290.400 C 360.487 290.400,359.936 290.580,359.800 290.800 C 359.664 291.020,359.224 291.200,358.822 291.200 C 358.420 291.200,357.576 291.469,356.946 291.798 C 356.316 292.126,355.406 292.396,354.924 292.398 C 354.442 292.399,353.936 292.580,353.800 292.800 C 353.664 293.020,353.124 293.200,352.600 293.200 C 352.076 293.200,351.536 293.380,351.400 293.600 C 351.264 293.820,350.749 294.000,350.256 294.000 C 349.763 294.000,349.189 294.143,348.980 294.318 C 348.771 294.493,347.880 294.865,347.000 295.145 C 345.326 295.676,343.878 296.250,342.705 296.847 C 342.323 297.041,341.648 297.200,341.205 297.200 C 340.762 297.200,340.400 297.380,340.400 297.600 C 340.400 297.820,339.860 298.000,339.200 298.000 C 338.540 298.000,338.000 298.180,338.000 298.400 C 338.000 298.620,337.460 298.800,336.800 298.800 C 336.140 298.800,335.600 298.980,335.600 299.200 C 335.600 299.420,335.251 299.600,334.824 299.600 C 334.397 299.600,333.936 299.780,333.800 300.000 C 333.664 300.220,333.228 300.400,332.830 300.400 C 331.945 300.400,327.600 304.497,327.600 305.332 C 327.600 305.663,327.465 305.993,327.300 306.067 C 326.877 306.255,324.800 312.440,324.800 313.512 C 324.800 314.000,324.620 314.400,324.400 314.400 C 324.180 314.400,324.000 314.850,324.000 315.400 C 324.000 315.950,323.820 316.400,323.600 316.400 C 323.380 316.400,323.200 316.850,323.200 317.400 C 323.200 317.950,323.020 318.400,322.800 318.400 C 322.580 318.400,322.400 318.940,322.400 319.600 C 322.400 320.260,322.220 320.800,322.000 320.800 C 321.780 320.800,321.600 321.340,321.600 322.000 C 321.600 322.660,321.420 323.200,321.200 323.200 C 320.980 323.200,320.800 323.740,320.800 324.400 C 320.800 325.060,320.620 325.600,320.400 325.600 C 320.180 325.600,320.000 325.872,320.000 326.205 C 320.000 326.538,319.792 327.213,319.538 327.705 C 318.542 329.631,318.400 330.017,318.400 330.795 C 318.400 331.238,318.220 331.600,318.000 331.600 C 317.780 331.600,317.600 332.140,317.600 332.800 C 317.600 333.460,317.420 334.000,317.200 334.000 C 316.980 334.000,316.800 334.540,316.800 335.200 C 316.800 335.860,316.620 336.400,316.400 336.400 C 316.180 336.400,316.000 336.760,316.000 337.200 C 316.000 338.419,316.729 339.101,297.816 320.192 L 280.004 302.383 282.996 299.392 C 284.641 297.746,286.136 296.400,286.318 296.400 C 286.500 296.400,286.998 296.075,287.425 295.678 C 287.851 295.280,288.785 294.697,289.500 294.380 C 290.215 294.064,290.800 293.669,290.800 293.502 C 290.800 293.336,291.160 293.200,291.600 293.200 C 292.040 293.200,292.400 293.020,292.400 292.800 C 292.400 292.580,292.760 292.400,293.200 292.400 C 293.640 292.400,294.000 292.220,294.000 292.000 C 294.000 291.780,294.288 291.600,294.640 291.600 C 294.991 291.600,295.936 291.312,296.740 290.959 C 297.543 290.607,298.650 290.136,299.200 289.913 C 299.750 289.689,300.513 289.348,300.895 289.153 C 301.277 288.959,301.862 288.800,302.195 288.800 C 302.528 288.800,302.800 288.620,302.800 288.400 C 302.800 288.180,303.135 288.000,303.544 288.000 C 304.346 288.000,309.313 285.595,309.533 285.100 C 309.607 284.935,310.012 284.800,310.433 284.800 C 310.855 284.800,311.200 284.620,311.200 284.400 C 311.200 284.180,311.560 284.000,312.000 284.000 C 312.440 284.000,312.800 283.820,312.800 283.600 C 312.800 283.380,313.160 283.200,313.600 283.200 C 314.040 283.200,314.400 283.020,314.400 282.800 C 314.400 282.580,314.636 282.400,314.925 282.400 C 315.213 282.400,315.836 282.040,316.308 281.600 C 316.780 281.160,317.372 280.800,317.623 280.800 C 317.874 280.800,318.583 280.260,319.200 279.600 C 319.817 278.940,320.532 278.400,320.789 278.400 C 321.404 278.400,328.400 271.284,328.400 270.659 C 328.400 270.394,328.760 269.917,329.200 269.600 C 329.640 269.283,330.000 268.703,330.000 268.312 C 330.000 267.920,330.150 267.600,330.333 267.600 C 330.795 267.600,333.200 262.856,333.200 261.944 C 333.200 261.535,333.380 261.200,333.600 261.200 C 333.820 261.200,334.000 260.660,334.000 260.000 C 334.000 257.924,335.075 258.585,339.940 263.654 " stroke="none" fill="#040404" fill-rule="evenodd"></path><path id="path1" d="" stroke="none" fill="#080404" fill-rule="evenodd"></path><path id="path2" d="" stroke="none" fill="#080404" fill-rule="evenodd"></path><path id="path3" d="" stroke="none" fill="#080404" fill-rule="evenodd"></path><path id="path4" d="" stroke="none" fill="#080404" fill-rule="evenodd"></path></g></svg>