<svg id="svg" version="1.1" xmlns="http://www.w3.org/2000/svg" xmlns:xlink="http://www.w3.org/1999/xlink" width="400" height="400" viewBox="0, 0, 400,400"><g id="svgg"><path id="path0" d="M30.800 0.853 C 30.800 1.322,31.116 1.997,31.503 2.353 C 31.889 2.709,32.460 3.495,32.770 4.100 C 33.081 4.705,33.485 5.200,33.668 5.200 C 33.850 5.200,34.000 5.470,34.000 5.800 C 34.000 6.130,34.150 6.400,34.332 6.400 C 34.515 6.400,34.919 6.895,35.230 7.500 C 35.540 8.105,36.111 8.891,36.497 9.247 C 36.884 9.603,37.200 10.071,37.200 10.288 C 37.200 10.504,37.740 11.246,38.400 11.937 C 39.060 12.628,39.600 13.425,39.600 13.708 C 39.600 13.991,39.960 14.483,40.400 14.800 C 40.840 15.117,41.200 15.697,41.200 16.088 C 41.200 16.480,41.358 16.800,41.551 16.800 C 41.745 16.800,42.127 17.340,42.400 18.000 C 42.673 18.660,43.043 19.200,43.222 19.200 C 43.400 19.200,43.647 19.519,43.771 19.908 C 44.031 20.727,47.551 25.779,48.772 27.086 C 49.227 27.573,49.600 28.208,49.600 28.497 C 49.600 28.787,49.960 29.283,50.400 29.600 C 50.840 29.917,51.200 30.457,51.200 30.800 C 51.200 31.143,51.560 31.683,52.000 32.000 C 52.440 32.317,52.800 32.857,52.800 33.200 C 52.800 33.543,53.160 34.083,53.600 34.400 C 54.040 34.717,54.400 35.257,54.400 35.600 C 54.400 35.943,54.760 36.483,55.200 36.800 C 55.640 37.117,56.000 37.607,56.000 37.888 C 56.000 38.170,56.180 38.400,56.400 38.400 C 56.620 38.400,56.800 38.670,56.800 39.000 C 56.800 39.330,56.980 39.600,57.200 39.600 C 57.420 39.600,57.600 39.830,57.600 40.112 C 57.600 40.393,57.950 40.876,58.379 41.185 C 58.807 41.493,59.066 41.893,58.955 42.073 C 58.844 42.253,58.943 42.400,59.176 42.400 C 59.409 42.400,59.600 42.636,59.600 42.925 C 59.600 43.213,59.960 43.836,60.400 44.308 C 60.840 44.780,61.200 45.404,61.200 45.695 C 61.200 45.986,61.560 46.483,62.000 46.800 C 62.440 47.117,62.800 47.573,62.800 47.813 C 62.800 48.053,63.115 48.598,63.500 49.025 C 63.885 49.451,64.455 50.295,64.768 50.900 C 65.080 51.505,65.485 52.000,65.668 52.000 C 65.850 52.000,66.000 52.270,66.000 52.600 C 66.000 52.930,66.180 53.200,66.400 53.200 C 66.620 53.200,66.800 53.470,66.800 53.800 C 66.800 54.130,66.950 54.400,67.132 54.400 C 67.315 54.400,67.719 54.895,68.030 55.500 C 68.340 56.105,68.911 56.891,69.297 57.247 C 69.684 57.603,70.000 58.058,70.000 58.259 C 70.000 58.459,70.360 58.883,70.800 59.200 C 71.240 59.517,71.600 60.057,71.600 60.400 C 71.600 60.743,71.960 61.283,72.400 61.600 C 72.840 61.917,73.200 62.457,73.200 62.800 C 73.200 63.143,73.560 63.683,74.000 64.000 C 74.440 64.317,74.800 64.882,74.800 65.255 C 74.800 65.628,74.935 65.993,75.100 66.067 C 75.265 66.140,76.282 67.550,77.361 69.200 C 78.439 70.850,79.474 72.260,79.661 72.333 C 79.847 72.407,80.000 72.694,80.000 72.971 C 80.000 73.249,80.360 73.802,80.800 74.200 C 81.240 74.598,81.600 75.126,81.600 75.374 C 81.600 75.621,81.960 76.083,82.400 76.400 C 82.840 76.717,83.200 77.257,83.200 77.600 C 83.200 77.943,83.560 78.483,84.000 78.800 C 84.440 79.117,84.800 79.631,84.800 79.941 C 84.800 80.252,85.116 80.797,85.503 81.153 C 85.889 81.509,86.460 82.295,86.770 82.900 C 87.081 83.505,87.485 84.000,87.668 84.000 C 87.850 84.000,88.000 84.270,88.000 84.600 C 88.000 84.930,88.180 85.200,88.400 85.200 C 88.620 85.200,88.800 85.430,88.800 85.712 C 88.800 85.993,89.160 86.483,89.600 86.800 C 90.040 87.117,90.400 87.631,90.400 87.941 C 90.400 88.252,90.734 88.797,91.143 89.153 C 91.551 89.509,92.013 90.205,92.170 90.700 C 92.326 91.195,92.622 91.600,92.827 91.600 C 93.032 91.600,93.200 91.836,93.200 92.125 C 93.200 92.413,93.560 93.036,94.000 93.508 C 94.440 93.980,94.800 94.509,94.800 94.683 C 94.801 94.857,95.251 95.523,95.800 96.162 C 96.350 96.801,96.800 97.448,96.800 97.600 C 96.800 97.752,97.250 98.399,97.800 99.038 C 98.349 99.677,98.799 100.385,98.800 100.612 C 98.800 100.838,99.160 101.283,99.600 101.600 C 100.040 101.917,100.400 102.431,100.400 102.741 C 100.400 103.052,100.716 103.597,101.103 103.953 C 101.489 104.309,102.060 105.095,102.370 105.700 C 102.681 106.305,103.085 106.800,103.268 106.800 C 103.450 106.800,103.600 107.030,103.600 107.312 C 103.600 107.593,103.960 108.083,104.400 108.400 C 104.840 108.717,105.200 109.257,105.200 109.600 C 105.200 109.943,105.560 110.483,106.000 110.800 C 106.440 111.117,106.800 111.657,106.800 112.000 C 106.800 112.343,107.160 112.883,107.600 113.200 C 108.040 113.517,108.400 114.007,108.400 114.288 C 108.400 114.570,108.591 114.800,108.824 114.800 C 109.057 114.800,109.153 114.953,109.037 115.139 C 108.922 115.326,109.136 115.821,109.514 116.239 C 109.891 116.658,110.455 117.495,110.768 118.100 C 111.080 118.705,111.485 119.200,111.668 119.200 C 111.850 119.200,112.000 119.436,112.000 119.725 C 112.000 120.013,112.360 120.636,112.800 121.108 C 113.240 121.580,113.600 122.154,113.600 122.383 C 113.600 122.612,113.750 122.800,113.932 122.800 C 114.115 122.800,114.519 123.295,114.830 123.900 C 115.140 124.505,115.667 125.270,116.000 125.600 C 116.333 125.930,116.860 126.695,117.170 127.300 C 117.481 127.905,117.885 128.400,118.068 128.400 C 118.250 128.400,118.400 128.643,118.400 128.941 C 118.400 129.238,118.940 130.046,119.600 130.737 C 120.260 131.428,120.800 132.225,120.800 132.508 C 120.800 132.791,121.160 133.283,121.600 133.600 C 122.040 133.917,122.400 134.457,122.400 134.800 C 122.400 135.143,122.760 135.683,123.200 136.000 C 123.640 136.317,124.000 136.805,124.000 137.084 C 124.000 137.555,124.682 138.534,125.914 139.830 C 126.197 140.128,126.447 140.513,126.471 140.686 C 126.526 141.099,127.655 142.859,128.295 143.529 C 128.573 143.819,128.800 144.197,128.800 144.367 C 128.800 146.222,131.247 146.785,133.286 145.400 C 134.095 144.850,134.947 144.400,135.179 144.400 C 135.410 144.400,135.600 144.241,135.600 144.047 C 135.600 143.852,135.915 143.593,136.300 143.471 C 136.985 143.254,139.204 141.996,139.600 141.600 C 140.078 141.122,141.639 140.400,142.195 140.400 C 142.528 140.400,142.800 140.220,142.800 140.000 C 142.800 139.780,143.160 139.600,143.600 139.600 C 144.040 139.600,144.400 139.420,144.400 139.200 C 144.400 138.980,144.760 138.800,145.200 138.800 C 145.640 138.800,146.000 138.620,146.000 138.400 C 146.000 138.180,146.252 138.000,146.559 138.000 C 146.867 138.000,148.082 137.496,149.259 136.881 C 150.437 136.265,152.480 135.348,153.800 134.842 C 155.120 134.336,156.560 133.770,157.000 133.584 C 159.442 132.552,166.278 130.372,169.400 129.630 C 171.380 129.159,173.553 128.600,174.228 128.387 C 174.904 128.174,175.838 128.000,176.305 128.000 C 176.771 128.000,177.264 127.820,177.400 127.600 C 177.536 127.380,178.616 127.200,179.800 127.200 C 180.984 127.200,182.064 127.020,182.200 126.800 C 182.336 126.580,183.506 126.400,184.800 126.400 C 186.094 126.400,187.249 126.244,187.367 126.053 C 187.995 125.037,215.971 124.609,222.000 125.523 C 231.951 127.032,234.243 127.485,240.600 129.200 C 242.360 129.675,244.430 130.206,245.200 130.380 C 246.694 130.718,250.079 131.814,251.400 132.387 C 251.840 132.578,254.261 133.491,256.780 134.416 C 259.299 135.342,263.701 137.246,266.561 138.649 C 272.698 141.659,273.213 141.728,274.450 139.700 C 274.954 138.875,275.509 138.140,275.683 138.067 C 275.857 137.993,276.000 137.628,276.000 137.255 C 276.000 136.882,276.360 136.317,276.800 136.000 C 277.240 135.683,277.600 135.143,277.600 134.800 C 277.600 134.457,277.960 133.917,278.400 133.600 C 278.840 133.283,279.200 132.791,279.200 132.508 C 279.200 132.225,279.740 131.428,280.400 130.737 C 281.060 130.046,281.600 129.238,281.600 128.941 C 281.600 128.643,281.750 128.400,281.932 128.400 C 282.115 128.400,282.519 127.905,282.830 127.300 C 283.140 126.695,283.667 125.930,284.000 125.600 C 284.333 125.270,284.860 124.505,285.170 123.900 C 285.481 123.295,285.885 122.800,286.068 122.800 C 286.250 122.800,286.400 122.530,286.400 122.200 C 286.400 121.870,286.550 121.600,286.732 121.600 C 286.915 121.600,287.320 121.105,287.632 120.500 C 287.945 119.895,288.515 119.051,288.900 118.625 C 289.285 118.198,289.600 117.613,289.600 117.325 C 289.600 117.036,289.752 116.800,289.937 116.800 C 290.122 116.800,290.617 116.125,291.037 115.300 C 291.457 114.475,292.115 113.509,292.500 113.153 C 292.885 112.797,293.200 112.252,293.200 111.941 C 293.200 111.631,293.560 111.117,294.000 110.800 C 294.440 110.483,294.800 109.943,294.800 109.600 C 294.800 109.257,295.160 108.717,295.600 108.400 C 296.040 108.083,296.400 107.593,296.400 107.312 C 296.400 107.030,296.550 106.800,296.732 106.800 C 296.915 106.800,297.319 106.305,297.630 105.700 C 297.940 105.095,298.511 104.309,298.897 103.953 C 299.284 103.597,299.600 103.052,299.600 102.741 C 299.600 102.431,299.960 101.917,300.400 101.600 C 300.840 101.283,301.200 100.838,301.200 100.612 C 301.201 100.385,301.651 99.677,302.200 99.038 C 302.750 98.399,303.200 97.752,303.200 97.600 C 303.200 97.448,303.650 96.801,304.200 96.162 C 304.749 95.523,305.199 94.857,305.200 94.683 C 305.200 94.509,305.560 93.980,306.000 93.508 C 306.440 93.036,306.800 92.413,306.800 92.125 C 306.800 91.836,306.952 91.600,307.137 91.600 C 307.322 91.600,307.813 90.970,308.228 90.200 C 308.643 89.430,309.121 88.800,309.291 88.800 C 309.461 88.800,309.600 88.480,309.600 88.088 C 309.600 87.697,309.960 87.117,310.400 86.800 C 310.840 86.483,311.200 85.993,311.200 85.712 C 311.200 85.430,311.380 85.200,311.600 85.200 C 311.820 85.200,312.000 84.930,312.000 84.600 C 312.000 84.270,312.150 84.000,312.332 84.000 C 312.515 84.000,312.919 83.505,313.230 82.900 C 313.540 82.295,314.111 81.509,314.497 81.153 C 314.884 80.797,315.200 80.252,315.200 79.941 C 315.200 79.631,315.560 79.117,316.000 78.800 C 316.440 78.483,316.800 77.943,316.800 77.600 C 316.800 77.257,317.160 76.717,317.600 76.400 C 318.040 76.083,318.400 75.593,318.400 75.312 C 318.400 75.030,318.550 74.800,318.732 74.800 C 318.915 74.800,319.320 74.305,319.632 73.700 C 319.944 73.095,320.299 72.510,320.421 72.400 C 321.065 71.820,325.200 65.466,325.200 65.056 C 325.200 64.793,325.560 64.317,326.000 64.000 C 326.440 63.683,326.800 63.143,326.800 62.800 C 326.800 62.457,327.160 61.917,327.600 61.600 C 328.040 61.283,328.400 60.743,328.400 60.400 C 328.400 60.057,328.760 59.517,329.200 59.200 C 329.640 58.883,330.000 58.459,330.000 58.259 C 330.000 58.058,330.316 57.603,330.703 57.247 C 331.089 56.891,331.660 56.105,331.970 55.500 C 332.281 54.895,332.685 54.400,332.868 54.400 C 333.050 54.400,333.200 54.130,333.200 53.800 C 333.200 53.470,333.380 53.200,333.600 53.200 C 333.820 53.200,334.000 52.930,334.000 52.600 C 334.000 52.270,334.150 52.000,334.332 52.000 C 334.515 52.000,334.920 51.505,335.232 50.900 C 335.545 50.295,336.115 49.451,336.500 49.025 C 336.885 48.598,337.200 48.053,337.200 47.813 C 337.200 47.573,337.560 47.117,338.000 46.800 C 338.440 46.483,338.800 45.903,338.800 45.512 C 338.800 45.120,338.950 44.800,339.132 44.800 C 339.315 44.800,339.720 44.305,340.032 43.700 C 340.345 43.095,340.780 42.381,341.000 42.114 C 341.220 41.847,341.625 41.359,341.900 41.031 C 342.175 40.702,342.400 40.246,342.400 40.017 C 342.400 39.788,342.580 39.600,342.800 39.600 C 343.020 39.600,343.200 39.330,343.200 39.000 C 343.200 38.670,343.380 38.400,343.600 38.400 C 343.820 38.400,344.000 38.170,344.000 37.888 C 344.000 37.607,344.360 37.117,344.800 36.800 C 345.240 36.483,345.600 35.943,345.600 35.600 C 345.600 35.257,345.960 34.717,346.400 34.400 C 346.840 34.083,347.200 33.543,347.200 33.200 C 347.200 32.857,347.560 32.317,348.000 32.000 C 348.440 31.683,348.800 31.143,348.800 30.800 C 348.800 30.457,349.160 29.917,349.600 29.600 C 350.040 29.283,350.400 28.769,350.400 28.459 C 350.400 28.148,350.715 27.603,351.100 27.247 C 351.801 26.599,352.771 25.257,356.046 20.400 C 357.011 18.970,358.025 17.562,358.300 17.271 C 358.575 16.981,358.800 16.435,358.800 16.060 C 358.800 15.684,359.160 15.117,359.600 14.800 C 360.040 14.483,360.400 13.991,360.400 13.708 C 360.400 13.425,360.940 12.628,361.600 11.937 C 362.260 11.246,362.800 10.504,362.800 10.288 C 362.800 10.071,363.116 9.603,363.503 9.247 C 363.889 8.891,364.460 8.105,364.770 7.500 C 365.081 6.895,365.485 6.400,365.668 6.400 C 365.850 6.400,366.000 6.130,366.000 5.800 C 366.000 5.470,366.150 5.200,366.332 5.200 C 366.515 5.200,366.919 4.705,367.230 4.100 C 367.540 3.495,368.111 2.709,368.497 2.353 C 368.884 1.997,369.200 1.322,369.200 0.853 L 369.200 0.000 312.433 -0.000 C 255.397 -0.000,254.400 0.018,254.400 1.046 C 254.400 1.355,253.860 2.172,253.200 2.863 C 252.540 3.554,252.000 4.362,252.000 4.659 C 252.000 4.957,251.850 5.200,251.668 5.200 C 251.485 5.200,251.081 5.695,250.770 6.300 C 250.460 6.905,249.889 7.691,249.503 8.047 C 249.116 8.403,248.800 8.898,248.800 9.147 C 248.800 9.396,248.650 9.600,248.468 9.600 C 248.285 9.600,247.880 10.095,247.568 10.700 C 247.255 11.305,246.685 12.149,246.300 12.575 C 245.915 13.002,245.600 13.504,245.600 13.692 C 245.600 13.880,245.240 14.420,244.800 14.892 C 244.360 15.364,244.000 15.987,244.000 16.275 C 244.000 16.564,243.848 16.800,243.663 16.800 C 243.478 16.800,242.983 17.475,242.563 18.300 C 242.143 19.125,241.485 20.091,241.100 20.447 C 240.715 20.803,240.400 21.348,240.400 21.659 C 240.400 21.969,240.040 22.483,239.600 22.800 C 239.160 23.117,238.800 23.657,238.800 24.000 C 238.800 24.343,238.440 24.883,238.000 25.200 C 237.560 25.517,237.200 25.967,237.200 26.200 C 237.200 26.433,236.840 26.883,236.400 27.200 C 235.960 27.517,235.600 28.057,235.600 28.400 C 235.600 28.743,235.240 29.283,234.800 29.600 C 234.360 29.917,234.000 30.457,234.000 30.800 C 234.000 31.143,233.640 31.683,233.200 32.000 C 232.760 32.317,232.400 32.762,232.399 32.988 C 232.399 33.215,231.859 34.030,231.200 34.800 C 230.541 35.570,230.001 36.425,230.001 36.700 C 230.000 36.975,229.850 37.200,229.668 37.200 C 229.485 37.200,229.080 37.695,228.768 38.300 C 228.455 38.905,227.885 39.749,227.500 40.175 C 227.115 40.602,226.800 41.187,226.800 41.475 C 226.800 41.764,226.661 42.000,226.491 42.000 C 226.321 42.000,225.843 42.630,225.428 43.400 C 225.013 44.170,224.522 44.800,224.337 44.800 C 224.152 44.800,224.000 45.120,224.000 45.512 C 224.000 45.903,223.640 46.483,223.200 46.800 C 222.760 47.117,222.400 47.607,222.400 47.888 C 222.400 48.170,222.220 48.400,222.000 48.400 C 221.780 48.400,221.600 48.670,221.600 49.000 C 221.600 49.330,221.450 49.600,221.268 49.600 C 221.085 49.600,220.681 50.095,220.370 50.700 C 220.060 51.305,219.489 52.091,219.103 52.447 C 218.716 52.803,218.400 53.348,218.400 53.659 C 218.400 53.969,218.040 54.483,217.600 54.800 C 217.160 55.117,216.800 55.657,216.800 56.000 C 216.800 56.343,216.440 56.883,216.000 57.200 C 215.560 57.517,215.200 57.979,215.200 58.226 C 215.200 58.474,214.840 59.002,214.400 59.400 C 213.960 59.798,213.600 60.366,213.600 60.662 C 213.600 60.958,213.462 61.200,213.294 61.200 C 213.126 61.200,212.544 61.920,212.000 62.800 C 211.456 63.680,210.874 64.400,210.706 64.400 C 210.538 64.400,210.400 64.608,210.400 64.862 C 210.400 65.116,209.950 65.914,209.400 66.636 C 208.850 67.357,208.400 68.189,208.400 68.485 C 208.400 68.781,208.040 69.283,207.600 69.600 C 207.160 69.917,206.800 70.457,206.800 70.800 C 206.800 71.143,206.440 71.683,206.000 72.000 C 205.560 72.317,205.200 72.857,205.200 73.200 C 205.200 73.543,204.840 74.083,204.400 74.400 C 203.960 74.717,203.600 75.167,203.600 75.400 C 203.600 75.633,203.240 76.083,202.800 76.400 C 202.360 76.717,202.000 77.162,202.000 77.388 C 201.999 77.615,201.549 78.323,201.000 78.962 L 200.000 80.124 199.000 78.962 C 198.451 78.323,198.001 77.615,198.000 77.388 C 198.000 77.162,197.640 76.717,197.200 76.400 C 196.760 76.083,196.400 75.633,196.400 75.400 C 196.400 75.167,196.040 74.717,195.600 74.400 C 195.160 74.083,194.800 73.543,194.800 73.200 C 194.800 72.857,194.440 72.317,194.000 72.000 C 193.560 71.683,193.200 71.143,193.200 70.800 C 193.200 70.457,192.840 69.917,192.400 69.600 C 191.960 69.283,191.600 68.781,191.600 68.485 C 191.600 68.189,191.150 67.357,190.600 66.636 C 190.050 65.914,189.600 65.116,189.600 64.862 C 189.600 64.608,189.462 64.400,189.294 64.400 C 189.126 64.400,188.544 63.680,188.000 62.800 C 187.456 61.920,186.874 61.200,186.706 61.200 C 186.538 61.200,186.400 60.958,186.400 60.662 C 186.400 60.366,186.040 59.798,185.600 59.400 C 185.160 59.002,184.800 58.474,184.800 58.226 C 184.800 57.979,184.440 57.517,184.000 57.200 C 183.560 56.883,183.200 56.343,183.200 56.000 C 183.200 55.657,182.840 55.117,182.400 54.800 C 181.960 54.483,181.600 53.969,181.600 53.659 C 181.600 53.348,181.284 52.803,180.897 52.447 C 180.511 52.091,179.940 51.305,179.630 50.700 C 179.319 50.095,178.915 49.600,178.732 49.600 C 178.550 49.600,178.400 49.330,178.400 49.000 C 178.400 48.670,178.220 48.400,178.000 48.400 C 177.780 48.400,177.600 48.170,177.600 47.888 C 177.600 47.607,177.240 47.117,176.800 46.800 C 176.360 46.483,176.000 45.903,176.000 45.512 C 176.000 45.120,175.861 44.800,175.691 44.800 C 175.521 44.800,175.043 44.170,174.628 43.400 C 174.213 42.630,173.722 42.000,173.537 42.000 C 173.352 42.000,173.200 41.764,173.200 41.475 C 173.200 41.187,172.885 40.602,172.500 40.175 C 172.115 39.749,171.545 38.905,171.232 38.300 C 170.920 37.695,170.515 37.200,170.332 37.200 C 170.150 37.200,170.000 36.975,169.999 36.700 C 169.999 36.425,169.459 35.570,168.800 34.800 C 168.141 34.030,167.601 33.215,167.601 32.988 C 167.600 32.762,167.240 32.317,166.800 32.000 C 166.360 31.683,166.000 31.143,166.000 30.800 C 166.000 30.457,165.640 29.917,165.200 29.600 C 164.760 29.283,164.400 28.743,164.400 28.400 C 164.400 28.057,164.040 27.517,163.600 27.200 C 163.160 26.883,162.800 26.433,162.800 26.200 C 162.800 25.967,162.440 25.517,162.000 25.200 C 161.560 24.883,161.200 24.343,161.200 24.000 C 161.200 23.657,160.840 23.117,160.400 22.800 C 159.960 22.483,159.600 21.903,159.600 21.512 C 159.600 21.120,159.465 20.796,159.300 20.792 C 159.135 20.788,158.468 19.888,157.817 18.792 C 157.167 17.696,156.492 16.800,156.317 16.800 C 156.143 16.800,156.000 16.564,156.000 16.275 C 156.000 15.987,155.640 15.364,155.200 14.892 C 154.760 14.420,154.400 13.880,154.400 13.692 C 154.400 13.504,154.085 13.002,153.700 12.575 C 153.315 12.149,152.748 11.311,152.440 10.714 C 152.132 10.116,151.727 9.722,151.540 9.837 C 151.353 9.953,151.200 9.743,151.200 9.371 C 151.200 8.998,150.884 8.403,150.497 8.047 C 150.111 7.691,149.540 6.905,149.230 6.300 C 148.919 5.695,148.515 5.200,148.332 5.200 C 148.150 5.200,148.000 4.957,148.000 4.659 C 148.000 4.362,147.460 3.554,146.800 2.863 C 146.140 2.172,145.600 1.355,145.600 1.046 C 145.600 0.018,144.603 0.000,87.567 0.000 L 30.800 0.000 30.800 0.853 " stroke="none" fill="#d1483c" fill-rule="evenodd"></path><path id="path1" d="M203.895 125.430 C 203.727 125.602,200.667 125.882,197.095 126.052 C 193.523 126.222,189.340 126.554,187.800 126.789 C 186.260 127.024,183.920 127.381,182.600 127.582 C 180.206 127.947,178.117 128.380,174.900 129.178 C 173.965 129.410,172.525 129.763,171.700 129.961 C 167.411 130.995,164.286 131.935,162.200 132.820 C 161.760 133.007,160.590 133.426,159.600 133.751 C 156.253 134.849,152.560 136.331,148.972 138.016 C 140.733 141.885,138.810 142.898,135.400 145.162 C 132.507 147.083,131.800 147.335,130.802 146.801 C 130.208 146.483,129.996 146.470,130.175 146.760 C 130.418 147.152,129.625 147.403,128.670 147.237 C 128.489 147.206,128.438 147.338,128.557 147.530 C 128.675 147.722,128.284 148.132,127.686 148.440 C 127.089 148.748,126.123 149.495,125.540 150.100 C 124.956 150.705,124.303 151.200,124.089 151.200 C 123.874 151.200,122.934 151.920,122.000 152.800 C 121.066 153.680,120.093 154.400,119.839 154.400 C 119.585 154.400,119.117 154.760,118.800 155.200 C 118.483 155.640,118.005 156.000,117.739 156.000 C 117.472 156.000,117.140 156.360,117.000 156.800 C 116.860 157.240,116.410 157.600,116.000 157.600 C 115.590 157.600,115.140 157.960,115.000 158.400 C 114.860 158.840,114.532 159.200,114.271 159.200 C 114.009 159.200,113.270 159.830,112.628 160.600 C 111.986 161.370,111.299 162.000,111.102 162.000 C 110.562 162.000,109.602 163.068,109.886 163.352 C 110.022 163.489,109.873 163.600,109.556 163.600 C 109.017 163.600,107.600 164.930,107.600 165.436 C 107.600 165.561,106.173 167.072,104.430 168.795 C 102.686 170.517,101.366 172.033,101.497 172.163 C 101.627 172.293,101.445 172.400,101.094 172.400 C 100.742 172.400,100.335 172.774,100.190 173.230 C 100.045 173.687,99.328 174.677,98.597 175.430 C 97.865 176.184,97.360 176.800,97.473 176.800 C 97.587 176.800,97.032 177.448,96.240 178.240 C 95.448 179.032,94.800 179.932,94.800 180.240 C 94.800 180.548,94.620 180.800,94.400 180.800 C 94.180 180.800,94.045 180.967,94.100 181.172 C 94.155 181.376,93.840 181.840,93.400 182.201 C 92.960 182.563,92.825 182.745,93.100 182.606 C 93.375 182.467,93.600 182.543,93.600 182.776 C 93.600 183.009,93.342 183.200,93.027 183.200 C 92.712 183.200,92.340 183.560,92.200 184.000 C 92.060 184.440,91.778 184.800,91.573 184.800 C 91.368 184.800,91.200 185.094,91.200 185.453 C 91.200 185.812,90.812 186.442,90.339 186.853 C 89.865 187.264,89.605 187.600,89.761 187.600 C 90.137 187.600,88.773 190.035,87.970 190.800 C 87.623 191.130,87.084 191.985,86.772 192.700 C 86.460 193.415,86.101 194.000,85.974 194.000 C 85.847 194.000,85.336 194.900,84.839 196.000 C 84.342 197.100,83.759 198.000,83.544 198.000 C 83.329 198.000,83.255 198.165,83.380 198.368 C 83.505 198.570,83.336 199.007,83.004 199.339 C 82.672 199.671,82.400 200.226,82.400 200.571 C 82.400 200.917,82.220 201.200,82.000 201.200 C 81.780 201.200,81.600 201.530,81.600 201.933 C 81.600 202.337,81.475 202.791,81.323 202.944 C 81.171 203.096,80.987 203.607,80.915 204.079 C 80.843 204.551,80.592 205.168,80.358 205.450 C 79.691 206.254,78.400 208.914,78.400 209.485 C 78.400 209.768,78.259 210.000,78.087 210.000 C 77.915 210.000,77.734 210.485,77.685 211.078 C 77.636 211.670,77.402 212.275,77.164 212.422 C 76.926 212.569,76.756 212.849,76.786 213.045 C 76.816 213.240,76.770 213.670,76.684 214.000 C 76.598 214.330,76.510 214.690,76.489 214.800 C 76.468 214.910,76.083 215.810,75.634 216.800 C 75.185 217.790,74.814 219.095,74.809 219.700 C 74.804 220.305,74.620 220.800,74.400 220.800 C 74.180 220.800,74.000 221.520,74.000 222.400 C 74.000 223.280,73.820 224.000,73.600 224.000 C 73.380 224.000,73.200 224.630,73.200 225.400 C 73.200 226.170,73.020 226.800,72.800 226.800 C 72.580 226.800,72.400 227.419,72.400 228.176 C 72.400 228.933,72.220 229.664,72.000 229.800 C 71.780 229.936,71.600 230.566,71.600 231.200 C 71.600 231.834,71.420 232.464,71.200 232.600 C 70.980 232.736,70.800 233.827,70.800 235.024 C 70.800 236.221,70.620 237.200,70.400 237.200 C 70.180 237.200,70.021 237.335,70.047 237.500 C 70.269 238.902,69.927 242.802,69.600 242.600 C 69.266 242.394,68.994 245.239,69.093 247.900 C 69.103 248.175,68.951 248.400,68.756 248.400 C 68.555 248.400,68.400 254.583,68.400 262.600 C 68.400 270.954,68.551 276.800,68.767 276.800 C 68.969 276.800,69.239 278.060,69.367 279.600 C 69.495 281.140,69.705 283.661,69.833 285.203 C 69.961 286.746,70.231 287.904,70.433 287.780 C 70.640 287.652,70.800 288.608,70.800 289.976 C 70.800 291.325,70.977 292.400,71.200 292.400 C 71.420 292.400,71.600 292.929,71.600 293.576 C 71.600 294.223,71.780 294.864,72.000 295.000 C 72.220 295.136,72.400 295.867,72.400 296.624 C 72.400 297.381,72.580 298.000,72.800 298.000 C 73.020 298.000,73.200 298.619,73.200 299.376 C 73.200 300.133,73.380 300.864,73.600 301.000 C 73.820 301.136,74.000 301.967,74.000 302.847 C 74.000 303.812,74.159 304.349,74.400 304.200 C 74.633 304.056,74.800 304.463,74.800 305.176 C 74.800 305.849,74.991 306.400,75.224 306.400 C 75.457 306.400,75.556 306.548,75.445 306.728 C 75.152 307.201,76.183 310.483,76.519 310.148 C 76.674 309.993,76.827 310.257,76.860 310.733 C 76.893 311.210,76.938 311.825,76.960 312.100 C 76.982 312.375,77.217 312.830,77.483 313.112 C 77.749 313.393,77.871 313.870,77.756 314.171 C 77.640 314.472,77.738 314.838,77.973 314.983 C 78.208 315.128,78.400 315.597,78.400 316.024 C 78.400 316.451,78.560 316.800,78.756 316.800 C 78.952 316.800,79.347 317.598,79.636 318.574 C 79.924 319.550,80.265 320.283,80.395 320.203 C 80.524 320.123,80.860 320.630,81.141 321.329 C 81.422 322.028,81.821 322.913,82.026 323.295 C 82.232 323.677,82.400 324.272,82.400 324.618 C 82.400 324.964,82.580 325.136,82.800 325.000 C 83.027 324.860,83.200 325.196,83.200 325.776 C 83.200 326.339,83.335 326.803,83.500 326.806 C 83.665 326.810,84.240 327.710,84.779 328.806 C 85.317 329.903,85.902 330.800,86.079 330.800 C 86.255 330.800,86.400 331.160,86.400 331.600 C 86.400 332.040,86.580 332.400,86.800 332.400 C 87.020 332.400,87.200 332.717,87.200 333.104 C 87.200 333.491,87.560 334.032,88.000 334.307 C 88.440 334.582,88.800 335.165,88.800 335.603 C 88.800 336.042,88.980 336.400,89.200 336.400 C 89.420 336.400,89.600 336.636,89.600 336.925 C 89.600 337.213,89.960 337.836,90.400 338.308 C 90.840 338.780,91.200 339.455,91.200 339.807 C 91.200 340.159,91.380 340.336,91.600 340.200 C 91.820 340.064,92.000 340.223,92.000 340.554 C 92.000 340.884,92.359 341.406,92.797 341.713 C 93.236 342.020,93.477 342.389,93.333 342.533 C 93.189 342.677,93.461 343.132,93.936 343.544 C 94.411 343.957,94.800 344.478,94.800 344.704 C 94.800 344.930,95.096 345.228,95.457 345.367 C 95.819 345.505,96.010 345.724,95.881 345.852 C 95.753 345.980,96.091 346.527,96.632 347.068 C 97.173 347.609,97.508 348.224,97.378 348.436 C 97.247 348.647,97.289 348.770,97.470 348.710 C 97.652 348.649,97.800 348.690,97.801 348.800 C 97.801 348.910,98.386 349.612,99.101 350.359 C 99.815 351.107,100.400 351.883,100.400 352.083 C 100.400 352.283,100.608 352.319,100.862 352.162 C 101.138 351.991,101.215 352.051,101.055 352.311 C 100.906 352.552,102.043 354.021,103.593 355.593 C 105.137 357.158,106.400 358.327,106.400 358.191 C 106.400 357.845,107.310 358.873,107.839 359.817 C 108.081 360.248,108.711 360.822,109.239 361.094 C 109.768 361.366,110.086 361.591,109.947 361.594 C 109.808 361.597,111.126 363.042,112.877 364.805 C 114.629 366.568,116.255 367.890,116.492 367.743 C 116.749 367.585,116.808 367.664,116.638 367.938 C 116.481 368.192,116.517 368.400,116.717 368.400 C 116.917 368.400,117.646 368.940,118.337 369.600 C 119.028 370.260,119.774 370.800,119.996 370.800 C 120.218 370.800,120.400 370.980,120.400 371.200 C 120.400 371.420,120.630 371.600,120.912 371.600 C 121.193 371.600,121.683 371.960,122.000 372.400 C 122.317 372.840,122.773 373.200,123.013 373.200 C 123.253 373.200,123.824 373.549,124.282 373.976 C 124.740 374.403,125.224 374.643,125.357 374.509 C 125.491 374.376,125.600 374.455,125.600 374.685 C 125.600 374.915,126.146 375.329,126.813 375.605 C 127.480 375.882,127.938 376.195,127.832 376.301 C 127.564 376.569,128.641 377.600,129.188 377.600 C 129.433 377.600,130.020 377.960,130.492 378.400 C 130.964 378.840,131.587 379.200,131.875 379.200 C 132.164 379.200,132.400 379.380,132.400 379.600 C 132.400 379.820,132.760 380.000,133.200 380.000 C 133.640 380.000,134.000 380.180,134.000 380.400 C 134.000 380.620,134.281 380.800,134.624 380.800 C 134.967 380.800,135.136 380.980,135.000 381.200 C 134.864 381.420,135.123 381.600,135.576 381.600 C 136.029 381.600,136.400 381.780,136.400 382.000 C 136.400 382.220,136.760 382.400,137.200 382.400 C 137.640 382.400,138.000 382.580,138.000 382.800 C 138.000 383.020,138.281 383.200,138.624 383.200 C 138.967 383.200,139.136 383.380,139.000 383.600 C 138.864 383.820,139.123 384.000,139.576 384.000 C 140.029 384.000,140.400 384.180,140.400 384.400 C 140.400 384.620,140.676 384.800,141.014 384.800 C 141.352 384.800,142.072 385.091,142.614 385.446 C 143.156 385.801,143.600 385.974,143.600 385.830 C 143.600 385.687,143.994 385.936,144.475 386.384 C 145.272 387.126,146.038 387.392,146.930 387.237 C 147.111 387.206,147.145 387.365,147.006 387.590 C 146.786 387.946,147.587 388.192,148.500 388.047 C 148.665 388.021,148.800 388.152,148.800 388.337 C 148.800 388.522,149.520 388.889,150.400 389.153 C 151.280 389.416,152.000 389.816,152.000 390.040 C 152.000 390.264,152.135 390.368,152.300 390.271 C 152.465 390.173,153.050 390.277,153.600 390.502 C 154.649 390.929,154.988 391.020,157.100 391.435 C 157.815 391.576,158.400 391.850,158.400 392.045 C 158.400 392.240,158.760 392.400,159.200 392.400 C 159.640 392.400,160.000 392.580,160.000 392.800 C 160.000 393.020,160.551 393.200,161.224 393.200 C 161.937 393.200,162.344 393.367,162.200 393.600 C 162.056 393.833,162.463 394.000,163.176 394.000 C 163.849 394.000,164.400 394.180,164.400 394.400 C 164.400 394.620,165.120 394.800,166.000 394.800 C 166.880 394.800,167.600 394.980,167.600 395.200 C 167.600 395.420,168.320 395.600,169.200 395.600 C 170.080 395.600,170.800 395.780,170.800 396.000 C 170.800 396.220,171.419 396.400,172.176 396.400 C 172.933 396.400,173.664 396.580,173.800 396.800 C 173.936 397.020,174.577 397.200,175.224 397.200 C 175.871 397.200,176.400 397.380,176.400 397.600 C 176.400 397.820,177.390 398.000,178.600 398.000 C 179.810 398.000,180.800 398.165,180.800 398.367 C 180.800 398.569,182.015 398.820,183.500 398.924 C 184.985 399.028,187.910 399.328,190.000 399.590 C 195.083 400.229,225.237 399.999,226.060 399.316 C 226.370 399.059,227.736 398.808,229.095 398.759 C 230.455 398.710,231.474 398.519,231.360 398.335 C 231.246 398.151,232.243 398.000,233.576 398.000 C 234.925 398.000,236.000 397.823,236.000 397.600 C 236.000 397.380,236.630 397.200,237.400 397.200 C 238.170 397.200,238.800 397.020,238.800 396.800 C 238.800 396.580,239.430 396.400,240.200 396.400 C 240.970 396.400,241.600 396.220,241.600 396.000 C 241.600 395.780,242.194 395.600,242.920 395.600 C 243.646 395.600,244.411 395.429,244.621 395.219 C 244.830 395.010,245.676 394.793,246.501 394.737 C 247.325 394.682,248.000 394.533,248.000 394.406 C 248.000 394.279,248.855 393.940,249.900 393.653 C 250.945 393.366,252.520 392.798,253.400 392.390 C 254.280 391.982,255.630 391.537,256.400 391.401 C 257.170 391.265,258.160 391.000,258.600 390.813 C 261.279 389.672,263.226 388.682,263.425 388.359 C 263.552 388.154,263.810 388.083,264.000 388.200 C 264.190 388.317,264.460 388.227,264.600 388.000 C 264.740 387.773,265.023 387.691,265.228 387.817 C 265.432 387.944,265.600 387.857,265.600 387.624 C 265.600 387.391,265.949 387.200,266.376 387.200 C 266.803 387.200,267.264 387.020,267.400 386.800 C 267.536 386.580,267.997 386.400,268.424 386.400 C 268.851 386.400,269.200 386.220,269.200 386.000 C 269.200 385.780,269.560 385.600,270.000 385.600 C 270.440 385.600,270.800 385.420,270.800 385.200 C 270.800 384.980,271.070 384.800,271.400 384.800 C 271.730 384.800,272.000 384.654,272.000 384.475 C 272.000 384.296,272.630 383.902,273.400 383.600 C 274.170 383.298,274.800 382.904,274.800 382.725 C 274.800 382.546,275.070 382.400,275.400 382.400 C 275.730 382.400,276.000 382.220,276.000 382.000 C 276.000 381.780,276.236 381.600,276.525 381.600 C 276.813 381.600,277.436 381.240,277.908 380.800 C 278.380 380.360,278.920 380.000,279.108 380.000 C 279.296 380.000,279.843 379.633,280.325 379.184 C 280.813 378.730,281.200 378.580,281.200 378.846 C 281.200 379.108,281.536 378.935,281.947 378.461 C 282.358 377.988,282.916 377.600,283.186 377.600 C 283.457 377.600,284.201 377.041,284.840 376.358 C 285.478 375.674,286.000 375.333,286.000 375.600 C 286.000 375.867,286.516 375.532,287.147 374.856 C 287.778 374.181,288.404 373.738,288.538 373.871 C 288.672 374.005,288.894 373.820,289.032 373.460 C 289.171 373.099,289.421 372.889,289.588 372.993 C 289.756 373.096,290.215 372.825,290.609 372.391 C 291.002 371.956,291.577 371.600,291.886 371.600 C 292.194 371.600,292.342 371.429,292.212 371.220 C 292.083 371.011,292.376 370.627,292.864 370.366 C 294.100 369.704,294.690 369.221,296.361 367.500 C 297.162 366.675,297.959 366.000,298.131 366.000 C 298.303 366.000,299.504 364.920,300.800 363.600 C 302.096 362.280,303.306 361.200,303.490 361.200 C 303.673 361.200,304.088 360.823,304.412 360.363 C 304.735 359.902,305.315 359.155,305.700 358.701 C 306.085 358.248,306.400 357.715,306.400 357.515 C 306.400 357.316,306.540 357.240,306.712 357.346 C 306.884 357.452,308.009 356.453,309.212 355.126 C 310.415 353.799,311.715 352.373,312.100 351.957 C 312.485 351.541,312.800 351.060,312.800 350.888 C 312.800 350.717,313.160 350.317,313.600 350.000 C 314.040 349.683,314.400 349.183,314.400 348.888 C 314.400 348.585,314.601 348.477,314.862 348.638 C 315.139 348.810,315.215 348.748,315.052 348.485 C 314.903 348.243,315.415 347.411,316.191 346.636 C 316.966 345.861,317.600 345.023,317.600 344.774 C 317.600 344.525,318.159 343.799,318.842 343.160 C 319.526 342.522,319.942 342.000,319.767 342.000 C 319.593 342.000,319.968 341.460,320.600 340.800 C 321.232 340.140,321.592 339.600,321.399 339.600 C 321.207 339.600,321.447 339.229,321.933 338.776 C 322.420 338.323,322.730 337.810,322.623 337.637 C 322.515 337.463,322.781 336.941,323.214 336.477 C 323.646 336.013,324.000 335.446,324.000 335.217 C 324.000 334.988,324.191 334.800,324.424 334.800 C 324.657 334.800,324.736 334.620,324.600 334.400 C 324.464 334.180,324.543 334.000,324.776 334.000 C 325.009 334.000,325.200 333.640,325.200 333.200 C 325.200 332.760,325.380 332.400,325.600 332.400 C 325.820 332.400,326.000 332.106,326.000 331.747 C 326.000 331.388,326.388 330.758,326.861 330.347 C 327.370 329.905,327.509 329.600,327.200 329.600 C 326.891 329.600,327.030 329.295,327.539 328.853 C 328.012 328.442,328.400 327.812,328.400 327.453 C 328.400 327.094,328.580 326.800,328.800 326.800 C 329.020 326.800,329.200 326.440,329.200 326.000 C 329.200 325.560,329.380 325.200,329.600 325.200 C 329.820 325.200,330.000 324.938,330.000 324.618 C 330.000 324.297,330.543 323.115,331.206 321.991 C 331.869 320.866,332.215 320.067,331.976 320.215 C 331.737 320.363,331.778 320.105,332.067 319.642 C 332.356 319.179,332.729 318.800,332.896 318.800 C 333.063 318.800,333.200 318.451,333.200 318.024 C 333.200 317.597,333.380 317.136,333.600 317.000 C 333.820 316.864,334.000 316.313,334.000 315.776 C 334.000 315.239,334.180 314.800,334.400 314.800 C 334.620 314.800,334.800 314.350,334.800 313.800 C 334.800 313.250,334.941 312.800,335.113 312.800 C 335.285 312.800,335.466 312.305,335.516 311.700 C 335.566 311.095,335.785 310.540,336.003 310.467 C 336.222 310.393,336.400 310.018,336.400 309.633 C 336.400 309.248,336.525 308.809,336.677 308.656 C 336.829 308.504,337.014 307.987,337.087 307.507 C 337.160 307.027,337.411 306.517,337.644 306.373 C 337.877 306.228,338.020 306.041,337.961 305.955 C 337.903 305.870,337.997 305.350,338.171 304.800 C 338.346 304.250,338.573 303.261,338.677 302.603 C 338.781 301.945,338.995 301.315,339.152 301.203 C 339.310 301.091,339.480 300.377,339.532 299.616 C 339.583 298.854,339.761 298.134,339.926 298.016 C 340.092 297.897,340.246 297.193,340.269 296.451 C 340.292 295.709,340.514 294.977,340.762 294.823 C 341.011 294.670,341.327 293.072,341.466 291.272 C 341.605 289.472,341.842 288.000,341.994 288.000 C 342.145 288.000,342.309 286.875,342.357 285.500 C 342.406 284.125,342.616 282.829,342.823 282.620 C 343.030 282.411,343.200 281.207,343.200 279.944 C 343.200 278.681,343.384 277.534,343.609 277.395 C 343.876 277.230,344.008 271.955,343.990 262.159 C 343.973 252.757,343.821 247.263,343.582 247.411 C 343.354 247.552,343.200 246.596,343.200 245.047 C 343.200 243.617,343.020 242.336,342.800 242.200 C 342.580 242.064,342.400 240.883,342.400 239.576 C 342.400 238.269,342.247 237.200,342.059 237.200 C 341.872 237.200,341.605 235.727,341.466 233.927 C 341.327 232.127,341.031 230.471,340.807 230.247 C 340.583 230.023,340.400 229.282,340.400 228.600 C 340.400 227.918,340.247 227.189,340.059 226.980 C 339.641 226.514,338.809 223.398,338.703 221.900 C 338.660 221.295,338.485 220.800,338.313 220.800 C 338.141 220.800,338.000 220.361,338.000 219.824 C 338.000 219.287,337.845 218.751,337.655 218.634 C 337.465 218.517,337.080 217.601,336.800 216.600 C 336.520 215.599,336.135 214.683,335.945 214.566 C 335.755 214.449,335.600 213.823,335.600 213.176 C 335.600 212.529,335.420 212.000,335.200 212.000 C 334.980 212.000,334.800 211.728,334.800 211.395 C 334.800 211.062,334.641 210.477,334.447 210.095 C 334.252 209.713,333.870 208.860,333.598 208.200 C 333.325 207.540,332.859 206.530,332.562 205.956 C 332.264 205.382,332.136 204.797,332.277 204.656 C 332.418 204.515,332.323 204.400,332.067 204.400 C 331.810 204.400,331.600 204.010,331.600 203.533 C 331.600 203.057,331.483 202.784,331.339 202.927 C 331.040 203.227,330.000 201.384,330.000 200.554 C 330.000 200.249,329.820 200.000,329.600 200.000 C 329.380 200.000,329.200 199.651,329.200 199.224 C 329.200 198.797,329.020 198.336,328.800 198.200 C 328.580 198.064,328.400 197.603,328.400 197.176 C 328.400 196.749,328.220 196.400,328.000 196.400 C 327.780 196.400,327.597 195.995,327.594 195.500 C 327.589 194.772,327.514 194.715,327.200 195.200 C 326.886 195.685,326.811 195.628,326.806 194.900 C 326.803 194.405,326.620 194.000,326.400 194.000 C 326.180 194.000,326.000 193.640,326.000 193.200 C 326.000 192.760,325.820 192.400,325.600 192.400 C 325.380 192.400,325.200 192.130,325.200 191.800 C 325.200 191.470,325.009 191.200,324.776 191.200 C 324.543 191.200,324.452 191.039,324.574 190.842 C 324.696 190.645,324.529 190.382,324.204 190.257 C 323.879 190.132,323.711 189.777,323.830 189.467 C 323.949 189.157,323.785 188.803,323.467 188.681 C 322.873 188.453,321.600 186.234,321.600 185.427 C 321.600 185.179,321.240 184.717,320.800 184.400 C 320.360 184.083,320.000 183.627,320.000 183.387 C 320.000 183.146,319.460 182.432,318.800 181.800 C 318.140 181.168,317.600 180.459,317.600 180.225 C 317.599 179.676,315.780 177.554,315.527 177.807 C 315.421 177.912,315.080 177.504,314.770 176.899 C 314.460 176.295,313.922 175.530,313.575 175.200 C 313.228 174.870,312.828 174.285,312.685 173.900 C 312.542 173.515,312.149 173.200,311.813 173.200 C 311.476 173.200,311.200 172.934,311.200 172.609 C 311.200 171.985,310.306 170.972,304.217 164.700 C 302.134 162.555,300.244 160.800,300.015 160.800 C 299.787 160.800,299.600 160.500,299.600 160.133 C 299.600 159.767,299.482 159.584,299.338 159.728 C 299.195 159.872,298.578 159.468,297.969 158.831 C 297.360 158.193,296.758 157.776,296.631 157.903 C 296.504 158.029,296.400 157.913,296.400 157.643 C 296.400 157.373,296.220 157.264,296.000 157.400 C 295.780 157.536,295.600 157.361,295.600 157.011 C 295.600 156.661,295.285 156.254,294.901 156.107 C 294.517 155.959,293.802 155.439,293.314 154.950 C 292.825 154.462,292.057 153.945,291.607 153.802 C 291.157 153.659,290.892 153.375,291.018 153.171 C 291.144 152.967,290.956 152.800,290.600 152.800 C 290.244 152.800,290.052 152.640,290.173 152.444 C 290.294 152.248,289.800 151.806,289.075 151.462 C 287.865 150.888,286.950 150.193,284.514 147.998 C 284.027 147.559,283.463 147.200,283.260 147.200 C 282.571 147.200,280.811 146.122,281.073 145.861 C 281.216 145.717,281.033 145.600,280.667 145.600 C 280.300 145.600,280.000 145.390,280.000 145.133 C 280.000 144.877,279.888 144.779,279.750 144.916 C 279.395 145.271,276.405 143.677,276.142 142.993 C 276.021 142.679,275.312 142.307,274.565 142.167 C 273.818 142.027,273.286 141.785,273.382 141.629 C 273.479 141.472,273.030 141.422,272.386 141.517 C 271.588 141.634,270.223 141.210,268.107 140.188 C 263.214 137.825,259.980 136.393,257.600 135.536 C 256.390 135.100,255.040 134.588,254.600 134.398 C 254.160 134.208,253.080 133.823,252.200 133.543 C 251.320 133.263,250.420 132.923,250.200 132.789 C 249.980 132.654,248.990 132.313,248.000 132.030 C 247.010 131.748,245.787 131.355,245.281 131.158 C 244.776 130.961,243.931 130.800,243.405 130.800 C 242.878 130.800,242.336 130.620,242.200 130.400 C 242.064 130.180,241.344 130.000,240.600 130.000 C 239.856 130.000,239.136 129.820,239.000 129.600 C 238.864 129.380,238.169 129.200,237.456 129.200 C 236.743 129.200,235.989 129.038,235.780 128.841 C 235.571 128.644,234.680 128.379,233.800 128.253 C 232.920 128.126,231.030 127.833,229.600 127.600 C 228.170 127.367,225.830 126.990,224.400 126.762 C 222.970 126.534,219.190 126.195,216.000 126.008 C 212.810 125.821,208.850 125.544,207.200 125.392 C 205.550 125.240,204.063 125.257,203.895 125.430 M213.042 162.798 C 258.183 166.281,295.934 199.489,304.217 243.000 C 304.552 244.760,304.997 247.100,305.205 248.200 C 306.564 255.355,306.531 268.707,305.135 277.200 C 304.211 282.823,302.075 291.934,301.243 293.800 C 300.415 295.655,299.200 298.937,299.200 299.315 C 299.200 300.122,293.636 311.092,291.444 314.609 C 288.792 318.862,287.936 320.075,283.832 325.398 C 282.710 326.855,279.965 329.894,276.963 333.005 C 267.149 343.175,254.053 351.356,238.200 357.219 C 221.900 363.248,198.916 363.966,180.533 359.021 C 175.262 357.603,171.401 356.334,170.932 355.865 C 170.786 355.719,170.423 355.600,170.125 355.600 C 169.641 355.600,168.157 354.945,161.000 351.572 C 159.900 351.053,157.560 349.740,155.800 348.654 C 154.040 347.568,152.238 346.482,151.795 346.240 C 144.040 342.000,126.872 324.834,122.557 317.005 C 122.313 316.562,121.332 314.940,120.378 313.400 C 118.590 310.515,114.545 302.477,113.634 300.000 C 113.351 299.230,112.974 298.240,112.797 297.800 C 104.931 278.285,104.419 249.963,111.581 230.600 C 117.418 214.819,125.476 201.877,135.617 192.000 C 137.377 190.285,142.241 185.829,143.039 185.200 C 143.888 184.530,148.114 181.384,149.624 180.298 C 153.890 177.228,168.067 169.600,169.506 169.600 C 169.867 169.600,173.188 168.365,175.000 167.557 C 176.005 167.109,182.953 165.312,186.400 164.609 C 195.904 162.669,204.130 162.110,213.042 162.798 M196.800 188.212 C 169.237 192.353,146.178 210.192,136.840 234.600 C 136.335 235.920,135.776 237.360,135.597 237.800 C 134.902 239.514,134.764 239.961,133.596 244.300 C 131.149 253.395,130.661 266.603,132.450 275.321 C 133.256 279.245,134.461 284.201,134.804 285.000 C 134.993 285.440,135.376 286.520,135.655 287.400 C 135.935 288.280,136.307 289.171,136.482 289.380 C 136.657 289.589,136.800 289.991,136.800 290.273 C 136.800 293.797,146.544 308.543,153.403 315.399 C 160.285 322.277,175.007 332.000,178.540 332.000 C 178.815 332.000,179.211 332.143,179.420 332.318 C 179.629 332.493,180.520 332.865,181.400 333.145 C 182.280 333.424,183.360 333.807,183.800 333.996 C 184.599 334.339,189.555 335.544,193.479 336.350 C 202.197 338.139,215.405 337.651,224.500 335.204 C 228.839 334.036,229.286 333.898,231.000 333.203 C 231.440 333.024,232.880 332.465,234.200 331.960 C 243.452 328.420,253.879 321.210,261.154 313.321 C 282.416 290.266,287.191 257.439,273.350 229.481 C 272.174 227.106,270.670 224.373,270.006 223.409 C 269.343 222.445,268.800 221.561,268.800 221.445 C 268.800 219.005,249.805 200.000,247.366 200.000 C 247.244 200.000,246.355 199.457,245.391 198.794 C 235.611 192.065,219.450 187.525,205.723 187.651 C 202.686 187.678,198.670 187.931,196.800 188.212 " stroke="none" fill="#e3e3e3" fill-rule="evenodd"></path><path id="path2" d="M196.400 125.600 L 193.000 125.851 197.000 125.902 C 199.200 125.931,201.720 125.805,202.600 125.623 C 204.624 125.204,201.898 125.194,196.400 125.600 M210.200 125.610 C 211.742 125.941,219.507 126.152,219.167 125.854 C 219.075 125.773,216.660 125.608,213.800 125.487 C 210.468 125.346,209.175 125.390,210.200 125.610 M188.400 126.400 L 187.000 126.695 188.400 126.741 C 189.170 126.767,190.070 126.613,190.400 126.400 C 191.127 125.930,190.633 125.930,188.400 126.400 M222.000 126.400 C 222.330 126.613,223.230 126.769,224.000 126.747 L 225.400 126.705 224.200 126.400 C 222.324 125.923,221.261 125.923,222.000 126.400 M183.000 127.200 L 181.400 127.486 183.000 127.537 C 183.880 127.565,184.870 127.413,185.200 127.200 C 185.915 126.738,185.581 126.738,183.000 127.200 M227.200 127.200 C 227.530 127.413,228.430 127.569,229.200 127.547 L 230.600 127.505 229.400 127.200 C 227.524 126.723,226.461 126.723,227.200 127.200 M178.200 128.000 L 177.000 128.305 178.200 128.347 C 178.860 128.369,179.670 128.213,180.000 128.000 C 180.743 127.520,180.087 127.520,178.200 128.000 M232.400 128.000 C 232.730 128.213,233.450 128.373,234.000 128.354 L 235.000 128.320 234.000 128.000 C 232.458 127.506,231.636 127.506,232.400 128.000 M175.000 128.800 L 174.200 129.144 175.000 129.166 C 175.440 129.178,176.070 129.013,176.400 128.800 C 177.195 128.286,176.196 128.286,175.000 128.800 M171.800 129.600 C 170.693 129.882,170.677 129.909,171.600 129.947 C 172.150 129.969,172.870 129.813,173.200 129.600 C 173.881 129.160,173.529 129.160,171.800 129.600 M239.200 129.582 C 239.530 129.805,240.145 129.991,240.567 129.994 C 241.590 130.002,241.271 129.773,239.800 129.444 C 238.924 129.248,238.762 129.285,239.200 129.582 M169.000 130.270 C 167.643 130.571,163.105 131.994,161.000 132.778 C 154.191 135.314,150.149 136.949,149.800 137.307 C 149.347 137.772,149.313 137.784,153.400 136.084 C 154.940 135.443,157.370 134.521,158.800 134.033 C 160.230 133.546,161.760 132.987,162.200 132.790 C 163.571 132.177,168.101 130.800,168.766 130.794 C 169.115 130.791,169.670 130.613,170.000 130.400 C 170.621 129.999,170.371 129.966,169.000 130.270 M242.190 130.384 C 242.332 130.613,242.917 130.800,243.490 130.800 C 244.744 130.800,244.599 130.608,243.066 130.240 C 242.323 130.062,242.021 130.111,242.190 130.384 M245.600 131.182 C 245.930 131.405,246.545 131.591,246.967 131.594 C 247.990 131.602,247.671 131.373,246.200 131.044 C 245.324 130.848,245.162 130.885,245.600 131.182 M250.170 132.752 C 250.290 132.946,250.796 133.199,251.294 133.314 C 251.792 133.429,252.809 133.715,253.554 133.949 C 255.645 134.607,254.663 133.961,252.317 133.135 C 249.914 132.288,249.880 132.282,250.170 132.752 M256.226 134.965 C 258.244 135.844,259.526 136.059,257.800 135.229 C 256.920 134.806,255.930 134.453,255.600 134.445 C 255.270 134.438,255.552 134.672,256.226 134.965 M259.654 136.187 C 259.967 136.500,262.800 137.623,262.800 137.435 C 262.800 137.191,260.369 136.000,259.872 136.000 C 259.649 136.000,259.551 136.084,259.654 136.187 M134.884 145.066 C 133.940 145.635,133.248 146.181,133.347 146.280 C 133.524 146.457,136.800 144.433,136.800 144.147 C 136.800 143.921,136.717 143.960,134.884 145.066 M204.696 163.037 C 204.529 163.204,202.010 163.481,199.097 163.653 C 196.183 163.825,192.630 164.150,191.200 164.373 C 189.770 164.597,187.790 164.893,186.800 165.031 C 185.810 165.169,184.829 165.444,184.620 165.641 C 184.411 165.838,183.657 166.000,182.944 166.000 C 182.231 166.000,181.536 166.180,181.400 166.400 C 181.264 166.620,180.771 166.800,180.305 166.800 C 179.404 166.800,177.061 167.465,175.905 168.049 C 175.523 168.242,174.878 168.400,174.472 168.400 C 174.066 168.400,173.614 168.519,173.468 168.665 C 173.322 168.811,172.295 169.250,171.187 169.641 C 167.510 170.936,159.881 174.419,159.667 174.900 C 159.593 175.065,159.188 175.200,158.767 175.200 C 158.345 175.200,158.000 175.380,158.000 175.600 C 158.000 175.820,157.764 176.000,157.475 176.000 C 157.187 176.000,156.594 176.315,156.158 176.700 C 155.153 177.588,153.209 178.783,152.300 179.071 C 151.915 179.193,151.600 179.452,151.600 179.647 C 151.600 179.841,151.330 180.000,151.000 180.000 C 150.670 180.000,150.400 180.141,150.400 180.314 C 150.400 180.486,149.867 180.943,149.215 181.328 C 148.563 181.713,147.798 182.253,147.515 182.527 C 147.232 182.802,146.370 183.464,145.600 184.000 C 144.830 184.536,143.994 185.160,143.742 185.387 C 143.489 185.614,142.064 186.880,140.574 188.200 C 136.761 191.578,134.594 193.752,131.600 197.203 C 130.171 198.851,128.902 200.290,128.781 200.400 C 128.660 200.510,128.129 201.230,127.600 202.000 C 127.071 202.770,126.531 203.490,126.399 203.600 C 126.267 203.710,125.538 204.700,124.779 205.800 C 124.021 206.900,123.310 207.890,123.200 208.000 C 123.090 208.110,122.568 209.010,122.041 210.000 C 121.513 210.990,120.857 212.070,120.584 212.400 C 120.026 213.073,117.142 218.702,116.332 220.700 C 116.042 221.415,115.669 222.000,115.502 222.000 C 115.336 222.000,115.200 222.272,115.200 222.605 C 115.200 222.938,115.041 223.523,114.847 223.905 C 114.652 224.287,114.271 225.140,114.000 225.800 C 113.729 226.460,113.348 227.313,113.153 227.695 C 112.959 228.077,112.800 228.752,112.800 229.195 C 112.800 229.638,112.620 230.000,112.400 230.000 C 112.180 230.000,112.000 230.439,112.000 230.976 C 112.000 231.513,111.820 232.064,111.600 232.200 C 111.380 232.336,111.200 232.966,111.200 233.600 C 111.200 234.234,111.020 234.864,110.800 235.000 C 110.580 235.136,110.400 235.766,110.400 236.400 C 110.400 237.034,110.220 237.664,110.000 237.800 C 109.780 237.936,109.600 238.631,109.600 239.344 C 109.600 240.057,109.437 240.811,109.239 241.020 C 109.040 241.229,108.775 242.210,108.650 243.200 C 108.525 244.190,108.231 246.260,107.996 247.800 C 106.834 255.439,106.833 269.778,107.996 277.400 C 108.230 278.940,108.525 281.010,108.650 282.000 C 108.775 282.990,109.040 283.971,109.239 284.180 C 109.437 284.389,109.600 285.053,109.600 285.656 C 109.600 286.259,109.780 286.864,110.000 287.000 C 110.220 287.136,110.400 287.856,110.400 288.600 C 110.400 289.344,110.580 290.064,110.800 290.200 C 111.020 290.336,111.200 290.889,111.200 291.429 C 111.200 291.969,111.359 292.723,111.553 293.105 C 112.029 294.040,112.618 295.507,113.200 297.200 C 113.937 299.346,114.166 299.876,116.408 304.600 C 118.567 309.149,124.069 318.686,125.300 320.012 C 125.685 320.427,126.000 320.874,126.000 321.005 C 126.000 321.136,126.539 321.819,127.198 322.522 C 127.857 323.225,128.397 323.932,128.398 324.093 C 128.404 325.036,143.764 340.396,144.707 340.402 C 144.868 340.403,145.575 340.943,146.278 341.602 C 146.981 342.261,147.664 342.800,147.795 342.800 C 147.926 342.800,148.379 343.122,148.802 343.516 C 150.129 344.753,159.608 350.218,164.200 352.394 C 168.927 354.635,169.456 354.864,171.600 355.600 C 173.293 356.182,174.760 356.771,175.695 357.247 C 176.077 357.441,176.831 357.600,177.371 357.600 C 177.911 357.600,178.464 357.780,178.600 358.000 C 178.736 358.220,179.456 358.400,180.200 358.400 C 180.944 358.400,181.664 358.580,181.800 358.800 C 181.936 359.020,182.541 359.200,183.144 359.200 C 183.747 359.200,184.411 359.363,184.620 359.561 C 184.829 359.760,185.810 360.025,186.800 360.150 C 187.790 360.275,189.860 360.570,191.400 360.804 C 199.022 361.967,213.361 361.966,221.000 360.804 C 222.540 360.569,224.610 360.275,225.600 360.150 C 226.590 360.025,227.571 359.760,227.780 359.561 C 227.989 359.363,228.743 359.200,229.456 359.200 C 230.169 359.200,230.864 359.020,231.000 358.800 C 231.136 358.580,231.766 358.400,232.400 358.400 C 233.034 358.400,233.664 358.220,233.800 358.000 C 233.936 357.780,234.566 357.600,235.200 357.600 C 235.834 357.600,236.464 357.420,236.600 357.200 C 236.736 356.980,237.287 356.800,237.824 356.800 C 238.361 356.800,238.800 356.620,238.800 356.400 C 238.800 356.180,239.162 356.000,239.605 356.000 C 240.048 356.000,240.723 355.841,241.105 355.647 C 241.487 355.452,242.340 355.071,243.000 354.800 C 243.660 354.529,244.513 354.148,244.895 353.953 C 245.277 353.759,245.862 353.600,246.195 353.600 C 246.528 353.600,246.800 353.464,246.800 353.298 C 246.800 353.131,247.385 352.758,248.100 352.468 C 250.098 351.658,255.727 348.774,256.400 348.216 C 256.730 347.943,257.810 347.287,258.800 346.759 C 259.790 346.232,260.690 345.710,260.800 345.600 C 260.910 345.490,261.900 344.779,263.000 344.021 C 264.100 343.262,265.090 342.533,265.200 342.401 C 265.310 342.269,266.030 341.729,266.800 341.200 C 267.570 340.671,268.290 340.140,268.400 340.019 C 268.510 339.898,269.949 338.629,271.597 337.200 C 275.048 334.206,277.222 332.039,280.600 328.226 C 281.920 326.736,283.186 325.311,283.413 325.058 C 283.640 324.806,284.264 323.970,284.800 323.200 C 285.336 322.430,285.998 321.568,286.273 321.285 C 286.547 321.002,287.087 320.237,287.472 319.585 C 287.857 318.933,288.314 318.400,288.486 318.400 C 288.659 318.400,288.800 318.130,288.800 317.800 C 288.800 317.470,288.959 317.200,289.153 317.200 C 289.348 317.200,289.607 316.885,289.729 316.500 C 290.017 315.591,291.212 313.647,292.100 312.642 C 292.485 312.206,292.800 311.613,292.800 311.325 C 292.800 311.036,292.980 310.800,293.200 310.800 C 293.420 310.800,293.600 310.455,293.600 310.033 C 293.600 309.612,293.735 309.207,293.900 309.133 C 294.381 308.919,297.864 301.290,299.159 297.613 C 299.550 296.505,299.989 295.478,300.135 295.332 C 300.281 295.186,300.400 294.734,300.400 294.328 C 300.400 293.922,300.558 293.277,300.751 292.895 C 301.335 291.739,302.000 289.396,302.000 288.495 C 302.000 288.029,302.180 287.536,302.400 287.400 C 302.620 287.264,302.800 286.569,302.800 285.856 C 302.800 285.143,302.962 284.389,303.159 284.180 C 303.356 283.971,303.631 282.990,303.769 282.000 C 303.907 281.010,304.203 279.030,304.427 277.600 C 304.869 274.777,305.665 265.181,305.672 262.600 C 305.682 258.760,305.117 250.531,304.793 249.800 C 304.598 249.360,304.345 248.100,304.230 247.000 C 303.763 242.524,303.505 240.982,303.161 240.620 C 302.963 240.411,302.800 239.747,302.800 239.144 C 302.800 238.541,302.620 237.936,302.400 237.800 C 302.180 237.664,302.000 237.021,302.000 236.371 C 302.000 235.721,301.843 234.877,301.650 234.495 C 301.458 234.113,300.844 232.450,300.286 230.800 C 298.380 225.157,297.562 223.114,295.507 218.859 C 294.375 216.516,293.349 214.510,293.225 214.400 C 292.838 214.056,291.561 211.834,291.329 211.100 C 291.207 210.715,290.948 210.400,290.753 210.400 C 290.559 210.400,290.400 210.207,290.400 209.972 C 290.400 209.585,288.574 206.736,287.347 205.209 C 287.078 204.874,285.911 203.340,284.755 201.800 C 283.598 200.260,282.368 198.730,282.021 198.400 C 281.674 198.070,280.403 196.630,279.195 195.200 C 276.517 192.028,276.772 192.283,273.600 189.605 C 272.170 188.397,270.730 187.126,270.400 186.779 C 270.070 186.432,268.540 185.202,267.000 184.045 C 265.460 182.889,263.926 181.722,263.591 181.453 C 262.064 180.226,259.215 178.400,258.828 178.400 C 258.593 178.400,258.400 178.241,258.400 178.047 C 258.400 177.852,258.085 177.593,257.700 177.471 C 256.966 177.239,254.744 175.962,254.400 175.575 C 254.290 175.451,252.284 174.425,249.941 173.293 C 245.686 171.238,243.643 170.420,238.000 168.514 C 236.350 167.956,234.687 167.342,234.305 167.150 C 233.923 166.957,233.079 166.800,232.429 166.800 C 231.779 166.800,231.136 166.620,231.000 166.400 C 230.864 166.180,230.259 166.000,229.656 166.000 C 229.053 166.000,228.389 165.837,228.180 165.639 C 227.818 165.295,226.276 165.037,221.800 164.570 C 220.700 164.455,219.440 164.202,219.000 164.007 C 218.560 163.812,215.950 163.548,213.200 163.419 C 210.450 163.291,207.480 163.084,206.599 162.960 C 205.719 162.836,204.862 162.871,204.696 163.037 M218.000 187.946 C 219.430 188.185,221.366 188.494,222.303 188.632 C 223.239 188.771,224.105 189.045,224.226 189.242 C 224.348 189.439,224.966 189.600,225.600 189.600 C 226.234 189.600,226.864 189.780,227.000 190.000 C 227.136 190.220,227.689 190.400,228.229 190.400 C 229.175 190.400,229.541 190.528,231.495 191.538 C 231.987 191.792,232.752 192.000,233.195 192.000 C 233.638 192.000,234.000 192.180,234.000 192.400 C 234.000 192.620,234.450 192.800,235.000 192.800 C 235.550 192.800,236.000 192.980,236.000 193.200 C 236.000 193.420,236.245 193.600,236.545 193.600 C 237.502 193.600,248.984 199.896,249.600 200.758 C 249.710 200.913,250.430 201.474,251.200 202.006 C 251.970 202.538,252.811 203.160,253.068 203.387 C 253.326 203.614,254.667 204.790,256.048 206.000 C 259.185 208.747,260.053 209.615,262.800 212.752 C 264.010 214.133,265.186 215.474,265.413 215.732 C 265.640 215.989,266.262 216.830,266.794 217.600 C 267.326 218.370,267.887 219.090,268.042 219.200 C 268.904 219.816,275.200 231.298,275.200 232.255 C 275.200 232.555,275.380 232.800,275.600 232.800 C 275.820 232.800,276.000 233.250,276.000 233.800 C 276.000 234.350,276.180 234.800,276.400 234.800 C 276.620 234.800,276.800 235.162,276.800 235.605 C 276.800 236.048,277.008 236.813,277.262 237.305 C 278.272 239.259,278.400 239.625,278.400 240.571 C 278.400 241.111,278.580 241.664,278.800 241.800 C 279.020 241.936,279.200 242.566,279.200 243.200 C 279.200 243.834,279.361 244.452,279.558 244.574 C 279.755 244.695,280.029 245.561,280.168 246.497 C 280.306 247.434,280.618 249.370,280.861 250.800 C 281.731 255.925,281.345 275.926,280.357 276.980 C 280.160 277.189,280.000 277.943,280.000 278.656 C 280.000 279.369,279.820 280.064,279.600 280.200 C 279.380 280.336,279.200 281.056,279.200 281.800 C 279.200 282.544,279.020 283.264,278.800 283.400 C 278.580 283.536,278.400 284.177,278.400 284.824 C 278.400 285.471,278.220 286.000,278.000 286.000 C 277.780 286.000,277.600 286.362,277.600 286.805 C 277.600 287.248,277.420 287.968,277.200 288.405 C 276.980 288.842,276.620 289.558,276.400 289.995 C 276.180 290.432,276.000 291.152,276.000 291.595 C 276.000 292.038,275.865 292.401,275.700 292.403 C 275.341 292.407,274.400 294.344,274.400 295.080 C 274.400 295.366,274.220 295.600,274.000 295.600 C 273.780 295.600,273.600 295.865,273.600 296.188 C 273.600 297.216,267.723 306.847,266.392 308.000 C 266.265 308.110,265.730 308.830,265.203 309.600 C 263.745 311.730,255.335 319.956,252.400 322.124 C 250.970 323.180,249.483 324.305,249.095 324.622 C 248.708 324.940,248.213 325.200,247.995 325.200 C 247.778 325.200,247.600 325.336,247.600 325.502 C 247.600 325.669,247.015 326.064,246.300 326.380 C 245.585 326.697,244.651 327.280,244.225 327.678 C 243.798 328.075,243.213 328.400,242.925 328.400 C 242.636 328.400,242.400 328.580,242.400 328.800 C 242.400 329.020,242.040 329.200,241.600 329.200 C 241.160 329.200,240.800 329.380,240.800 329.600 C 240.800 329.820,240.440 330.000,240.000 330.000 C 239.560 330.000,239.200 330.180,239.200 330.400 C 239.200 330.620,238.947 330.800,238.638 330.800 C 238.329 330.800,237.294 331.186,236.338 331.657 C 234.508 332.559,233.872 332.820,231.600 333.600 C 230.830 333.864,229.840 334.222,229.400 334.395 C 228.284 334.833,224.699 335.779,220.400 336.770 C 209.800 339.213,188.861 337.499,181.105 333.553 C 180.723 333.359,180.136 333.200,179.800 333.200 C 179.464 333.200,178.877 333.038,178.495 332.840 C 178.113 332.642,175.820 331.520,173.400 330.345 C 170.980 329.171,168.940 328.073,168.867 327.905 C 168.793 327.737,168.478 327.600,168.167 327.600 C 167.855 327.600,167.600 327.420,167.600 327.200 C 167.600 326.980,167.330 326.800,167.000 326.800 C 166.670 326.800,166.400 326.620,166.400 326.400 C 166.400 326.180,166.207 326.000,165.972 326.000 C 165.513 326.000,162.166 323.798,161.236 322.884 C 160.926 322.579,160.001 321.906,159.180 321.388 C 157.246 320.166,148.634 311.554,147.412 309.620 C 146.894 308.799,146.221 307.874,145.916 307.564 C 145.002 306.634,142.800 303.287,142.800 302.828 C 142.800 302.593,142.620 302.400,142.400 302.400 C 142.180 302.400,142.000 302.130,142.000 301.800 C 142.000 301.470,141.820 301.200,141.600 301.200 C 141.380 301.200,141.200 300.945,141.200 300.633 C 141.200 300.322,141.063 300.007,140.895 299.933 C 140.727 299.860,139.629 297.820,138.455 295.400 C 137.280 292.980,136.158 290.687,135.960 290.305 C 135.762 289.923,135.600 289.336,135.600 289.000 C 135.600 288.664,135.441 288.077,135.247 287.695 C 131.301 279.939,129.587 259.000,132.030 248.400 C 132.941 244.447,134.002 240.426,134.405 239.400 C 134.578 238.960,134.936 237.970,135.200 237.200 C 135.980 234.928,136.241 234.292,137.143 232.462 C 137.614 231.506,138.000 230.471,138.000 230.162 C 138.000 229.853,138.180 229.600,138.400 229.600 C 138.620 229.600,138.800 229.240,138.800 228.800 C 138.800 228.360,138.980 228.000,139.200 228.000 C 139.420 228.000,139.600 227.640,139.600 227.200 C 139.600 226.760,139.780 226.400,140.000 226.400 C 140.220 226.400,140.400 226.164,140.400 225.875 C 140.400 225.587,140.725 225.002,141.122 224.575 C 141.520 224.149,142.103 223.215,142.420 222.500 C 142.736 221.785,143.131 221.200,143.298 221.200 C 143.464 221.200,143.600 221.022,143.600 220.805 C 143.600 220.587,143.860 220.092,144.178 219.705 C 144.495 219.317,145.620 217.830,146.676 216.400 C 148.844 213.465,157.070 205.055,159.200 203.597 C 159.970 203.070,160.690 202.535,160.800 202.408 C 161.953 201.077,171.584 195.200,172.612 195.200 C 172.935 195.200,173.200 195.020,173.200 194.800 C 173.200 194.580,173.560 194.400,174.000 194.400 C 174.440 194.400,174.800 194.220,174.800 194.000 C 174.800 193.780,175.160 193.600,175.600 193.600 C 176.040 193.600,176.400 193.420,176.400 193.200 C 176.400 192.980,176.762 192.800,177.205 192.800 C 177.648 192.800,178.368 192.620,178.805 192.400 C 179.242 192.180,179.958 191.820,180.395 191.600 C 180.832 191.380,181.552 191.200,181.995 191.200 C 182.438 191.200,182.800 191.020,182.800 190.800 C 182.800 190.580,183.329 190.400,183.976 190.400 C 184.623 190.400,185.264 190.220,185.400 190.000 C 185.536 189.780,186.256 189.600,187.000 189.600 C 187.744 189.600,188.464 189.420,188.600 189.200 C 188.736 188.980,189.456 188.800,190.200 188.800 C 190.944 188.800,191.664 188.620,191.800 188.400 C 191.936 188.180,192.982 187.987,194.124 187.972 C 195.266 187.956,196.560 187.786,197.000 187.593 C 198.076 187.120,214.733 187.400,218.000 187.946 " stroke="none" fill="#cccccc" fill-rule="evenodd"></path><path id="path3" d="M193.200 125.192 C 192.650 125.373,191.176 125.538,189.924 125.560 C 188.672 125.582,187.536 125.780,187.400 126.000 C 187.264 126.220,186.094 126.400,184.800 126.400 C 183.506 126.400,182.336 126.580,182.200 126.800 C 181.865 127.341,182.766 127.303,187.000 126.595 C 196.316 125.038,216.703 124.909,224.234 126.359 C 225.315 126.567,227.640 126.953,229.400 127.216 C 231.160 127.479,235.097 128.311,238.149 129.065 C 241.201 129.818,243.787 130.346,243.896 130.237 C 244.005 130.128,243.578 129.918,242.947 129.770 C 242.316 129.622,240.810 129.235,239.600 128.912 C 234.536 127.556,231.278 126.926,222.200 125.546 C 218.793 125.029,194.599 124.733,193.200 125.192 M177.400 127.600 C 177.264 127.820,176.771 128.000,176.305 128.000 C 175.838 128.000,174.904 128.174,174.228 128.387 C 173.553 128.600,171.380 129.159,169.400 129.630 C 166.278 130.372,159.442 132.552,157.000 133.584 C 156.560 133.770,155.120 134.336,153.800 134.842 C 152.480 135.348,150.437 136.265,149.259 136.881 C 148.082 137.496,146.867 138.000,146.559 138.000 C 146.252 138.000,146.000 138.180,146.000 138.400 C 146.000 138.620,145.640 138.800,145.200 138.800 C 144.760 138.800,144.400 138.980,144.400 139.200 C 144.400 139.420,144.040 139.600,143.600 139.600 C 143.160 139.600,142.800 139.780,142.800 140.000 C 142.800 140.220,142.528 140.400,142.195 140.400 C 141.639 140.400,140.078 141.122,139.600 141.600 C 139.490 141.710,138.995 142.025,138.500 142.300 C 138.005 142.575,137.195 143.025,136.700 143.300 C 136.205 143.575,135.710 143.890,135.600 144.000 C 135.344 144.256,133.781 145.163,132.015 146.081 C 131.142 146.535,130.899 146.800,131.358 146.800 C 131.758 146.800,134.001 145.646,136.342 144.235 C 141.317 141.238,150.746 136.622,155.600 134.807 C 157.470 134.108,159.720 133.261,160.600 132.925 C 164.265 131.526,176.762 128.156,180.800 127.477 C 181.350 127.385,180.866 127.284,179.724 127.254 C 178.582 127.225,177.536 127.380,177.400 127.600 M245.200 130.800 C 246.742 131.294,247.564 131.294,246.800 130.800 C 246.470 130.587,245.750 130.427,245.200 130.446 L 244.200 130.480 245.200 130.800 M248.600 131.783 C 250.351 132.539,251.847 132.949,251.493 132.576 C 251.132 132.196,248.382 131.200,247.800 131.239 C 247.580 131.253,247.940 131.498,248.600 131.783 M252.400 133.200 C 252.730 133.413,253.270 133.588,253.600 133.588 C 254.133 133.588,254.133 133.545,253.600 133.200 C 253.270 132.987,252.730 132.812,252.400 132.812 C 251.867 132.812,251.867 132.855,252.400 133.200 M254.600 134.000 C 254.736 134.220,255.092 134.400,255.390 134.400 C 255.689 134.400,256.787 134.766,257.829 135.213 C 258.872 135.659,259.911 135.963,260.139 135.887 C 260.366 135.811,259.248 135.266,257.653 134.675 C 254.406 133.471,254.252 133.437,254.600 134.000 M260.800 136.174 C 260.800 136.593,271.782 141.619,272.359 141.464 C 272.912 141.316,272.915 141.286,272.381 141.246 C 272.040 141.221,269.376 140.030,266.461 138.600 C 261.167 136.004,260.800 135.846,260.800 136.174 " stroke="none" fill="#d8847c" fill-rule="evenodd"></path><path id="path4" d="M198.800 162.831 C 191.278 163.468,178.467 166.012,175.000 167.557 C 173.188 168.365,169.867 169.600,169.506 169.600 C 168.067 169.600,153.890 177.228,149.624 180.298 C 148.114 181.384,143.888 184.530,143.039 185.200 C 142.241 185.829,137.377 190.285,135.617 192.000 C 127.015 200.379,117.996 214.005,113.643 225.200 C 111.140 231.636,110.819 232.617,109.412 238.121 C 108.004 243.626,107.603 246.433,108.400 245.200 C 108.613 244.870,108.791 243.846,108.794 242.924 C 108.797 242.002,108.980 241.136,109.200 241.000 C 109.420 240.864,109.600 240.144,109.600 239.400 C 109.600 238.656,109.780 237.936,110.000 237.800 C 110.220 237.664,110.400 237.034,110.400 236.400 C 110.400 235.766,110.580 235.136,110.800 235.000 C 111.020 234.864,111.200 234.234,111.200 233.600 C 111.200 232.966,111.380 232.336,111.600 232.200 C 111.820 232.064,112.000 231.513,112.000 230.976 C 112.000 230.439,112.180 230.000,112.400 230.000 C 112.620 230.000,112.800 229.638,112.800 229.195 C 112.800 228.752,112.959 228.077,113.153 227.695 C 113.348 227.313,113.729 226.460,114.000 225.800 C 114.271 225.140,114.652 224.287,114.847 223.905 C 115.041 223.523,115.200 222.938,115.200 222.605 C 115.200 222.272,115.336 222.000,115.502 222.000 C 115.669 222.000,116.042 221.415,116.332 220.700 C 117.142 218.702,120.026 213.073,120.584 212.400 C 120.857 212.070,121.513 210.990,122.041 210.000 C 122.568 209.010,123.090 208.110,123.200 208.000 C 123.310 207.890,124.021 206.900,124.779 205.800 C 125.538 204.700,126.267 203.710,126.399 203.600 C 126.531 203.490,127.071 202.770,127.600 202.000 C 128.129 201.230,128.660 200.510,128.781 200.400 C 128.902 200.290,130.171 198.851,131.600 197.203 C 134.594 193.752,136.761 191.578,140.574 188.200 C 142.064 186.880,143.489 185.614,143.742 185.387 C 143.994 185.160,144.830 184.536,145.600 184.000 C 146.370 183.464,147.232 182.802,147.515 182.527 C 147.798 182.253,148.563 181.713,149.215 181.328 C 149.867 180.943,150.400 180.486,150.400 180.314 C 150.400 180.141,150.670 180.000,151.000 180.000 C 151.330 180.000,151.600 179.841,151.600 179.647 C 151.600 179.452,151.915 179.193,152.300 179.071 C 153.209 178.783,155.153 177.588,156.158 176.700 C 156.594 176.315,157.187 176.000,157.475 176.000 C 157.764 176.000,158.000 175.820,158.000 175.600 C 158.000 175.380,158.345 175.200,158.767 175.200 C 159.188 175.200,159.593 175.065,159.667 174.900 C 159.881 174.419,167.510 170.936,171.187 169.641 C 172.295 169.250,173.322 168.811,173.468 168.665 C 173.614 168.519,174.066 168.400,174.472 168.400 C 174.878 168.400,175.523 168.242,175.905 168.049 C 177.061 167.465,179.404 166.800,180.305 166.800 C 180.771 166.800,181.264 166.620,181.400 166.400 C 181.536 166.180,182.231 166.000,182.944 166.000 C 183.657 166.000,184.411 165.838,184.620 165.641 C 184.829 165.444,185.810 165.169,186.800 165.031 C 187.790 164.893,189.770 164.597,191.200 164.373 C 194.023 163.931,203.619 163.135,206.200 163.128 C 210.040 163.118,218.269 163.683,219.000 164.007 C 219.440 164.202,220.700 164.455,221.800 164.570 C 226.276 165.037,227.818 165.295,228.180 165.639 C 228.389 165.837,229.053 166.000,229.656 166.000 C 230.259 166.000,230.864 166.180,231.000 166.400 C 231.136 166.620,231.779 166.800,232.429 166.800 C 233.079 166.800,233.923 166.957,234.305 167.150 C 234.687 167.342,236.350 167.956,238.000 168.514 C 243.643 170.420,245.686 171.238,249.941 173.293 C 252.284 174.425,254.290 175.451,254.400 175.575 C 254.744 175.962,256.966 177.239,257.700 177.471 C 258.085 177.593,258.400 177.852,258.400 178.047 C 258.400 178.241,258.593 178.400,258.828 178.400 C 259.215 178.400,262.064 180.226,263.591 181.453 C 263.926 181.722,265.460 182.889,267.000 184.045 C 268.540 185.202,270.070 186.432,270.400 186.779 C 270.730 187.126,272.170 188.397,273.600 189.605 C 276.772 192.283,276.517 192.028,279.195 195.200 C 280.403 196.630,281.674 198.070,282.021 198.400 C 282.368 198.730,283.598 200.260,284.755 201.800 C 285.911 203.340,287.078 204.874,287.347 205.209 C 288.574 206.736,290.400 209.585,290.400 209.972 C 290.400 210.207,290.559 210.400,290.753 210.400 C 290.948 210.400,291.207 210.715,291.329 211.100 C 291.561 211.834,292.838 214.056,293.225 214.400 C 293.349 214.510,294.375 216.516,295.507 218.859 C 297.562 223.114,298.380 225.157,300.286 230.800 C 300.844 232.450,301.458 234.113,301.650 234.495 C 301.843 234.877,302.000 235.721,302.000 236.371 C 302.000 237.021,302.180 237.664,302.400 237.800 C 302.620 237.936,302.800 238.541,302.800 239.144 C 302.800 239.747,302.963 240.411,303.161 240.620 C 303.505 240.982,303.763 242.524,304.230 247.000 C 304.345 248.100,304.598 249.360,304.793 249.800 C 305.117 250.531,305.682 258.760,305.672 262.600 C 305.665 265.181,304.869 274.777,304.427 277.600 C 304.203 279.030,303.907 281.010,303.769 282.000 C 303.631 282.990,303.356 283.971,303.159 284.180 C 302.962 284.389,302.800 285.143,302.800 285.856 C 302.800 286.569,302.620 287.264,302.400 287.400 C 302.180 287.536,302.000 288.029,302.000 288.495 C 302.000 289.396,301.335 291.739,300.751 292.895 C 300.558 293.277,300.400 293.922,300.400 294.328 C 300.400 294.734,300.281 295.186,300.135 295.332 C 299.989 295.478,299.550 296.505,299.159 297.613 C 297.876 301.257,294.416 308.853,293.857 309.254 C 293.662 309.393,293.593 309.753,293.703 310.054 C 293.887 310.556,299.200 300.150,299.200 299.287 C 299.200 298.932,300.441 295.598,301.243 293.800 C 302.075 291.934,304.211 282.823,305.135 277.200 C 306.531 268.707,306.564 255.355,305.205 248.200 C 304.997 247.100,304.552 244.760,304.217 243.000 C 294.953 194.335,248.050 158.666,198.800 162.831 M197.000 187.593 C 196.560 187.786,195.266 187.956,194.124 187.972 C 192.982 187.987,191.936 188.180,191.800 188.400 C 191.664 188.620,190.944 188.800,190.200 188.800 C 189.456 188.800,188.736 188.980,188.600 189.200 C 188.464 189.420,187.744 189.600,187.000 189.600 C 186.256 189.600,185.536 189.780,185.400 190.000 C 185.264 190.220,184.623 190.400,183.976 190.400 C 183.329 190.400,182.800 190.580,182.800 190.800 C 182.800 191.020,182.438 191.200,181.995 191.200 C 181.552 191.200,180.832 191.380,180.395 191.600 C 179.958 191.820,179.242 192.180,178.805 192.400 C 178.368 192.620,177.648 192.800,177.205 192.800 C 176.762 192.800,176.400 192.980,176.400 193.200 C 176.400 193.420,176.040 193.600,175.600 193.600 C 175.160 193.600,174.800 193.780,174.800 194.000 C 174.800 194.220,174.440 194.400,174.000 194.400 C 173.560 194.400,173.200 194.580,173.200 194.800 C 173.200 195.020,172.935 195.200,172.612 195.200 C 171.584 195.200,161.953 201.077,160.800 202.408 C 160.690 202.535,159.970 203.070,159.200 203.597 C 157.070 205.055,148.844 213.465,146.676 216.400 C 145.620 217.830,144.495 219.317,144.178 219.705 C 143.860 220.092,143.600 220.587,143.600 220.805 C 143.600 221.022,143.464 221.200,143.298 221.200 C 143.131 221.200,142.736 221.785,142.420 222.500 C 142.103 223.215,141.520 224.149,141.122 224.575 C 140.725 225.002,140.400 225.587,140.400 225.875 C 140.400 226.164,140.220 226.400,140.000 226.400 C 139.780 226.400,139.600 226.760,139.600 227.200 C 139.600 227.640,139.420 228.000,139.200 228.000 C 138.980 228.000,138.800 228.360,138.800 228.800 C 138.800 229.240,138.620 229.600,138.400 229.600 C 138.180 229.600,138.000 229.853,138.000 230.162 C 138.000 230.471,137.614 231.506,137.143 232.462 C 136.241 234.292,135.980 234.928,135.200 237.200 C 134.936 237.970,134.578 238.960,134.405 239.400 C 134.002 240.426,132.941 244.447,132.030 248.400 C 129.587 259.000,131.301 279.939,135.247 287.695 C 135.441 288.077,135.600 288.664,135.600 289.000 C 135.600 289.336,135.762 289.923,135.960 290.305 C 136.158 290.687,137.280 292.980,138.455 295.400 C 139.629 297.820,140.727 299.860,140.895 299.933 C 141.063 300.007,141.200 300.322,141.200 300.633 C 141.200 300.945,141.380 301.200,141.600 301.200 C 141.820 301.200,142.000 301.470,142.000 301.800 C 142.000 302.130,142.180 302.400,142.400 302.400 C 142.620 302.400,142.800 302.593,142.800 302.828 C 142.800 303.287,145.002 306.634,145.916 307.564 C 146.221 307.874,146.894 308.799,147.412 309.620 C 148.634 311.554,157.246 320.166,159.180 321.388 C 160.001 321.906,160.926 322.579,161.236 322.884 C 162.166 323.798,165.513 326.000,165.972 326.000 C 166.207 326.000,166.400 326.180,166.400 326.400 C 166.400 326.620,166.670 326.800,167.000 326.800 C 167.330 326.800,167.600 326.980,167.600 327.200 C 167.600 327.420,167.855 327.600,168.167 327.600 C 168.478 327.600,168.793 327.737,168.867 327.905 C 168.940 328.073,170.980 329.171,173.400 330.345 C 175.820 331.520,178.113 332.642,178.495 332.840 C 178.877 333.038,179.464 333.200,179.800 333.200 C 180.136 333.200,180.723 333.359,181.105 333.553 C 188.861 337.499,209.800 339.213,220.400 336.770 C 224.699 335.779,228.284 334.833,229.400 334.395 C 229.840 334.222,230.830 333.864,231.600 333.600 C 233.872 332.820,234.508 332.559,236.338 331.657 C 237.294 331.186,238.329 330.800,238.638 330.800 C 238.947 330.800,239.200 330.620,239.200 330.400 C 239.200 330.180,239.560 330.000,240.000 330.000 C 240.440 330.000,240.800 329.820,240.800 329.600 C 240.800 329.380,241.160 329.200,241.600 329.200 C 242.040 329.200,242.400 329.020,242.400 328.800 C 242.400 328.580,242.636 328.400,242.925 328.400 C 243.213 328.400,243.798 328.075,244.225 327.678 C 244.651 327.280,245.585 326.697,246.300 326.380 C 247.015 326.064,247.600 325.669,247.600 325.502 C 247.600 325.336,247.778 325.200,247.995 325.200 C 248.213 325.200,248.708 324.940,249.095 324.622 C 249.483 324.305,250.970 323.180,252.400 322.124 C 255.335 319.956,263.745 311.730,265.203 309.600 C 265.730 308.830,266.265 308.110,266.392 308.000 C 267.723 306.847,273.600 297.216,273.600 296.188 C 273.600 295.865,273.780 295.600,274.000 295.600 C 274.220 295.600,274.400 295.366,274.400 295.080 C 274.400 294.344,275.341 292.407,275.700 292.403 C 275.865 292.401,276.000 292.038,276.000 291.595 C 276.000 291.152,276.180 290.432,276.400 289.995 C 276.620 289.558,276.980 288.842,277.200 288.405 C 277.420 287.968,277.600 287.248,277.600 286.805 C 277.600 286.362,277.780 286.000,278.000 286.000 C 278.220 286.000,278.400 285.471,278.400 284.824 C 278.400 284.177,278.580 283.536,278.800 283.400 C 279.020 283.264,279.200 282.544,279.200 281.800 C 279.200 281.056,279.380 280.336,279.600 280.200 C 279.820 280.064,280.000 279.369,280.000 278.656 C 280.000 277.943,280.160 277.189,280.357 276.980 C 281.345 275.926,281.731 255.925,280.861 250.800 C 280.618 249.370,280.306 247.434,280.168 246.497 C 280.029 245.561,279.755 244.695,279.558 244.574 C 279.361 244.452,279.200 243.834,279.200 243.200 C 279.200 242.566,279.020 241.936,278.800 241.800 C 278.580 241.664,278.400 241.111,278.400 240.571 C 278.400 239.625,278.272 239.259,277.262 237.305 C 277.008 236.813,276.800 236.048,276.800 235.605 C 276.800 235.162,276.620 234.800,276.400 234.800 C 276.180 234.800,276.000 234.350,276.000 233.800 C 276.000 233.250,275.820 232.800,275.600 232.800 C 275.380 232.800,275.200 232.555,275.200 232.255 C 275.200 231.298,268.904 219.816,268.042 219.200 C 267.887 219.090,267.326 218.370,266.794 217.600 C 266.262 216.830,265.640 215.989,265.413 215.732 C 265.186 215.474,264.010 214.133,262.800 212.752 C 260.053 209.615,259.185 208.747,256.048 206.000 C 254.667 204.790,253.326 203.614,253.068 203.387 C 252.811 203.160,251.970 202.538,251.200 202.006 C 250.430 201.474,249.710 200.913,249.600 200.758 C 248.984 199.896,237.502 193.600,236.545 193.600 C 236.245 193.600,236.000 193.420,236.000 193.200 C 236.000 192.980,235.550 192.800,235.000 192.800 C 234.450 192.800,234.000 192.620,234.000 192.400 C 234.000 192.180,233.638 192.000,233.195 192.000 C 232.752 192.000,231.987 191.792,231.495 191.538 C 229.541 190.528,229.175 190.400,228.229 190.400 C 227.689 190.400,227.136 190.220,227.000 190.000 C 226.864 189.780,226.234 189.600,225.600 189.600 C 224.966 189.600,224.348 189.439,224.226 189.242 C 224.105 189.045,223.239 188.771,222.303 188.632 C 221.366 188.494,219.430 188.185,218.000 187.946 C 214.733 187.400,198.076 187.120,197.000 187.593 M214.123 188.010 C 222.080 189.145,226.123 190.085,231.600 192.076 C 235.620 193.537,242.916 197.091,245.391 198.794 C 246.355 199.457,247.244 200.000,247.366 200.000 C 249.805 200.000,268.800 219.005,268.800 221.445 C 268.800 221.561,269.343 222.445,270.006 223.409 C 276.620 233.022,281.221 249.179,281.187 262.677 C 281.113 292.800,261.686 321.444,234.200 331.960 C 232.880 332.465,231.440 333.024,231.000 333.203 C 229.286 333.898,228.839 334.036,224.500 335.204 C 215.405 337.651,202.197 338.139,193.479 336.350 C 189.555 335.544,184.599 334.339,183.800 333.996 C 183.360 333.807,182.280 333.424,181.400 333.145 C 180.520 332.865,179.629 332.493,179.420 332.318 C 179.211 332.143,178.815 332.000,178.540 332.000 C 175.007 332.000,160.285 322.277,153.403 315.399 C 146.544 308.543,136.800 293.797,136.800 290.273 C 136.800 289.991,136.657 289.589,136.482 289.380 C 136.307 289.171,135.935 288.280,135.655 287.400 C 135.376 286.520,134.993 285.440,134.804 285.000 C 134.461 284.201,133.256 279.245,132.450 275.321 C 130.661 266.603,131.149 253.395,133.596 244.300 C 134.764 239.961,134.902 239.514,135.597 237.800 C 135.776 237.360,136.335 235.920,136.840 234.600 C 148.331 204.565,183.124 183.590,214.123 188.010 M107.253 249.000 C 106.578 252.952,106.228 267.137,106.705 271.200 C 106.973 273.485,107.062 271.509,107.080 262.900 C 107.096 255.146,107.252 251.241,107.577 250.455 C 107.838 249.826,107.995 248.520,107.926 247.555 C 107.810 245.943,107.756 246.060,107.253 249.000 M107.229 275.200 C 107.238 275.750,107.395 276.920,107.577 277.800 L 107.908 279.400 107.948 277.400 C 107.970 276.300,107.813 275.130,107.600 274.800 C 107.294 274.327,107.216 274.411,107.229 275.200 M108.006 280.400 C 107.995 282.323,111.181 293.918,112.788 297.800 C 112.970 298.240,113.351 299.230,113.634 300.000 C 114.545 302.477,118.590 310.515,120.378 313.400 C 121.332 314.940,122.313 316.562,122.557 317.005 C 126.872 324.834,144.040 342.000,151.795 346.240 C 152.238 346.482,154.040 347.568,155.800 348.654 C 157.560 349.740,159.900 351.053,161.000 351.572 C 168.017 354.879,169.627 355.600,169.997 355.600 C 170.225 355.600,170.723 355.770,171.105 355.979 C 174.394 357.773,191.253 361.985,188.800 360.400 C 188.470 360.187,187.446 360.009,186.524 360.006 C 185.602 360.003,184.736 359.820,184.600 359.600 C 184.464 359.380,183.834 359.200,183.200 359.200 C 182.566 359.200,181.936 359.020,181.800 358.800 C 181.664 358.580,180.944 358.400,180.200 358.400 C 179.456 358.400,178.736 358.220,178.600 358.000 C 178.464 357.780,177.911 357.600,177.371 357.600 C 176.831 357.600,176.077 357.441,175.695 357.247 C 174.760 356.771,173.293 356.182,171.600 355.600 C 169.456 354.864,168.927 354.635,164.200 352.394 C 159.608 350.218,150.129 344.753,148.802 343.516 C 148.379 343.122,147.926 342.800,147.795 342.800 C 147.664 342.800,146.981 342.261,146.278 341.602 C 145.575 340.943,144.868 340.403,144.707 340.402 C 143.764 340.396,128.404 325.036,128.398 324.093 C 128.397 323.932,127.857 323.225,127.198 322.522 C 126.539 321.819,126.000 321.136,126.000 321.005 C 126.000 320.874,125.685 320.427,125.300 320.012 C 124.069 318.686,118.567 309.149,116.408 304.600 C 114.166 299.876,113.937 299.346,113.200 297.200 C 112.618 295.507,112.029 294.040,111.553 293.105 C 111.359 292.723,111.200 291.969,111.200 291.429 C 111.200 290.889,111.020 290.336,110.800 290.200 C 110.580 290.064,110.400 289.344,110.400 288.600 C 110.400 287.856,110.220 287.136,110.000 287.000 C 109.780 286.864,109.600 286.234,109.600 285.600 C 109.600 284.966,109.420 284.336,109.200 284.200 C 108.980 284.064,108.797 283.198,108.794 282.276 C 108.791 281.354,108.613 280.330,108.400 280.000 C 108.093 279.525,108.011 279.608,108.006 280.400 M292.800 311.325 C 292.800 311.613,292.485 312.206,292.100 312.642 C 291.212 313.647,290.017 315.591,289.729 316.500 C 289.607 316.885,289.348 317.200,289.153 317.200 C 288.959 317.200,288.800 317.470,288.800 317.800 C 288.800 318.130,288.659 318.400,288.486 318.400 C 288.314 318.400,287.857 318.933,287.472 319.585 C 287.087 320.237,286.547 321.002,286.273 321.285 C 285.998 321.568,285.336 322.430,284.800 323.200 C 284.264 323.970,283.640 324.806,283.413 325.058 C 283.186 325.311,281.920 326.736,280.600 328.226 C 277.222 332.039,275.048 334.206,271.597 337.200 C 269.949 338.629,268.510 339.898,268.400 340.019 C 268.290 340.140,267.570 340.671,266.800 341.200 C 266.030 341.729,265.310 342.269,265.200 342.401 C 265.090 342.533,264.100 343.262,263.000 344.021 C 261.900 344.779,260.910 345.490,260.800 345.600 C 260.690 345.710,259.790 346.232,258.800 346.759 C 257.810 347.287,256.730 347.943,256.400 348.216 C 255.727 348.774,250.098 351.658,248.100 352.468 C 247.385 352.758,246.800 353.131,246.800 353.298 C 246.800 353.464,246.528 353.600,246.195 353.600 C 245.862 353.600,245.277 353.759,244.895 353.953 C 244.513 354.148,243.660 354.529,243.000 354.800 C 242.340 355.071,241.487 355.452,241.105 355.647 C 240.723 355.841,240.048 356.000,239.605 356.000 C 239.162 356.000,238.800 356.180,238.800 356.400 C 238.800 356.620,238.361 356.800,237.824 356.800 C 237.287 356.800,236.736 356.980,236.600 357.200 C 236.464 357.420,235.834 357.600,235.200 357.600 C 234.566 357.600,233.936 357.780,233.800 358.000 C 233.664 358.220,233.034 358.400,232.400 358.400 C 231.766 358.400,231.136 358.580,231.000 358.800 C 230.864 359.020,230.144 359.200,229.400 359.200 C 228.656 359.200,227.936 359.380,227.800 359.600 C 227.664 359.820,226.798 360.003,225.876 360.006 C 224.954 360.009,223.930 360.187,223.600 360.400 C 222.367 361.197,225.174 360.796,230.679 359.388 C 236.183 357.981,237.164 357.660,243.600 355.157 C 254.867 350.776,268.636 341.634,276.963 333.005 C 279.965 329.894,282.710 326.855,283.832 325.398 C 290.002 317.395,294.234 310.800,293.200 310.800 C 292.980 310.800,292.800 311.036,292.800 311.325 M191.000 361.223 C 193.328 361.704,194.764 361.693,194.000 361.200 C 193.670 360.987,192.500 360.830,191.400 360.852 L 189.400 360.892 191.000 361.223 M218.254 361.258 C 217.770 361.539,213.492 361.703,206.054 361.725 C 199.567 361.744,195.641 361.879,197.000 362.036 C 203.160 362.747,217.053 362.281,221.600 361.210 C 222.955 360.891,222.936 360.879,221.000 360.852 C 219.900 360.837,218.664 361.019,218.254 361.258 " stroke="none" fill="#ccd4d4" fill-rule="evenodd"></path></g></svg>